<?plantuml 1.2026.2?><svg xmlns="http://www.w3.org/2000/svg" xmlns:xlink="http://www.w3.org/1999/xlink" contentStyleType="text/css" data-diagram-type="SEQUENCE" height="707px" preserveAspectRatio="none" style="width:1166px;height:707px;background:#FFFFFF;" version="1.1" viewBox="0 0 1166 707" width="1166px" zoomAndPan="magnify"><title>Punkt erfassen &#8212; Sequenz (Szenario &#167;6.1)</title><defs/><g><text fill="#000000" font-family="Helvetica" font-size="14" font-weight="bold" lengthAdjust="spacing" textLength="282.4199" x="443.7573" y="25.7803">Punkt erfassen &#8212; Sequenz (Szenario &#167;6.1)</text><g><title>Spring Boot</title><rect fill="#FFFFFF" height="389" style="stroke:#181818;stroke-width:1;" width="10" x="385.1006" y="183"/></g><g><title>MatchController</title><rect fill="#FFFFFF" height="269" style="stroke:#181818;stroke-width:1;" width="10" x="626.5376" y="276"/></g><g><title>MatchService</title><rect fill="#FFFFFF" height="215" style="stroke:#181818;stroke-width:1;" width="10" x="788.4365" y="303"/></g><g class="participant-lifeline" data-entity-uid="part1" data-qualified-name="Coach" id="part1-lifeline"><g><title>Coach</title><rect fill="#000000" fill-opacity="0.00000" height="503" width="8" x="24.2344" y="114"/><line style="stroke:#181818;stroke-width:0.5;stroke-dasharray:5,5;" x1="28" x2="28" y1="114" y2="617"/></g></g><g class="participant-lifeline" data-entity-uid="part2" data-qualified-name="FE" id="part2-lifeline"><g><title>Angular SPA</title><rect fill="#000000" fill-opacity="0.00000" height="503" width="8" x="188.6763" y="114"/><line style="stroke:#181818;stroke-width:0.5;stroke-dasharray:5,5;" x1="191.7798" x2="191.7798" y1="114" y2="617"/></g></g><g class="participant-lifeline" data-entity-uid="part3" data-qualified-name="API" id="part3-lifeline"><g><title>Spring Boot</title><rect fill="#000000" fill-opacity="0.00000" height="503" width="8" x="386.1006" y="114"/><line style="stroke:#181818;stroke-width:0.5;stroke-dasharray:5,5;" x1="389.5801" x2="389.5801" y1="114" y2="617"/></g></g><g class="participant-lifeline" data-entity-uid="part4" data-qualified-name="Ctrl" id="part4-lifeline"><g><title>MatchController</title><rect fill="#000000" fill-opacity="0.00000" height="503" width="8" x="627.5376" y="114"/><line style="stroke:#181818;stroke-width:0.5;stroke-dasharray:5,5;" x1="630.7378" x2="630.7378" y1="114" y2="617"/></g></g><g class="participant-lifeline" data-entity-uid="part5" data-qualified-name="Svc" id="part5-lifeline"><g><title>MatchService</title><rect fill="#000000" fill-opacity="0.00000" height="503" width="8" x="789.4365" y="114"/><line style="stroke:#181818;stroke-width:0.5;stroke-dasharray:5,5;" x1="793.0332" x2="793.0332" y1="114" y2="617"/></g></g><g class="participant-lifeline" data-entity-uid="part6" data-qualified-name="Scoring" id="part6-lifeline"><g><title>ScoringService</title><rect fill="#000000" fill-opacity="0.00000" height="503" width="8" x="951.4009" y="114"/><line style="stroke:#181818;stroke-width:0.5;stroke-dasharray:5,5;" x1="955.3252" x2="955.3252" y1="114" y2="617"/></g></g><g class="participant-lifeline" data-entity-uid="part7" data-qualified-name="DB" id="part7-lifeline"><g><title>PostgreSQL</title><rect fill="#000000" fill-opacity="0.00000" height="503" width="8" x="1088.7056" y="114"/><line style="stroke:#181818;stroke-width:0.5;stroke-dasharray:5,5;" x1="1092.4766" x2="1092.4766" y1="114" y2="617"/></g></g><g class="participant participant-head" data-entity-uid="part1" data-qualified-name="Coach" id="part1-head"><text fill="#000000" font-family="Helvetica" font-size="14" lengthAdjust="spacing" textLength="40.4688" x="5" y="110.7803">Coach</text><ellipse cx="28.2344" cy="48.5" fill="#E2E2F0" rx="8" ry="8" style="stroke:#181818;stroke-width:0.5;"/><path d="M28.2344,56.5 L28.2344,83.5 M15.2344,64.5 L41.2344,64.5 M28.2344,83.5 L15.2344,98.5 M28.2344,83.5 L41.2344,98.5" fill="none" style="stroke:#181818;stroke-width:0.5;"/></g><g class="participant participant-tail" data-entity-uid="part1" data-qualified-name="Coach" id="part1-tail"><text fill="#000000" font-family="Helvetica" font-size="14" lengthAdjust="spacing" textLength="40.4688" x="5" y="626.7803">Coach</text><ellipse cx="28.2344" cy="638.5" fill="#E2E2F0" rx="8" ry="8" style="stroke:#181818;stroke-width:0.5;"/><path d="M28.2344,646.5 L28.2344,673.5 M15.2344,654.5 L41.2344,654.5 M28.2344,673.5 L15.2344,688.5 M28.2344,673.5 L41.2344,688.5" fill="none" style="stroke:#181818;stroke-width:0.5;"/></g><g class="participant participant-head" data-entity-uid="part2" data-qualified-name="FE" id="part2-head"><rect fill="#E2E2F0" height="42" rx="2.5" ry="2.5" style="stroke:#181818;stroke-width:0.5;" width="105.793" x="139.7798" y="71"/><text fill="#000000" font-family="Helvetica" font-size="14" lengthAdjust="spacing" textLength="80.1582" x="152.5972" y="88.7803">Angular SPA</text><text fill="#000000" font-family="Helvetica" font-size="14" lengthAdjust="spacing" textLength="91.793" x="146.7798" y="102.7803">(match-record)</text></g><g class="participant participant-tail" data-entity-uid="part2" data-qualified-name="FE" id="part2-tail"><rect fill="#E2E2F0" height="42" rx="2.5" ry="2.5" style="stroke:#181818;stroke-width:0.5;" width="105.793" x="139.7798" y="616"/><text fill="#000000" font-family="Helvetica" font-size="14" lengthAdjust="spacing" textLength="80.1582" x="152.5972" y="633.7803">Angular SPA</text><text fill="#000000" font-family="Helvetica" font-size="14" lengthAdjust="spacing" textLength="91.793" x="146.7798" y="647.7803">(match-record)</text></g><g class="participant participant-head" data-entity-uid="part3" data-qualified-name="API" id="part3-head"><rect fill="#E2E2F0" height="42" rx="2.5" ry="2.5" style="stroke:#181818;stroke-width:0.5;" width="119.041" x="330.5801" y="71"/><text fill="#000000" font-family="Helvetica" font-size="14" lengthAdjust="spacing" textLength="73.1582" x="353.5215" y="88.7803">Spring Boot</text><text fill="#000000" font-family="Helvetica" font-size="14" lengthAdjust="spacing" textLength="105.041" x="337.5801" y="102.7803">Resource Server</text></g><g class="participant participant-tail" data-entity-uid="part3" data-qualified-name="API" id="part3-tail"><rect fill="#E2E2F0" height="42" rx="2.5" ry="2.5" style="stroke:#181818;stroke-width:0.5;" width="119.041" x="330.5801" y="616"/><text fill="#000000" font-family="Helvetica" font-size="14" lengthAdjust="spacing" textLength="73.1582" x="353.5215" y="633.7803">Spring Boot</text><text fill="#000000" font-family="Helvetica" font-size="14" lengthAdjust="spacing" textLength="105.041" x="337.5801" y="647.7803">Resource Server</text></g><g class="participant participant-head" data-entity-uid="part4" data-qualified-name="Ctrl" id="part4-head"><rect fill="#E2E2F0" height="42" rx="2.5" ry="2.5" style="stroke:#181818;stroke-width:0.5;" width="141.5996" x="560.7378" y="71"/><text fill="#000000" font-family="Helvetica" font-size="14" lengthAdjust="spacing" textLength="98.8135" x="582.1309" y="88.7803">MatchController</text><text fill="#000000" font-family="Helvetica" font-size="14" lengthAdjust="spacing" textLength="127.5996" x="567.7378" y="102.7803">(match-module/web)</text></g><g class="participant participant-tail" data-entity-uid="part4" data-qualified-name="Ctrl" id="part4-tail"><rect fill="#E2E2F0" height="42" rx="2.5" ry="2.5" style="stroke:#181818;stroke-width:0.5;" width="141.5996" x="560.7378" y="616"/><text fill="#000000" font-family="Helvetica" font-size="14" lengthAdjust="spacing" textLength="98.8135" x="582.1309" y="633.7803">MatchController</text><text fill="#000000" font-family="Helvetica" font-size="14" lengthAdjust="spacing" textLength="127.5996" x="567.7378" y="647.7803">(match-module/web)</text></g><g class="participant participant-head" data-entity-uid="part5" data-qualified-name="Svc" id="part5-head"><rect fill="#E2E2F0" height="42" rx="2.5" ry="2.5" style="stroke:#181818;stroke-width:0.5;" width="98.8066" x="744.0332" y="71"/><text fill="#000000" font-family="Helvetica" font-size="14" lengthAdjust="spacing" textLength="84.8066" x="751.0332" y="88.7803">MatchService</text><text fill="#000000" font-family="Helvetica" font-size="14" lengthAdjust="spacing" textLength="76.2617" x="755.3057" y="102.7803">(application)</text></g><g class="participant participant-tail" data-entity-uid="part5" data-qualified-name="Svc" id="part5-tail"><rect fill="#E2E2F0" height="42" rx="2.5" ry="2.5" style="stroke:#181818;stroke-width:0.5;" width="98.8066" x="744.0332" y="616"/><text fill="#000000" font-family="Helvetica" font-size="14" lengthAdjust="spacing" textLength="84.8066" x="751.0332" y="633.7803">MatchService</text><text fill="#000000" font-family="Helvetica" font-size="14" lengthAdjust="spacing" textLength="76.2617" x="755.3057" y="647.7803">(application)</text></g><g class="participant participant-head" data-entity-uid="part6" data-qualified-name="Scoring" id="part6-head"><rect fill="#E2E2F0" height="28" rx="2.5" ry="2.5" style="stroke:#181818;stroke-width:0.5;" width="108.1514" x="901.3252" y="85"/><text fill="#000000" font-family="Helvetica" font-size="14" lengthAdjust="spacing" textLength="94.1514" x="908.3252" y="102.7803">ScoringService</text></g><g class="participant participant-tail" data-entity-uid="part6" data-qualified-name="Scoring" id="part6-tail"><rect fill="#E2E2F0" height="28" rx="2.5" ry="2.5" style="stroke:#181818;stroke-width:0.5;" width="108.1514" x="901.3252" y="616"/><text fill="#000000" font-family="Helvetica" font-size="14" lengthAdjust="spacing" textLength="94.1514" x="908.3252" y="633.7803">ScoringService</text></g><g class="participant participant-head" data-entity-uid="part7" data-qualified-name="DB" id="part7-head"><text fill="#000000" font-family="Helvetica" font-size="14" lengthAdjust="spacing" textLength="76.2617" x="1051.5747" y="96.7803">PostgreSQL</text><text fill="#000000" font-family="Helvetica" font-size="14" lengthAdjust="spacing" textLength="140.458" x="1019.4766" y="110.7803">points + match_scores</text><path d="M1074.7056,50 C1074.7056,40 1092.7056,40 1092.7056,40 C1092.7056,40 1110.7056,40 1110.7056,50 L1110.7056,76 C1110.7056,86 1092.7056,86 1092.7056,86 C1092.7056,86 1074.7056,86 1074.7056,76 L1074.7056,50" fill="#E2E2F0" style="stroke:#181818;stroke-width:0.5;"/><path d="M1074.7056,50 C1074.7056,60 1092.7056,60 1092.7056,60 C1092.7056,60 1110.7056,60 1110.7056,50" fill="none" style="stroke:#181818;stroke-width:0.5;"/></g><g class="participant participant-tail" data-entity-uid="part7" data-qualified-name="DB" id="part7-tail"><text fill="#000000" font-family="Helvetica" font-size="14" lengthAdjust="spacing" textLength="76.2617" x="1051.5747" y="626.7803">PostgreSQL</text><text fill="#000000" font-family="Helvetica" font-size="14" lengthAdjust="spacing" textLength="140.458" x="1019.4766" y="640.7803">points + match_scores</text><path d="M1074.7056,654 C1074.7056,644 1092.7056,644 1092.7056,644 C1092.7056,644 1110.7056,644 1110.7056,654 L1110.7056,680 C1110.7056,690 1092.7056,690 1092.7056,690 C1092.7056,690 1074.7056,690 1074.7056,680 L1074.7056,654" fill="#E2E2F0" style="stroke:#181818;stroke-width:0.5;"/><path d="M1074.7056,654 C1074.7056,664 1092.7056,664 1092.7056,664 C1092.7056,664 1110.7056,664 1110.7056,654" fill="none" style="stroke:#181818;stroke-width:0.5;"/></g><g><title>Spring Boot</title><rect fill="#FFFFFF" height="389" style="stroke:#181818;stroke-width:1;" width="10" x="385.1006" y="183"/></g><g><title>MatchController</title><rect fill="#FFFFFF" height="269" style="stroke:#181818;stroke-width:1;" width="10" x="626.5376" y="276"/></g><g><title>MatchService</title><rect fill="#FFFFFF" height="215" style="stroke:#181818;stroke-width:1;" width="10" x="788.4365" y="303"/></g><g class="message" data-entity-1="part1" data-entity-2="part2" id="msg1"><polygon fill="#181818" points="180.6763,139,190.6763,143,180.6763,147,184.6763,143" style="stroke:#181818;stroke-width:1;"/><line style="stroke:#181818;stroke-width:1;" x1="28.2344" x2="186.6763" y1="143" y2="143"/><text fill="#000000" font-family="Helvetica" font-size="13" lengthAdjust="spacing" textLength="140.4419" x="40.2344" y="138.0103">Klick &#8222;Forehand Winner"</text></g><g class="message" data-entity-1="part2" data-entity-2="part3" id="msg2"><polygon fill="#181818" points="373.1006,179,383.1006,183,373.1006,187,377.1006,183" style="stroke:#181818;stroke-width:1;"/><line style="stroke:#181818;stroke-width:1;" x1="192.6763" x2="379.1006" y1="183" y2="183"/><text fill="#000000" font-family="Helvetica" font-size="13" lengthAdjust="spacing" textLength="173.4243" x="202.1763" y="165.0103">POST /api/matches/{id}/points</text><text fill="#000000" font-family="Helvetica" font-size="13" lengthAdjust="spacing" textLength="167.6289" x="205.074" y="178.0103">Authorization: Bearer &lt;JWT&gt;</text></g><g class="message" data-entity-1="part3" data-entity-2="part3" id="msg3"><line style="stroke:#181818;stroke-width:1;" x1="395.1006" x2="437.1006" y1="236" y2="236"/><line style="stroke:#181818;stroke-width:1;" x1="437.1006" x2="437.1006" y1="236" y2="249"/><line style="stroke:#181818;stroke-width:1;" x1="396.1006" x2="437.1006" y1="249" y2="249"/><polygon fill="#181818" points="406.1006,245,396.1006,249,406.1006,253,402.1006,249" style="stroke:#181818;stroke-width:1;"/><text fill="#000000" font-family="Helvetica" font-size="13" lengthAdjust="spacing" textLength="112.7026" x="402.1006" y="205.0103">NimbusJwtDecoder</text><text fill="#000000" font-family="Helvetica" font-size="13" lengthAdjust="spacing" textLength="72.4712" x="422.2163" y="218.0103">&#8226; validate iss</text><text fill="#000000" font-family="Helvetica" font-size="13" lengthAdjust="spacing" textLength="76.0703" x="420.4167" y="231.0103">&#8226; fetch JWKS</text></g><g class="message" data-entity-1="part3" data-entity-2="part4" id="msg4"><polygon fill="#181818" points="614.5376,272,624.5376,276,614.5376,280,618.5376,276" style="stroke:#181818;stroke-width:1;"/><line style="stroke:#181818;stroke-width:1;" x1="395.1006" x2="620.5376" y1="276" y2="276"/><text fill="#000000" font-family="Helvetica" font-size="13" lengthAdjust="spacing" textLength="212.437" x="404.6006" y="271.0103">recordPoint(id, RecordPointRequest)</text></g><g class="message" data-entity-1="part4" data-entity-2="part5" id="msg5"><polygon fill="#181818" points="776.4365,299,786.4365,303,776.4365,307,780.4365,303" style="stroke:#181818;stroke-width:1;"/><line style="stroke:#181818;stroke-width:1;" x1="636.5376" x2="782.4365" y1="303" y2="303"/><text fill="#000000" font-family="Helvetica" font-size="13" lengthAdjust="spacing" textLength="99.6963" x="662.6389" y="298.0103">recordPoint(cmd)</text></g><g class="message" data-entity-1="part5" data-entity-2="part7" id="msg6"><polygon fill="#181818" points="1080.7056,326,1090.7056,330,1080.7056,334,1084.7056,330" style="stroke:#181818;stroke-width:1;"/><line style="stroke:#181818;stroke-width:1;" x1="798.4365" x2="1086.7056" y1="330" y2="330"/><text fill="#000000" font-family="Helvetica" font-size="13" lengthAdjust="spacing" textLength="197.2725" x="846.9348" y="325.0103">load Match + MatchScore + points</text></g><g class="message" data-entity-1="part7" data-entity-2="part5" id="msg7"><polygon fill="#181818" points="809.4365,353,799.4365,357,809.4365,361,805.4365,357" style="stroke:#181818;stroke-width:1;"/><line style="stroke:#181818;stroke-width:1;stroke-dasharray:2,2;" x1="803.4365" x2="1091.7056" y1="357" y2="357"/><text fill="#000000" font-family="Helvetica" font-size="13" lengthAdjust="spacing" textLength="90.3462" x="900.3979" y="352.0103">aggregate state</text></g><g class="message" data-entity-1="part5" data-entity-2="part6" id="msg8"><polygon fill="#181818" points="943.4009,380,953.4009,384,943.4009,388,947.4009,384" style="stroke:#181818;stroke-width:1;"/><line style="stroke:#181818;stroke-width:1;" x1="798.4365" x2="949.4009" y1="384" y2="384"/><text fill="#000000" font-family="Helvetica" font-size="13" lengthAdjust="spacing" textLength="132.9644" x="810.4365" y="379.0103">applyPoint(state, point)</text></g><g class="message" data-entity-1="part6" data-entity-2="part5" id="msg9"><polygon fill="#181818" points="809.4365,420,799.4365,424,809.4365,428,805.4365,424" style="stroke:#181818;stroke-width:1;"/><line style="stroke:#181818;stroke-width:1;stroke-dasharray:2,2;" x1="803.4365" x2="954.4009" y1="424" y2="424"/><text fill="#000000" font-family="Helvetica" font-size="13" lengthAdjust="spacing" textLength="108.0244" x="822.9065" y="406.0103">new MatchScore +</text><text fill="#000000" font-family="Helvetica" font-size="13" lengthAdjust="spacing" textLength="86.7217" x="833.5579" y="419.0103">breakPoint flag</text></g><g class="message" data-entity-1="part5" data-entity-2="part7" id="msg10"><polygon fill="#181818" points="1080.7056,460,1090.7056,464,1080.7056,468,1084.7056,464" style="stroke:#181818;stroke-width:1;"/><line style="stroke:#181818;stroke-width:1;" x1="798.4365" x2="1086.7056" y1="464" y2="464"/><text fill="#000000" font-family="Helvetica" font-size="13" lengthAdjust="spacing" textLength="79.4727" x="905.8347" y="446.0103">INSERT point</text><text fill="#000000" font-family="Helvetica" font-size="13" lengthAdjust="spacing" textLength="130.7617" x="880.1902" y="459.0103">UPDATE match_score</text></g><g class="message" data-entity-1="part7" data-entity-2="part5" id="msg11"><polygon fill="#181818" points="809.4365,487,799.4365,491,809.4365,495,805.4365,491" style="stroke:#181818;stroke-width:1;"/><line style="stroke:#181818;stroke-width:1;stroke-dasharray:2,2;" x1="803.4365" x2="1091.7056" y1="491" y2="491"/><text fill="#000000" font-family="Helvetica" font-size="13" lengthAdjust="spacing" textLength="52.749" x="919.1965" y="486.0103">persisted</text></g><g class="message" data-entity-1="part5" data-entity-2="part4" id="msg12"><polygon fill="#181818" points="647.5376,514,637.5376,518,647.5376,522,643.5376,518" style="stroke:#181818;stroke-width:1;"/><line style="stroke:#181818;stroke-width:1;stroke-dasharray:2,2;" x1="641.5376" x2="792.4365" y1="518" y2="518"/><text fill="#000000" font-family="Helvetica" font-size="13" lengthAdjust="spacing" textLength="127.8989" x="651.0376" y="513.0103">MatchScoreResponse</text></g><g class="message" data-entity-1="part4" data-entity-2="part3" id="msg13"><polygon fill="#181818" points="406.1006,541,396.1006,545,406.1006,549,402.1006,545" style="stroke:#181818;stroke-width:1;"/><line style="stroke:#181818;stroke-width:1;stroke-dasharray:2,2;" x1="400.1006" x2="630.5376" y1="545" y2="545"/><text fill="#000000" font-family="Helvetica" font-size="13" lengthAdjust="spacing" textLength="121.0371" x="452.8005" y="540.0103">201 Created + JSON</text></g><g class="message" data-entity-1="part3" data-entity-2="part2" id="msg14"><polygon fill="#181818" points="203.6763,568,193.6763,572,203.6763,576,199.6763,572" style="stroke:#181818;stroke-width:1;"/><line style="stroke:#181818;stroke-width:1;stroke-dasharray:2,2;" x1="197.6763" x2="389.1006" y1="572" y2="572"/><text fill="#000000" font-family="Helvetica" font-size="13" lengthAdjust="spacing" textLength="97.2144" x="242.7813" y="567.0103">201 + Spielstand</text></g><g class="message" data-entity-1="part2" data-entity-2="part1" id="msg15"><polygon fill="#181818" points="39.2344,595,29.2344,599,39.2344,603,35.2344,599" style="stroke:#181818;stroke-width:1;"/><line style="stroke:#181818;stroke-width:1;" x1="33.2344" x2="191.6763" y1="599" y2="599"/><text fill="#000000" font-family="Helvetica" font-size="13" lengthAdjust="spacing" textLength="112.728" x="54.0913" y="594.0103">Anzeige aktualisiert</text></g><?plantuml-src RLDBRjim4Dth58EiOYIfcoww28e0_YHedCPnBHVP62Z6ubWcJ9CgITceWm8vHDTTTDDxz2WvIOTa_0kw4I3gVORlZRpqYc1Gwxa7ibDqZZGyF_s4dBxLfDTmdAz9evK6_lvv_-QyaMLkBdM55XVW8gQWEt8EIsefMMeeI7ko-wWP2hEIkeGfAaTxNmHDiLR-scZVnmN1Hr9ByhB0BCF26miTWyKiOp0VoWgrXwEMBck55l91QwoF5-YBsPcbmbZHE09qS7rrYCyh6wpRnlYn7f8pjIs8RsUNP2EXDRWvPDm5pGxFP8rIPBSk2oDgHSqLJP9Jnrlr7sQGbWKn3QjAyMMyD3enycNnQZYUcwTxeIHCEie4UfoW8pWQ6ETBI_ddJsDT6QczWnE88trr32ONUTrsbiMuuEoIGu0Bk6NpENVvwvf1CzG27gJMVEkCFpE8BywemNq-WYPMiXaboJKVfVZHJ4PZtQhzZ0TQnrjSG9lGaeKFlOVHPUX8Bj5JZ32eRKNxSZ6fNM_bkzoC21a-F_s69Ief0buwbqwcn9RGUxZDD_mGAWkaHWTXY6CfJc6uUn-6fNE-iREFHKGY2t36h_Z5Gko1GmS1mz1kcv7Ae81O7AUQ2WoXyakA86FKsLONIswY33hEytEZz59Q073dtvDlH9mccKQsWUoqDAqE3CTwOWddaGnJXUN1d3Vz_6euIcfZ_MNGROskzhVWSCwAh9FEaqWQks1tXlmlL4Rp_oZe89mKvBRATs_FeSDpiHPdqill-_k467siRhDr0Ny2UIL9SG1QxAF3dgJTIvjw0Isz9baIuDpNl1rEalN_0000?></g></svg>