<?plantuml 1.2026.2?><svg xmlns="http://www.w3.org/2000/svg" xmlns:xlink="http://www.w3.org/1999/xlink" contentStyleType="text/css" data-diagram-type="SEQUENCE" height="1206px" preserveAspectRatio="none" style="width:1935px;height:1206px;background:#FFFFFF;" version="1.1" viewBox="0 0 1935 1206" width="1935px" zoomAndPan="magnify"><title>KI-Match-Analyse generieren &#8212; Sequenz (Szenario &#167;6.2)</title><defs/><g><text fill="#000000" font-family="Helvetica" font-size="20" font-weight="bold" lengthAdjust="spacing" textLength="535.7031" x="700.6836" y="30.4004">KI-Match-Analyse generieren &#8212; Sequenz (Szenario &#167;6.2)</text><g><title>Resource Server</title><rect fill="#FFFFFF" height="878" style="stroke:#181818;stroke-width:1;" width="10" x="562.6953" y="200"/></g><g><title>MatchAnalysis</title><rect fill="#FFFFFF" height="818" style="stroke:#181818;stroke-width:1;" width="10" x="737.5469" y="230"/></g><g><title>MatchAnalysis</title><rect fill="#FFFFFF" height="758" style="stroke:#181818;stroke-width:1;" width="10" x="1024.125" y="260"/></g><g><title>LlmClientPort</title><rect fill="#FFFFFF" height="200" style="stroke:#181818;stroke-width:1;" width="10" x="1562.7305" y="587"/></g><rect fill="none" height="140" style="stroke:#000000;stroke-width:1.5;" width="434.25" x="1493.8203" y="602"/><rect fill="none" height="157" style="stroke:#000000;stroke-width:1.5;" width="1303.6875" x="490.6719" y="802"/><g class="participant-lifeline" data-entity-uid="part1" data-qualified-name="Coach" id="part1-lifeline"><g><title>Coach</title><rect fill="#000000" fill-opacity="0.00000" height="1004" width="8" x="27.125" y="122"/><line style="stroke:#181818;stroke-width:0.5;stroke-dasharray:5,5;" x1="31" x2="31" y1="122" y2="1126"/></g></g><g class="participant-lifeline" data-entity-uid="part2" data-qualified-name="FE" id="part2-lifeline"><g><title>Angular SPA</title><rect fill="#000000" fill-opacity="0.00000" height="1004" width="8" x="311.1406" y="122"/><line style="stroke:#181818;stroke-width:0.5;stroke-dasharray:5,5;" x1="314.3359" x2="314.3359" y1="122" y2="1126"/></g></g><g class="participant-lifeline" data-entity-uid="part3" data-qualified-name="API" id="part3-lifeline"><g><title>Resource Server</title><rect fill="#000000" fill-opacity="0.00000" height="1004" width="8" x="563.6953" y="122"/><line style="stroke:#181818;stroke-width:0.5;stroke-dasharray:5,5;" x1="567.6719" x2="567.6719" y1="122" y2="1126"/></g></g><g class="participant-lifeline" data-entity-uid="part4" data-qualified-name="Ctrl" id="part4-lifeline"><g><title>MatchAnalysis</title><rect fill="#000000" fill-opacity="0.00000" height="1004" width="8" x="738.5469" y="122"/><line style="stroke:#181818;stroke-width:0.5;stroke-dasharray:5,5;" x1="741.9727" x2="741.9727" y1="122" y2="1126"/></g></g><g class="participant-lifeline" data-entity-uid="part5" data-qualified-name="Svc" id="part5-lifeline"><g><title>MatchAnalysis</title><rect fill="#000000" fill-opacity="0.00000" height="1004" width="8" x="1025.125" y="122"/><line style="stroke:#181818;stroke-width:0.5;stroke-dasharray:5,5;" x1="1028.5508" x2="1028.5508" y1="122" y2="1126"/></g></g><g class="participant-lifeline" data-entity-uid="part6" data-qualified-name="Stats" id="part6-lifeline"><g><title>Statistics</title><rect fill="#000000" fill-opacity="0.00000" height="1004" width="8" x="1313.875" y="122"/><line style="stroke:#181818;stroke-width:0.5;stroke-dasharray:5,5;" x1="1317.8672" x2="1317.8672" y1="122" y2="1126"/></g></g><g class="participant-lifeline" data-entity-uid="part7" data-qualified-name="Notes" id="part7-lifeline"><g><title>GetPlayerNotes</title><rect fill="#000000" fill-opacity="0.00000" height="1004" width="8" x="1426.3516" y="122"/><line style="stroke:#181818;stroke-width:0.5;stroke-dasharray:5,5;" x1="1429.8828" x2="1429.8828" y1="122" y2="1126"/></g></g><g class="participant-lifeline" data-entity-uid="part8" data-qualified-name="Llm" id="part8-lifeline"><g><title>LlmClientPort</title><rect fill="#000000" fill-opacity="0.00000" height="1004" width="8" x="1563.7305" y="122"/><line style="stroke:#181818;stroke-width:0.5;stroke-dasharray:5,5;" x1="1566.8203" x2="1566.8203" y1="122" y2="1126"/></g></g><g class="participant-lifeline" data-entity-uid="part9" data-qualified-name="DB" id="part9-lifeline"><g><title>match_analysis</title><rect fill="#000000" fill-opacity="0.00000" height="1004" width="8" x="1722.2227" y="122"/><line style="stroke:#181818;stroke-width:0.5;stroke-dasharray:5,5;" x1="1726.0859" x2="1726.0859" y1="122" y2="1126"/></g></g><g class="participant-lifeline" data-entity-uid="part10" data-qualified-name="OpenAI" id="part10-lifeline"><g><title>OpenAI API</title><rect fill="#000000" fill-opacity="0.00000" height="1004" width="8" x="1864.8242" y="122"/><line style="stroke:#181818;stroke-width:0.5;stroke-dasharray:5,5;" x1="1868.5781" x2="1868.5781" y1="122" y2="1126"/></g></g><g class="participant participant-head" data-entity-uid="part1" data-qualified-name="Coach" id="part1-head"><text fill="#000000" font-family="Helvetica" font-size="16" lengthAdjust="spacing" textLength="46.25" x="5" y="118.3203">Coach</text><ellipse cx="31.125" cy="54.5" fill="#E2E2F0" rx="8" ry="8" style="stroke:#181818;stroke-width:0.5;"/><path d="M31.125,62.5 L31.125,89.5 M18.125,70.5 L44.125,70.5 M31.125,89.5 L18.125,104.5 M31.125,89.5 L44.125,104.5" fill="none" style="stroke:#181818;stroke-width:0.5;"/></g><g class="participant participant-tail" data-entity-uid="part1" data-qualified-name="Coach" id="part1-tail"><text fill="#000000" font-family="Helvetica" font-size="16" lengthAdjust="spacing" textLength="46.25" x="5" y="1137.3203">Coach</text><ellipse cx="31.125" cy="1149.5" fill="#E2E2F0" rx="8" ry="8" style="stroke:#181818;stroke-width:0.5;"/><path d="M31.125,1157.5 L31.125,1184.5 M18.125,1165.5 L44.125,1165.5 M31.125,1184.5 L18.125,1199.5 M31.125,1184.5 L44.125,1199.5" fill="none" style="stroke:#181818;stroke-width:0.5;"/></g><g class="participant participant-head" data-entity-uid="part2" data-qualified-name="FE" id="part2-head"><rect fill="#E2E2F0" height="30" rx="2.5" ry="2.5" style="stroke:#181818;stroke-width:0.5;" width="105.6094" x="262.3359" y="91"/><text fill="#000000" font-family="Helvetica" font-size="16" lengthAdjust="spacing" textLength="91.6094" x="269.3359" y="110.3203">Angular SPA</text></g><g class="participant participant-tail" data-entity-uid="part2" data-qualified-name="FE" id="part2-tail"><rect fill="#E2E2F0" height="30" rx="2.5" ry="2.5" style="stroke:#181818;stroke-width:0.5;" width="105.6094" x="262.3359" y="1125"/><text fill="#000000" font-family="Helvetica" font-size="16" lengthAdjust="spacing" textLength="91.6094" x="269.3359" y="1144.3203">Angular SPA</text></g><g class="participant participant-head" data-entity-uid="part3" data-qualified-name="API" id="part3-head"><rect fill="#E2E2F0" height="46" rx="2.5" ry="2.5" style="stroke:#181818;stroke-width:0.5;" width="134.0469" x="500.6719" y="75"/><text fill="#000000" font-family="Helvetica" font-size="16" lengthAdjust="spacing" textLength="120.0469" x="507.6719" y="94.3203">Resource Server</text><text fill="#000000" font-family="Helvetica" font-size="16" lengthAdjust="spacing" textLength="94.2656" x="520.5625" y="110.3203">(Spring Boot)</text></g><g class="participant participant-tail" data-entity-uid="part3" data-qualified-name="API" id="part3-tail"><rect fill="#E2E2F0" height="46" rx="2.5" ry="2.5" style="stroke:#181818;stroke-width:0.5;" width="134.0469" x="500.6719" y="1125"/><text fill="#000000" font-family="Helvetica" font-size="16" lengthAdjust="spacing" textLength="120.0469" x="507.6719" y="1144.3203">Resource Server</text><text fill="#000000" font-family="Helvetica" font-size="16" lengthAdjust="spacing" textLength="94.2656" x="520.5625" y="1160.3203">(Spring Boot)</text></g><g class="participant participant-head" data-entity-uid="part4" data-qualified-name="Ctrl" id="part4-head"><rect fill="#E2E2F0" height="46" rx="2.5" ry="2.5" style="stroke:#181818;stroke-width:0.5;" width="117.1484" x="683.9727" y="75"/><text fill="#000000" font-family="Helvetica" font-size="16" lengthAdjust="spacing" textLength="103.1484" x="690.9727" y="94.3203">MatchAnalysis</text><text fill="#000000" font-family="Helvetica" font-size="16" lengthAdjust="spacing" textLength="69.3594" x="707.8672" y="110.3203">Controller</text></g><g class="participant participant-tail" data-entity-uid="part4" data-qualified-name="Ctrl" id="part4-tail"><rect fill="#E2E2F0" height="46" rx="2.5" ry="2.5" style="stroke:#181818;stroke-width:0.5;" width="117.1484" x="683.9727" y="1125"/><text fill="#000000" font-family="Helvetica" font-size="16" lengthAdjust="spacing" textLength="103.1484" x="690.9727" y="1144.3203">MatchAnalysis</text><text fill="#000000" font-family="Helvetica" font-size="16" lengthAdjust="spacing" textLength="69.3594" x="707.8672" y="1160.3203">Controller</text></g><g class="participant participant-head" data-entity-uid="part5" data-qualified-name="Svc" id="part5-head"><rect fill="#E2E2F0" height="46" rx="2.5" ry="2.5" style="stroke:#181818;stroke-width:0.5;" width="117.1484" x="970.5508" y="75"/><text fill="#000000" font-family="Helvetica" font-size="16" lengthAdjust="spacing" textLength="103.1484" x="977.5508" y="94.3203">MatchAnalysis</text><text fill="#000000" font-family="Helvetica" font-size="16" lengthAdjust="spacing" textLength="53.3516" x="1002.4492" y="110.3203">Service</text></g><g class="participant participant-tail" data-entity-uid="part5" data-qualified-name="Svc" id="part5-tail"><rect fill="#E2E2F0" height="46" rx="2.5" ry="2.5" style="stroke:#181818;stroke-width:0.5;" width="117.1484" x="970.5508" y="1125"/><text fill="#000000" font-family="Helvetica" font-size="16" lengthAdjust="spacing" textLength="103.1484" x="977.5508" y="1144.3203">MatchAnalysis</text><text fill="#000000" font-family="Helvetica" font-size="16" lengthAdjust="spacing" textLength="53.3516" x="1002.4492" y="1160.3203">Service</text></g><g class="participant participant-head" data-entity-uid="part6" data-qualified-name="Stats" id="part6-head"><rect fill="#E2E2F0" height="46" rx="2.5" ry="2.5" style="stroke:#181818;stroke-width:0.5;" width="78.0156" x="1278.8672" y="75"/><text fill="#000000" font-family="Helvetica" font-size="16" lengthAdjust="spacing" textLength="64.0156" x="1285.8672" y="94.3203">Statistics</text><text fill="#000000" font-family="Helvetica" font-size="16" lengthAdjust="spacing" textLength="53.3516" x="1291.1992" y="110.3203">Service</text></g><g class="participant participant-tail" data-entity-uid="part6" data-qualified-name="Stats" id="part6-tail"><rect fill="#E2E2F0" height="46" rx="2.5" ry="2.5" style="stroke:#181818;stroke-width:0.5;" width="78.0156" x="1278.8672" y="1125"/><text fill="#000000" font-family="Helvetica" font-size="16" lengthAdjust="spacing" textLength="64.0156" x="1285.8672" y="1144.3203">Statistics</text><text fill="#000000" font-family="Helvetica" font-size="16" lengthAdjust="spacing" textLength="53.3516" x="1291.1992" y="1160.3203">Service</text></g><g class="participant participant-head" data-entity-uid="part7" data-qualified-name="Notes" id="part7-head"><rect fill="#E2E2F0" height="46" rx="2.5" ry="2.5" style="stroke:#181818;stroke-width:0.5;" width="126.9375" x="1366.8828" y="75"/><text fill="#000000" font-family="Helvetica" font-size="16" lengthAdjust="spacing" textLength="112.9375" x="1373.8828" y="94.3203">GetPlayerNotes</text><text fill="#000000" font-family="Helvetica" font-size="16" lengthAdjust="spacing" textLength="65.8047" x="1397.4492" y="110.3203">UseCase</text></g><g class="participant participant-tail" data-entity-uid="part7" data-qualified-name="Notes" id="part7-tail"><rect fill="#E2E2F0" height="46" rx="2.5" ry="2.5" style="stroke:#181818;stroke-width:0.5;" width="126.9375" x="1366.8828" y="1125"/><text fill="#000000" font-family="Helvetica" font-size="16" lengthAdjust="spacing" textLength="112.9375" x="1373.8828" y="1144.3203">GetPlayerNotes</text><text fill="#000000" font-family="Helvetica" font-size="16" lengthAdjust="spacing" textLength="65.8047" x="1397.4492" y="1160.3203">UseCase</text></g><g class="participant participant-head" data-entity-uid="part8" data-qualified-name="Llm" id="part8-head"><rect fill="#E2E2F0" height="46" rx="2.5" ry="2.5" style="stroke:#181818;stroke-width:0.5;" width="127.8203" x="1503.8203" y="75"/><text fill="#000000" font-family="Helvetica" font-size="16" lengthAdjust="spacing" textLength="96.0313" x="1519.7148" y="94.3203">LlmClientPort</text><text fill="#000000" font-family="Helvetica" font-size="16" lengthAdjust="spacing" textLength="113.8203" x="1510.8203" y="110.3203">(OpenAI / Fake)</text></g><g class="participant participant-tail" data-entity-uid="part8" data-qualified-name="Llm" id="part8-tail"><rect fill="#E2E2F0" height="46" rx="2.5" ry="2.5" style="stroke:#181818;stroke-width:0.5;" width="127.8203" x="1503.8203" y="1125"/><text fill="#000000" font-family="Helvetica" font-size="16" lengthAdjust="spacing" textLength="96.0313" x="1519.7148" y="1144.3203">LlmClientPort</text><text fill="#000000" font-family="Helvetica" font-size="16" lengthAdjust="spacing" textLength="113.8203" x="1510.8203" y="1160.3203">(OpenAI / Fake)</text></g><g class="participant participant-head" data-entity-uid="part9" data-qualified-name="DB" id="part9-head"><text fill="#000000" font-family="Helvetica" font-size="16" lengthAdjust="spacing" textLength="110.2734" x="1668.0859" y="118.3203">match_analysis</text><path d="M1708.2227,70 C1708.2227,60 1726.2227,60 1726.2227,60 C1726.2227,60 1744.2227,60 1744.2227,70 L1744.2227,96 C1744.2227,106 1726.2227,106 1726.2227,106 C1726.2227,106 1708.2227,106 1708.2227,96 L1708.2227,70" fill="#E2E2F0" style="stroke:#181818;stroke-width:0.5;"/><path d="M1708.2227,70 C1708.2227,80 1726.2227,80 1726.2227,80 C1726.2227,80 1744.2227,80 1744.2227,70" fill="none" style="stroke:#181818;stroke-width:0.5;"/></g><g class="participant participant-tail" data-entity-uid="part9" data-qualified-name="DB" id="part9-tail"><text fill="#000000" font-family="Helvetica" font-size="16" lengthAdjust="spacing" textLength="110.2734" x="1668.0859" y="1137.3203">match_analysis</text><path d="M1708.2227,1151 C1708.2227,1141 1726.2227,1141 1726.2227,1141 C1726.2227,1141 1744.2227,1141 1744.2227,1151 L1744.2227,1177 C1744.2227,1187 1726.2227,1187 1726.2227,1187 C1726.2227,1187 1708.2227,1187 1708.2227,1177 L1708.2227,1151" fill="#E2E2F0" style="stroke:#181818;stroke-width:0.5;"/><path d="M1708.2227,1151 C1708.2227,1161 1726.2227,1161 1726.2227,1161 C1726.2227,1161 1744.2227,1161 1744.2227,1151" fill="none" style="stroke:#181818;stroke-width:0.5;"/></g><g class="participant participant-head" data-entity-uid="part10" data-qualified-name="OpenAI" id="part10-head"><rect fill="#E2E2F0" height="30" rx="2.5" ry="2.5" style="stroke:#181818;stroke-width:0.5;" width="98.4922" x="1819.5781" y="91"/><text fill="#000000" font-family="Helvetica" font-size="16" lengthAdjust="spacing" textLength="84.4922" x="1826.5781" y="110.3203">OpenAI API</text></g><g class="participant participant-tail" data-entity-uid="part10" data-qualified-name="OpenAI" id="part10-tail"><rect fill="#E2E2F0" height="30" rx="2.5" ry="2.5" style="stroke:#181818;stroke-width:0.5;" width="98.4922" x="1819.5781" y="1125"/><text fill="#000000" font-family="Helvetica" font-size="16" lengthAdjust="spacing" textLength="84.4922" x="1826.5781" y="1144.3203">OpenAI API</text></g><g><title>Resource Server</title><rect fill="#FFFFFF" height="878" style="stroke:#181818;stroke-width:1;" width="10" x="562.6953" y="200"/></g><g><title>MatchAnalysis</title><rect fill="#FFFFFF" height="818" style="stroke:#181818;stroke-width:1;" width="10" x="737.5469" y="230"/></g><g><title>MatchAnalysis</title><rect fill="#FFFFFF" height="758" style="stroke:#181818;stroke-width:1;" width="10" x="1024.125" y="260"/></g><g><title>LlmClientPort</title><rect fill="#FFFFFF" height="200" style="stroke:#181818;stroke-width:1;" width="10" x="1562.7305" y="587"/></g><g class="message" data-entity-1="part1" data-entity-2="part2" id="msg1"><polygon fill="#181818" points="303.1406,150,313.1406,154,303.1406,158,307.1406,154" style="stroke:#181818;stroke-width:1;"/><line style="stroke:#181818;stroke-width:1;" x1="31.125" x2="309.1406" y1="154" y2="154"/><text fill="#000000" font-family="Helvetica" font-size="16" lengthAdjust="spacing" textLength="260.0156" x="43.125" y="148.3203">Klick &#8222;Taktische Analyse generieren"</text></g><g class="message" data-entity-1="part2" data-entity-2="part3" id="msg2"><polygon fill="#181818" points="550.6953,196,560.6953,200,550.6953,204,554.6953,200" style="stroke:#181818;stroke-width:1;"/><line style="stroke:#181818;stroke-width:1;" x1="315.1406" x2="556.6953" y1="200" y2="200"/><text fill="#000000" font-family="Helvetica" font-size="16" lengthAdjust="spacing" textLength="228.5547" x="324.6406" y="178.3203">POST /api/matches/{id}/analysis</text><text fill="#000000" font-family="Helvetica" font-size="16" lengthAdjust="spacing" textLength="206.3125" x="335.7617" y="194.3203">Authorization: Bearer &lt;JWT&gt;</text></g><g class="message" data-entity-1="part3" data-entity-2="part4" id="msg3"><polygon fill="#181818" points="725.5469,226,735.5469,230,725.5469,234,729.5469,230" style="stroke:#181818;stroke-width:1;"/><line style="stroke:#181818;stroke-width:1;" x1="572.6953" x2="731.5469" y1="230" y2="230"/><text fill="#000000" font-family="Helvetica" font-size="16" lengthAdjust="spacing" textLength="145.8516" x="582.1953" y="224.3203">generateAnalysis(id)</text></g><g class="message" data-entity-1="part4" data-entity-2="part5" id="msg4"><polygon fill="#181818" points="1012.125,256,1022.125,260,1012.125,264,1016.125,260" style="stroke:#181818;stroke-width:1;"/><line style="stroke:#181818;stroke-width:1;" x1="747.5469" x2="1018.125" y1="260" y2="260"/><text fill="#000000" font-family="Helvetica" font-size="16" lengthAdjust="spacing" textLength="130.7344" x="820.4688" y="254.3203">generate(matchId)</text></g><g class="message" data-entity-1="part5" data-entity-2="part5" id="msg5"><line style="stroke:#181818;stroke-width:1;" x1="1034.125" x2="1076.125" y1="306" y2="306"/><line style="stroke:#181818;stroke-width:1;" x1="1076.125" x2="1076.125" y1="306" y2="319"/><line style="stroke:#181818;stroke-width:1;" x1="1035.125" x2="1076.125" y1="319" y2="319"/><polygon fill="#181818" points="1045.125,315,1035.125,319,1045.125,323,1041.125,319" style="stroke:#181818;stroke-width:1;"/><text fill="#000000" font-family="Helvetica" font-size="16" lengthAdjust="spacing" textLength="254.75" x="1041.125" y="284.3203">assert MatchStatus = COMPLETED</text><text fill="#000000" font-family="Helvetica" font-size="16" lengthAdjust="spacing" textLength="60.4922" x="1138.2539" y="300.3203">else 409</text></g><g class="message" data-entity-1="part5" data-entity-2="part6" id="msg6"><polygon fill="#181818" points="1305.875,345,1315.875,349,1305.875,353,1309.875,349" style="stroke:#181818;stroke-width:1;"/><line style="stroke:#181818;stroke-width:1;" x1="1034.125" x2="1311.875" y1="349" y2="349"/><text fill="#000000" font-family="Helvetica" font-size="16" lengthAdjust="spacing" textLength="128.9375" x="1111.5313" y="343.3203">compute(matchId)</text></g><g class="message" data-entity-1="part6" data-entity-2="part5" id="msg7"><polygon fill="#181818" points="1045.125,375,1035.125,379,1045.125,383,1041.125,379" style="stroke:#181818;stroke-width:1;"/><line style="stroke:#181818;stroke-width:1;stroke-dasharray:2,2;" x1="1039.125" x2="1316.875" y1="379" y2="379"/><text fill="#000000" font-family="Helvetica" font-size="16" lengthAdjust="spacing" textLength="107.5859" x="1122.207" y="373.3203">MatchStatistics</text></g><g class="message" data-entity-1="part5" data-entity-2="part5" id="msg8"><line style="stroke:#181818;stroke-width:1;" x1="1034.125" x2="1076.125" y1="425" y2="425"/><line style="stroke:#181818;stroke-width:1;" x1="1076.125" x2="1076.125" y1="425" y2="438"/><line style="stroke:#181818;stroke-width:1;" x1="1035.125" x2="1076.125" y1="438" y2="438"/><polygon fill="#181818" points="1045.125,434,1035.125,438,1045.125,442,1041.125,438" style="stroke:#181818;stroke-width:1;"/><text fill="#000000" font-family="Helvetica" font-size="16" lengthAdjust="spacing" textLength="158.1953" x="1041.125" y="403.3203">assert totalPoints &#8805; 10</text><text fill="#000000" font-family="Helvetica" font-size="16" lengthAdjust="spacing" textLength="60.4922" x="1089.9766" y="419.3203">else 422</text></g><g class="message" data-entity-1="part5" data-entity-2="part7" id="msg9"><polygon fill="#181818" points="1418.3516,464,1428.3516,468,1418.3516,472,1422.3516,468" style="stroke:#181818;stroke-width:1;"/><line style="stroke:#181818;stroke-width:1;" x1="1034.125" x2="1424.3516" y1="468" y2="468"/><text fill="#000000" font-family="Helvetica" font-size="16" lengthAdjust="spacing" textLength="129.8125" x="1167.332" y="462.3203">forMatch(matchId)</text></g><g class="message" data-entity-1="part7" data-entity-2="part5" id="msg10"><polygon fill="#181818" points="1045.125,494,1035.125,498,1045.125,502,1041.125,498" style="stroke:#181818;stroke-width:1;"/><line style="stroke:#181818;stroke-width:1;stroke-dasharray:2,2;" x1="1039.125" x2="1429.3516" y1="498" y2="498"/><text fill="#000000" font-family="Helvetica" font-size="16" lengthAdjust="spacing" textLength="204.5313" x="1129.9727" y="492.3203">List&lt;MatchPlayerNote&gt; (0-2)</text></g><g class="message" data-entity-1="part5" data-entity-2="part5" id="msg11"><line style="stroke:#181818;stroke-width:1;" x1="1034.125" x2="1076.125" y1="544" y2="544"/><line style="stroke:#181818;stroke-width:1;" x1="1076.125" x2="1076.125" y1="544" y2="557"/><line style="stroke:#181818;stroke-width:1;" x1="1035.125" x2="1076.125" y1="557" y2="557"/><polygon fill="#181818" points="1045.125,553,1035.125,557,1045.125,561,1041.125,557" style="stroke:#181818;stroke-width:1;"/><text fill="#000000" font-family="Helvetica" font-size="16" lengthAdjust="spacing" textLength="184.0703" x="1041.125" y="522.3203">Coach-Notizen in Prompt-</text><text fill="#000000" font-family="Helvetica" font-size="16" lengthAdjust="spacing" textLength="183.2109" x="1041.5547" y="538.3203">Kontext einbetten (FA-22)</text></g><g class="message" data-entity-1="part5" data-entity-2="part8" id="msg12"><polygon fill="#181818" points="1550.7305,583,1560.7305,587,1550.7305,591,1554.7305,587" style="stroke:#181818;stroke-width:1;"/><line style="stroke:#181818;stroke-width:1;" x1="1034.125" x2="1556.7305" y1="587" y2="587"/><text fill="#000000" font-family="Helvetica" font-size="16" lengthAdjust="spacing" textLength="327.7109" x="1134.5723" y="581.3203">generateAnalysis(stats, playerMeta + Notizen)</text></g><path d="M1493.8203,602 L1557.4922,602 L1557.4922,610 L1547.4922,620 L1493.8203,620 L1493.8203,602" fill="#EEEEEE" style="stroke:#000000;stroke-width:1.5;"/><rect fill="none" height="140" style="stroke:#000000;stroke-width:1.5;" width="434.25" x="1493.8203" y="602"/><text fill="#000000" font-family="Helvetica" font-size="16" font-weight="bold" lengthAdjust="spacing" textLength="18.6719" x="1508.8203" y="615.3203">alt</text><text fill="#000000" font-family="Helvetica" font-size="16" font-weight="bold" lengthAdjust="spacing" textLength="165.3438" x="1572.4922" y="616.3203">[API-Key konfiguriert]</text><g class="message" data-entity-1="part8" data-entity-2="part10" id="msg13"><polygon fill="#181818" points="1856.8242,639,1866.8242,643,1856.8242,647,1860.8242,643" style="stroke:#181818;stroke-width:1;"/><line style="stroke:#181818;stroke-width:1;" x1="1572.7305" x2="1862.8242" y1="643" y2="643"/><text fill="#000000" font-family="Helvetica" font-size="16" lengthAdjust="spacing" textLength="272.0938" x="1584.7305" y="637.3203">ChatClient.entity(MatchAnalysis.class)</text></g><g class="message" data-entity-1="part10" data-entity-2="part8" id="msg14"><polygon fill="#181818" points="1583.7305,669,1573.7305,673,1583.7305,677,1579.7305,673" style="stroke:#181818;stroke-width:1;"/><line style="stroke:#181818;stroke-width:1;stroke-dasharray:2,2;" x1="1577.7305" x2="1867.8242" y1="673" y2="673"/><text fill="#000000" font-family="Helvetica" font-size="16" lengthAdjust="spacing" textLength="118.2578" x="1661.6484" y="667.3203">structured JSON</text></g><line style="stroke:#000000;stroke-width:1;stroke-dasharray:2,2;" x1="1493.8203" x2="1928.0703" y1="682" y2="682"/><text fill="#000000" font-family="Helvetica" font-size="16" font-weight="bold" lengthAdjust="spacing" textLength="108.4688" x="1498.8203" y="694.3203">[kein API-Key]</text><g class="message" data-entity-1="part8" data-entity-2="part8" id="msg15"><line style="stroke:#181818;stroke-width:1;" x1="1572.7305" x2="1614.7305" y1="721" y2="721"/><line style="stroke:#181818;stroke-width:1;" x1="1614.7305" x2="1614.7305" y1="721" y2="734"/><line style="stroke:#181818;stroke-width:1;" x1="1573.7305" x2="1614.7305" y1="734" y2="734"/><polygon fill="#181818" points="1583.7305,730,1573.7305,734,1583.7305,738,1579.7305,734" style="stroke:#181818;stroke-width:1;"/><text fill="#000000" font-family="Helvetica" font-size="16" lengthAdjust="spacing" textLength="124.4922" x="1579.7305" y="715.3203">deterministic stub</text></g><g class="message" data-entity-1="part8" data-entity-2="part5" id="msg16"><polygon fill="#181818" points="1045.125,783,1035.125,787,1045.125,791,1041.125,787" style="stroke:#181818;stroke-width:1;"/><line style="stroke:#181818;stroke-width:1;stroke-dasharray:2,2;" x1="1039.125" x2="1566.7305" y1="787" y2="787"/><text fill="#000000" font-family="Helvetica" font-size="16" lengthAdjust="spacing" textLength="226.7109" x="1187.5723" y="765.3203">MatchAnalysis (COMPLETED) /</text><text fill="#000000" font-family="Helvetica" font-size="16" lengthAdjust="spacing" textLength="106.7344" x="1252.0059" y="781.3203">oder Exception</text></g><path d="M490.6719,802 L554.3438,802 L554.3438,810 L544.3438,820 L490.6719,820 L490.6719,802" fill="#EEEEEE" style="stroke:#000000;stroke-width:1.5;"/><rect fill="none" height="157" style="stroke:#000000;stroke-width:1.5;" width="1303.6875" x="490.6719" y="802"/><text fill="#000000" font-family="Helvetica" font-size="16" font-weight="bold" lengthAdjust="spacing" textLength="18.6719" x="505.6719" y="815.3203">alt</text><text fill="#000000" font-family="Helvetica" font-size="16" font-weight="bold" lengthAdjust="spacing" textLength="93.3438" x="569.3438" y="816.3203">[erfolgreich]</text><g class="message" data-entity-1="part5" data-entity-2="part9" id="msg17"><polygon fill="#181818" points="1714.2227,839,1724.2227,843,1714.2227,847,1718.2227,843" style="stroke:#181818;stroke-width:1;"/><line style="stroke:#181818;stroke-width:1;" x1="1034.125" x2="1720.2227" y1="843" y2="843"/><text fill="#000000" font-family="Helvetica" font-size="16" lengthAdjust="spacing" textLength="341.4219" x="1209.4629" y="837.3203">UPSERT match_analysis (status COMPLETED)</text></g><line style="stroke:#000000;stroke-width:1;stroke-dasharray:2,2;" x1="490.6719" x2="1794.3594" y1="852" y2="852"/><text fill="#000000" font-family="Helvetica" font-size="16" font-weight="bold" lengthAdjust="spacing" textLength="96.875" x="495.6719" y="864.3203">[LLM-Fehler]</text><g class="message" data-entity-1="part5" data-entity-2="part9" id="msg18"><polygon fill="#181818" points="1714.2227,887,1724.2227,891,1714.2227,895,1718.2227,891" style="stroke:#181818;stroke-width:1;"/><line style="stroke:#181818;stroke-width:1;" x1="1034.125" x2="1720.2227" y1="891" y2="891"/><text fill="#000000" font-family="Helvetica" font-size="16" lengthAdjust="spacing" textLength="405.4609" x="1177.4434" y="885.3203">UPSERT match_analysis (status FAILED, errorMessage)</text></g><g class="message" data-entity-1="part5" data-entity-2="part4" id="msg19"><polygon fill="#181818" points="758.5469,917,748.5469,921,758.5469,925,754.5469,921" style="stroke:#181818;stroke-width:1;"/><line style="stroke:#181818;stroke-width:1;" x1="752.5469" x2="1023.125" y1="921" y2="921"/><text fill="#000000" font-family="Helvetica" font-size="16" lengthAdjust="spacing" textLength="252.5781" x="759.5469" y="915.3203">throw AnalysisGenerationException</text></g><g class="message" data-entity-1="part4" data-entity-2="part3" id="msg20"><polygon fill="#181818" points="583.6953,947,573.6953,951,583.6953,955,579.6953,951" style="stroke:#181818;stroke-width:1;"/><line style="stroke:#181818;stroke-width:1;stroke-dasharray:2,2;" x1="577.6953" x2="736.5469" y1="951" y2="951"/><text fill="#000000" font-family="Helvetica" font-size="16" lengthAdjust="spacing" textLength="131.625" x="589.3086" y="945.3203">502 ProblemDetail</text></g><g class="message" data-entity-1="part9" data-entity-2="part5" id="msg21"><polygon fill="#181818" points="1045.125,984,1035.125,988,1045.125,992,1041.125,988" style="stroke:#181818;stroke-width:1;"/><line style="stroke:#181818;stroke-width:1;stroke-dasharray:2,2;" x1="1039.125" x2="1725.2227" y1="988" y2="988"/><text fill="#000000" font-family="Helvetica" font-size="16" lengthAdjust="spacing" textLength="64.9219" x="1347.7129" y="982.3203">persisted</text></g><g class="message" data-entity-1="part5" data-entity-2="part4" id="msg22"><polygon fill="#181818" points="758.5469,1014,748.5469,1018,758.5469,1022,754.5469,1018" style="stroke:#181818;stroke-width:1;"/><line style="stroke:#181818;stroke-width:1;stroke-dasharray:2,2;" x1="752.5469" x2="1028.125" y1="1018" y2="1018"/><text fill="#000000" font-family="Helvetica" font-size="16" lengthAdjust="spacing" textLength="175.1953" x="800.7383" y="1012.3203">MatchAnalysisResponse</text></g><g class="message" data-entity-1="part4" data-entity-2="part3" id="msg23"><polygon fill="#181818" points="583.6953,1044,573.6953,1048,583.6953,1052,579.6953,1048" style="stroke:#181818;stroke-width:1;"/><line style="stroke:#181818;stroke-width:1;stroke-dasharray:2,2;" x1="577.6953" x2="741.5469" y1="1048" y2="1048"/><text fill="#000000" font-family="Helvetica" font-size="16" lengthAdjust="spacing" textLength="115.1641" x="600.0391" y="1042.3203">200 OK + JSON</text></g><g class="message" data-entity-1="part3" data-entity-2="part2" id="msg24"><polygon fill="#181818" points="326.1406,1074,316.1406,1078,326.1406,1082,322.1406,1078" style="stroke:#181818;stroke-width:1;"/><line style="stroke:#181818;stroke-width:1;stroke-dasharray:2,2;" x1="320.1406" x2="566.6953" y1="1078" y2="1078"/><text fill="#000000" font-family="Helvetica" font-size="16" lengthAdjust="spacing" textLength="101.8516" x="390.4922" y="1072.3203">200 + Analyse</text></g><g class="message" data-entity-1="part2" data-entity-2="part1" id="msg25"><polygon fill="#181818" points="42.125,1104,32.125,1108,42.125,1112,38.125,1108" style="stroke:#181818;stroke-width:1;"/><line style="stroke:#181818;stroke-width:1;" x1="36.125" x2="314.1406" y1="1108" y2="1108"/><text fill="#000000" font-family="Helvetica" font-size="16" lengthAdjust="spacing" textLength="205.9063" x="70.1797" y="1102.3203">5 Textfelder + Empfehlungen</text></g><?plantuml-src bLLDZnf74BtFhoZj2RIU1IF7KYnd9POF6mCByc3vWcJrpXJGekcUTDUilHj5oZNtd7EByZ_oK_nBKjq3p8ozYfG31wXNhpxUwu8aAOJf99uBIdTnNmlru12sgD5AjAZXwsz_G88_5wWVePKyeXPM6lZdxvTNlNOKkRtKkR3Y02vWKfoZSsABVIMt6bBKXBQEsedCV9Pw2nkX7DOY6Mv4eMXiDDsA0y9RLFT8CXLFOnBvYF3yPIr8VfHpgDUD8f6IiJ0m8jr5Z64ocGjDSD7Nsq892ycoVm72mNZKZBz7PmgR8Wzkxz6kTIl9hM_wnXXgXvJ-SjBC2GiizoVTMW-u4MkKGXlW0xBgF_6-aamnW9Fxj8bDI91q_FrR8F_kcj0tI4ib7j3U6aA6Vt0u4Aw4Xv-Qy9aw39HabPR64i-vo57t9z21iTXZEIb3eaoGk6CQk3ZujZ-9Ozy1CBnfSXuvU4CXN7wDeg03nDUyRNW5KoNJFPlhpvNOyspf3k5xyrr4ZEKCfkAKvI9PGKVaiXEQGDVvHMQ_TiHvX_s2TiRAHrwMqQ_W1eL52w_VVLnTUo_8Uq4OXFDyJEj5OTvGZqCdCLeoQrVue5n0SWOhKqjeXJucTRINpeFEME4SMeAWjfUhSF0J31RpvMoq6WtN6laLm8lkZ-SiBoddfUQG5_KIPI0-4vyPIsCyMPKC2RKqKdFcrz__WkVTKy5UxvGGJC4f6sC3PLMnZ5GLPrpfTS1K3hk6LZVcGz2e7fIEESmFKOFKiBGy3SLhFULNWLy8KEex9E9eQzoFUnK1c-qfHPmV_XdaeUuSIS0b7Fbho_TE5OgynF4K7s1lz4Pk2-ybYY1mSucZFRdDdQ3I_5VyaVJGQhp9grJn6jkSUCo8p_qviaLAXSKCtYMBsoZiTCz3dKfNrSg43FaC7gGEMd5wSHUXpgA0QIfwgWwjiqdQq5bh09EncKTVKiozlQCClviRxSQehKN9zmxWkD7X3LD_M2QZzojeFbu8QsL3LfNAIMQpUJp67T-k_qKpxazce-4pRiEobyg_WNR5S7njjBFcCvp6V5CgpGDLaq49ZSyF_uTkprleJk5XoDfB5PR77LMxoz4o6s5M6gagrrWgt_NSQFxRgItFlzXlwlMwNLXCsM91t1est89mF4vdp4ClJvUh3lLdfZnUvTtZAM35rj-WyZfUmkYGRtZ7XMQp_mi0?></g></svg>