<?plantuml 1.2026.2?><svg xmlns="http://www.w3.org/2000/svg" xmlns:xlink="http://www.w3.org/1999/xlink" contentStyleType="text/css" data-diagram-type="SEQUENCE" height="1042px" preserveAspectRatio="none" style="width:1244px;height:1042px;background:#FFFFFF;" version="1.1" viewBox="0 0 1244 1042" width="1244px" zoomAndPan="magnify"><title>Benutzer-Authentifizierung &#8212; Sequenz (Szenario &#167;6.3)</title><defs/><g><text fill="#000000" font-family="Helvetica" font-size="20" font-weight="bold" lengthAdjust="spacing" textLength="516.7188" x="360.1055" y="30.4004">Benutzer-Authentifizierung &#8212; Sequenz (Szenario &#167;6.3)</text><g><title>Angular SPA</title><rect fill="#FFFFFF" height="485" style="stroke:#181818;stroke-width:1;" width="10" x="289.2773" y="198"/></g><g><title>Keycloak</title><rect fill="#FFFFFF" height="274" style="stroke:#181818;stroke-width:1;" width="10" x="597.6758" y="303"/></g><g><title>Keycloak</title><rect fill="#FFFFFF" height="30" style="stroke:#181818;stroke-width:1;" width="10" x="597.6758" y="623"/></g><g><title>Google IdP</title><rect fill="#FFFFFF" height="60" style="stroke:#181818;stroke-width:1;" width="10" x="855.2383" y="437"/></g><g><title>Resource Server</title><rect fill="#FFFFFF" height="89" style="stroke:#181818;stroke-width:1;" width="10" x="979.2891" y="803"/></g><rect fill="none" height="200" style="stroke:#000000;stroke-width:1.5;" width="907.2656" x="10" y="348"/><g class="participant-lifeline" data-entity-uid="part1" data-qualified-name="User" id="part1-lifeline"><g><title>Benutzer</title><rect fill="#000000" fill-opacity="0.00000" height="840" width="8" x="51.0195" y="122"/><line style="stroke:#181818;stroke-width:0.5;stroke-dasharray:5,5;" x1="55" x2="55" y1="122" y2="962"/></g></g><g class="participant-lifeline" data-entity-uid="part2" data-qualified-name="FE" id="part2-lifeline"><g><title>Angular SPA</title><rect fill="#000000" fill-opacity="0.00000" height="840" width="8" x="290.2773" y="122"/><line style="stroke:#181818;stroke-width:0.5;stroke-dasharray:5,5;" x1="293.4727" x2="293.4727" y1="122" y2="962"/></g></g><g class="participant-lifeline" data-entity-uid="part3" data-qualified-name="KC" id="part3-lifeline"><g><title>Keycloak</title><rect fill="#000000" fill-opacity="0.00000" height="840" width="8" x="598.6758" y="122"/><line style="stroke:#181818;stroke-width:0.5;stroke-dasharray:5,5;" x1="602.2148" x2="602.2148" y1="122" y2="962"/></g></g><g class="participant-lifeline" data-entity-uid="part4" data-qualified-name="Google" id="part4-lifeline"><g><title>Google IdP</title><rect fill="#000000" fill-opacity="0.00000" height="840" width="8" x="856.2383" y="122"/><line style="stroke:#181818;stroke-width:0.5;stroke-dasharray:5,5;" x1="860.2109" x2="860.2109" y1="122" y2="962"/></g></g><g class="participant-lifeline" data-entity-uid="part5" data-qualified-name="API" id="part5-lifeline"><g><title>Resource Server</title><rect fill="#000000" fill-opacity="0.00000" height="840" width="8" x="980.2891" y="122"/><line style="stroke:#181818;stroke-width:0.5;stroke-dasharray:5,5;" x1="984.2656" x2="984.2656" y1="122" y2="962"/></g></g><g class="participant participant-head" data-entity-uid="part1" data-qualified-name="User" id="part1-head"><text fill="#000000" font-family="Helvetica" font-size="16" lengthAdjust="spacing" textLength="64.0391" x="20" y="118.3203">Benutzer</text><ellipse cx="55.0195" cy="54.5" fill="#E2E2F0" rx="8" ry="8" style="stroke:#181818;stroke-width:0.5;"/><path d="M55.0195,62.5 L55.0195,89.5 M42.0195,70.5 L68.0195,70.5 M55.0195,89.5 L42.0195,104.5 M55.0195,89.5 L68.0195,104.5" fill="none" style="stroke:#181818;stroke-width:0.5;"/></g><g class="participant participant-tail" data-entity-uid="part1" data-qualified-name="User" id="part1-tail"><text fill="#000000" font-family="Helvetica" font-size="16" lengthAdjust="spacing" textLength="64.0391" x="20" y="973.3203">Benutzer</text><ellipse cx="55.0195" cy="985.5" fill="#E2E2F0" rx="8" ry="8" style="stroke:#181818;stroke-width:0.5;"/><path d="M55.0195,993.5 L55.0195,1020.5 M42.0195,1001.5 L68.0195,1001.5 M55.0195,1020.5 L42.0195,1035.5 M55.0195,1020.5 L68.0195,1035.5" fill="none" style="stroke:#181818;stroke-width:0.5;"/></g><g class="participant participant-head" data-entity-uid="part2" data-qualified-name="FE" id="part2-head"><rect fill="#E2E2F0" height="30" rx="2.5" ry="2.5" style="stroke:#181818;stroke-width:0.5;" width="105.6094" x="241.4727" y="91"/><text fill="#000000" font-family="Helvetica" font-size="16" lengthAdjust="spacing" textLength="91.6094" x="248.4727" y="110.3203">Angular SPA</text></g><g class="participant participant-tail" data-entity-uid="part2" data-qualified-name="FE" id="part2-tail"><rect fill="#E2E2F0" height="30" rx="2.5" ry="2.5" style="stroke:#181818;stroke-width:0.5;" width="105.6094" x="241.4727" y="961"/><text fill="#000000" font-family="Helvetica" font-size="16" lengthAdjust="spacing" textLength="91.6094" x="248.4727" y="980.3203">Angular SPA</text></g><g class="participant participant-head" data-entity-uid="part3" data-qualified-name="KC" id="part3-head"><rect fill="#E2E2F0" height="30" rx="2.5" ry="2.5" style="stroke:#181818;stroke-width:0.5;" width="78.9219" x="563.2148" y="91"/><text fill="#000000" font-family="Helvetica" font-size="16" lengthAdjust="spacing" textLength="64.9219" x="570.2148" y="110.3203">Keycloak</text></g><g class="participant participant-tail" data-entity-uid="part3" data-qualified-name="KC" id="part3-tail"><rect fill="#E2E2F0" height="30" rx="2.5" ry="2.5" style="stroke:#181818;stroke-width:0.5;" width="78.9219" x="563.2148" y="961"/><text fill="#000000" font-family="Helvetica" font-size="16" lengthAdjust="spacing" textLength="64.9219" x="570.2148" y="980.3203">Keycloak</text></g><g class="participant participant-head" data-entity-uid="part4" data-qualified-name="Google" id="part4-head"><rect fill="#E2E2F0" height="30" rx="2.5" ry="2.5" style="stroke:#181818;stroke-width:0.5;" width="94.0547" x="813.2109" y="91"/><text fill="#000000" font-family="Helvetica" font-size="16" lengthAdjust="spacing" textLength="80.0547" x="820.2109" y="110.3203">Google IdP</text></g><g class="participant participant-tail" data-entity-uid="part4" data-qualified-name="Google" id="part4-tail"><rect fill="#E2E2F0" height="30" rx="2.5" ry="2.5" style="stroke:#181818;stroke-width:0.5;" width="94.0547" x="813.2109" y="961"/><text fill="#000000" font-family="Helvetica" font-size="16" lengthAdjust="spacing" textLength="80.0547" x="820.2109" y="980.3203">Google IdP</text></g><g class="participant participant-head" data-entity-uid="part5" data-qualified-name="API" id="part5-head"><rect fill="#E2E2F0" height="30" rx="2.5" ry="2.5" style="stroke:#181818;stroke-width:0.5;" width="134.0469" x="917.2656" y="91"/><text fill="#000000" font-family="Helvetica" font-size="16" lengthAdjust="spacing" textLength="120.0469" x="924.2656" y="110.3203">Resource Server</text></g><g class="participant participant-tail" data-entity-uid="part5" data-qualified-name="API" id="part5-tail"><rect fill="#E2E2F0" height="30" rx="2.5" ry="2.5" style="stroke:#181818;stroke-width:0.5;" width="134.0469" x="917.2656" y="961"/><text fill="#000000" font-family="Helvetica" font-size="16" lengthAdjust="spacing" textLength="120.0469" x="924.2656" y="980.3203">Resource Server</text></g><g><title>Angular SPA</title><rect fill="#FFFFFF" height="485" style="stroke:#181818;stroke-width:1;" width="10" x="289.2773" y="198"/></g><g><title>Keycloak</title><rect fill="#FFFFFF" height="274" style="stroke:#181818;stroke-width:1;" width="10" x="597.6758" y="303"/></g><g><title>Keycloak</title><rect fill="#FFFFFF" height="30" style="stroke:#181818;stroke-width:1;" width="10" x="597.6758" y="623"/></g><g><title>Google IdP</title><rect fill="#FFFFFF" height="60" style="stroke:#181818;stroke-width:1;" width="10" x="855.2383" y="437"/></g><g><title>Resource Server</title><rect fill="#FFFFFF" height="89" style="stroke:#181818;stroke-width:1;" width="10" x="979.2891" y="803"/></g><rect fill="#EEEEEE" height="3" style="stroke:#EEEEEE;stroke-width:1;" width="1237.9297" x="0" y="153"/><line style="stroke:#000000;stroke-width:1;" x1="0" x2="1237.9297" y1="153" y2="153"/><line style="stroke:#000000;stroke-width:1;" x1="0" x2="1237.9297" y1="156" y2="156"/><rect fill="#EEEEEE" height="24" style="stroke:#000000;stroke-width:2;" width="349.5313" x="444.1992" y="142"/><text fill="#000000" font-family="Helvetica" font-size="16" font-weight="bold" lengthAdjust="spacing" textLength="331.0859" x="450.1992" y="158.3203">Login (OAuth2 Authorization Code + PKCE)</text><g class="message" data-entity-1="part1" data-entity-2="part2" id="msg1"><polygon fill="#181818" points="277.2773,194,287.2773,198,277.2773,202,281.2773,198" style="stroke:#181818;stroke-width:1;"/><line style="stroke:#181818;stroke-width:1;" x1="55.0195" x2="283.2773" y1="198" y2="198"/><text fill="#000000" font-family="Helvetica" font-size="16" lengthAdjust="spacing" textLength="215.2578" x="64.5195" y="192.3203">App &#246;ffnen / gesch&#252;tzte Route</text></g><g class="message" data-entity-1="part2" data-entity-2="part2" id="msg2"><line style="stroke:#181818;stroke-width:1;" x1="299.2773" x2="341.2773" y1="244" y2="244"/><line style="stroke:#181818;stroke-width:1;" x1="341.2773" x2="341.2773" y1="244" y2="257"/><line style="stroke:#181818;stroke-width:1;" x1="300.2773" x2="341.2773" y1="257" y2="257"/><polygon fill="#181818" points="310.2773,253,300.2773,257,310.2773,261,306.2773,257" style="stroke:#181818;stroke-width:1;"/><text fill="#000000" font-family="Helvetica" font-size="16" lengthAdjust="spacing" textLength="221.4375" x="332.7578" y="222.3203">AuthGuard: kein Access-Token</text><text fill="#000000" font-family="Helvetica" font-size="16" lengthAdjust="spacing" textLength="274.3984" x="306.2773" y="238.3203">code_verifier + code_challenge (S256)</text></g><g class="message" data-entity-1="part2" data-entity-2="part3" id="msg3"><polygon fill="#181818" points="585.6758,299,595.6758,303,585.6758,307,589.6758,303" style="stroke:#181818;stroke-width:1;"/><line style="stroke:#181818;stroke-width:1;" x1="299.2773" x2="591.6758" y1="303" y2="303"/><text fill="#000000" font-family="Helvetica" font-size="16" lengthAdjust="spacing" textLength="134.2891" x="381.332" y="281.3203">Redirect /authorize</text><text fill="#000000" font-family="Helvetica" font-size="16" lengthAdjust="spacing" textLength="253.9297" x="321.5117" y="297.3203">(response_type=code, PKCE S256)</text></g><g class="message" data-entity-1="part3" data-entity-2="part1" id="msg4"><polygon fill="#181818" points="66.0195,329,56.0195,333,66.0195,337,62.0195,333" style="stroke:#181818;stroke-width:1;"/><line style="stroke:#181818;stroke-width:1;" x1="60.0195" x2="596.6758" y1="333" y2="333"/><text fill="#000000" font-family="Helvetica" font-size="16" lengthAdjust="spacing" textLength="80.9453" x="285.875" y="327.3203">Login-Seite</text></g><path d="M10,348 L73.6719,348 L73.6719,356 L63.6719,366 L10,366 L10,348" fill="#EEEEEE" style="stroke:#000000;stroke-width:1.5;"/><rect fill="none" height="200" style="stroke:#000000;stroke-width:1.5;" width="907.2656" x="10" y="348"/><text fill="#000000" font-family="Helvetica" font-size="16" font-weight="bold" lengthAdjust="spacing" textLength="18.6719" x="25" y="361.3203">alt</text><text fill="#000000" font-family="Helvetica" font-size="16" font-weight="bold" lengthAdjust="spacing" textLength="165.3359" x="88.6719" y="362.3203">[Passwort-Login (V1)]</text><g class="message" data-entity-1="part1" data-entity-2="part3" id="msg5"><polygon fill="#181818" points="585.6758,385,595.6758,389,585.6758,393,589.6758,389" style="stroke:#181818;stroke-width:1;"/><line style="stroke:#181818;stroke-width:1;" x1="55.0195" x2="591.6758" y1="389" y2="389"/><text fill="#000000" font-family="Helvetica" font-size="16" lengthAdjust="spacing" textLength="188.0938" x="232.3008" y="383.3203">Benutzername + Passwort</text></g><line style="stroke:#000000;stroke-width:1;stroke-dasharray:2,2;" x1="10" x2="917.2656" y1="398" y2="398"/><text fill="#000000" font-family="Helvetica" font-size="16" font-weight="bold" lengthAdjust="spacing" textLength="263.1016" x="15" y="410.3203">[Google-Login (ab V2, Federation)]</text><g class="message" data-entity-1="part3" data-entity-2="part4" id="msg6"><polygon fill="#181818" points="843.2383,433,853.2383,437,843.2383,441,847.2383,437" style="stroke:#181818;stroke-width:1;"/><line style="stroke:#181818;stroke-width:1;" x1="607.6758" x2="849.2383" y1="437" y2="437"/><text fill="#000000" font-family="Helvetica" font-size="16" lengthAdjust="spacing" textLength="228.5625" x="617.1758" y="431.3203">Redirect zur Google-Anmeldung</text></g><g class="message" data-entity-1="part1" data-entity-2="part4" id="msg7"><polygon fill="#181818" points="843.2383,463,853.2383,467,843.2383,471,847.2383,467" style="stroke:#181818;stroke-width:1;"/><line style="stroke:#181818;stroke-width:1;" x1="55.0195" x2="849.2383" y1="467" y2="467"/><text fill="#000000" font-family="Helvetica" font-size="16" lengthAdjust="spacing" textLength="96.0703" x="407.0938" y="461.3203">Google-Login</text></g><g class="message" data-entity-1="part4" data-entity-2="part3" id="msg8"><polygon fill="#181818" points="618.6758,493,608.6758,497,618.6758,501,614.6758,497" style="stroke:#181818;stroke-width:1;"/><line style="stroke:#181818;stroke-width:1;stroke-dasharray:2,2;" x1="612.6758" x2="859.2383" y1="497" y2="497"/><text fill="#000000" font-family="Helvetica" font-size="16" lengthAdjust="spacing" textLength="145.3906" x="661.2617" y="491.3203">Callback + ID-Token</text></g><g class="message" data-entity-1="part3" data-entity-2="part3" id="msg9"><line style="stroke:#181818;stroke-width:1;" x1="607.6758" x2="649.6758" y1="527" y2="527"/><line style="stroke:#181818;stroke-width:1;" x1="649.6758" x2="649.6758" y1="527" y2="540"/><line style="stroke:#181818;stroke-width:1;" x1="608.6758" x2="649.6758" y1="540" y2="540"/><polygon fill="#181818" points="618.6758,536,608.6758,540,618.6758,544,614.6758,540" style="stroke:#181818;stroke-width:1;"/><text fill="#000000" font-family="Helvetica" font-size="16" lengthAdjust="spacing" textLength="195.7031" x="614.6758" y="521.3203">Konto verkn&#252;pfen / anlegen</text></g><g class="message" data-entity-1="part3" data-entity-2="part2" id="msg10"><polygon fill="#181818" points="310.2773,573,300.2773,577,310.2773,581,306.2773,577" style="stroke:#181818;stroke-width:1;"/><line style="stroke:#181818;stroke-width:1;stroke-dasharray:2,2;" x1="304.2773" x2="601.6758" y1="577" y2="577"/><text fill="#000000" font-family="Helvetica" font-size="16" lengthAdjust="spacing" textLength="213.8984" x="344.0273" y="571.3203">Redirect + Authorization Code</text></g><g class="message" data-entity-1="part2" data-entity-2="part3" id="msg11"><polygon fill="#181818" points="585.6758,619,595.6758,623,585.6758,627,589.6758,623" style="stroke:#181818;stroke-width:1;"/><line style="stroke:#181818;stroke-width:1;" x1="299.2773" x2="591.6758" y1="623" y2="623"/><text fill="#000000" font-family="Helvetica" font-size="16" lengthAdjust="spacing" textLength="91.5938" x="402.6797" y="601.3203">POST /token</text><text fill="#000000" font-family="Helvetica" font-size="16" lengthAdjust="spacing" textLength="155.1875" x="370.8828" y="617.3203">(code + code_verifier)</text></g><g class="message" data-entity-1="part3" data-entity-2="part2" id="msg12"><polygon fill="#181818" points="310.2773,649,300.2773,653,310.2773,657,306.2773,653" style="stroke:#181818;stroke-width:1;"/><line style="stroke:#181818;stroke-width:1;stroke-dasharray:2,2;" x1="304.2773" x2="601.6758" y1="653" y2="653"/><text fill="#000000" font-family="Helvetica" font-size="16" lengthAdjust="spacing" textLength="220.5156" x="340.7188" y="647.3203">Access- + Refresh- + ID-Token</text></g><g class="message" data-entity-1="part2" data-entity-2="part1" id="msg13"><polygon fill="#181818" points="66.0195,679,56.0195,683,66.0195,687,62.0195,683" style="stroke:#181818;stroke-width:1;"/><line style="stroke:#181818;stroke-width:1;" x1="60.0195" x2="293.2773" y1="683" y2="683"/><text fill="#000000" font-family="Helvetica" font-size="16" lengthAdjust="spacing" textLength="161.8828" x="93.707" y="677.3203">App bereit (eingeloggt)</text></g><rect fill="#EEEEEE" height="3" style="stroke:#EEEEEE;stroke-width:1;" width="1237.9297" x="0" y="712"/><line style="stroke:#000000;stroke-width:1;" x1="0" x2="1237.9297" y1="712" y2="712"/><line style="stroke:#000000;stroke-width:1;" x1="0" x2="1237.9297" y1="715" y2="715"/><rect fill="#EEEEEE" height="24" style="stroke:#000000;stroke-width:2;" width="228.2109" x="504.8594" y="701"/><text fill="#000000" font-family="Helvetica" font-size="16" font-weight="bold" lengthAdjust="spacing" textLength="209.7656" x="510.8594" y="717.3203">Authentifizierter API-Zugriff</text><g class="message" data-entity-1="part1" data-entity-2="part2" id="msg14"><polygon fill="#181818" points="282.2773,753,292.2773,757,282.2773,761,286.2773,757" style="stroke:#181818;stroke-width:1;"/><line style="stroke:#181818;stroke-width:1;" x1="55.0195" x2="288.2773" y1="757" y2="757"/><text fill="#000000" font-family="Helvetica" font-size="16" lengthAdjust="spacing" textLength="183.1875" x="83.0547" y="751.3203">Aktion (z. B. Match laden)</text></g><g class="message" data-entity-1="part2" data-entity-2="part5" id="msg15"><polygon fill="#181818" points="967.2891,799,977.2891,803,967.2891,807,971.2891,803" style="stroke:#181818;stroke-width:1;"/><line style="stroke:#181818;stroke-width:1;" x1="294.2773" x2="973.2891" y1="803" y2="803"/><text fill="#000000" font-family="Helvetica" font-size="16" lengthAdjust="spacing" textLength="80.9141" x="594.1035" y="781.3203">GET /api/...</text><text fill="#000000" font-family="Helvetica" font-size="16" lengthAdjust="spacing" textLength="274.8047" x="499.3809" y="797.3203">Authorization: Bearer &lt;Access-Token&gt;</text></g><g class="message" data-entity-1="part5" data-entity-2="part5" id="msg16"><line style="stroke:#181818;stroke-width:1;" x1="989.2891" x2="1031.2891" y1="849" y2="849"/><line style="stroke:#181818;stroke-width:1;" x1="1031.2891" x2="1031.2891" y1="849" y2="862"/><line style="stroke:#181818;stroke-width:1;" x1="990.2891" x2="1031.2891" y1="862" y2="862"/><polygon fill="#181818" points="1000.2891,858,990.2891,862,1000.2891,866,996.2891,862" style="stroke:#181818;stroke-width:1;"/><text fill="#000000" font-family="Helvetica" font-size="16" lengthAdjust="spacing" textLength="105.8047" x="1053.207" y="827.3203">JWT validieren</text><text fill="#000000" font-family="Helvetica" font-size="16" lengthAdjust="spacing" textLength="219.6406" x="996.2891" y="843.3203">(JWKS von Keycloak, gecacht)</text></g><g class="message" data-entity-1="part5" data-entity-2="part2" id="msg17"><polygon fill="#181818" points="305.2773,888,295.2773,892,305.2773,896,301.2773,892" style="stroke:#181818;stroke-width:1;"/><line style="stroke:#181818;stroke-width:1;stroke-dasharray:2,2;" x1="299.2773" x2="983.2891" y1="892" y2="892"/><text fill="#000000" font-family="Helvetica" font-size="16" lengthAdjust="spacing" textLength="87.625" x="595.4707" y="886.3203">200 + Daten</text></g><path d="M216,905 L216,947 L679,947 L679,915 L669,905 L216,905" fill="#FEFFDD" style="stroke:#181818;stroke-width:0.5;"/><path d="M669,905 L669,915 L679,915 L669,905" fill="#FEFFDD" style="stroke:#181818;stroke-width:0.5;"/><text fill="#000000" font-family="Helvetica" font-size="16" lengthAdjust="spacing" textLength="239.2422" x="222" y="922.3203">Bei abgelaufenem Access-Token:</text><text fill="#000000" font-family="Helvetica" font-size="16" lengthAdjust="spacing" textLength="442.0156" x="222" y="938.3203">Refresh-Token &#8594; neues Access-Token (ohne erneuten Login)</text><?plantuml-src RLHBRjim4Dth58EiR3Ys4nVDmgW3ACwdgPl6iDC4A0m4D3MI2SkaIb4EebLNFK3HE_G6NMNLt2GdwOZwH4AyCKpDXs_UUqCZJ8XmWZ8nAUgkcvWLIYDyaGhKYGpWvSTlcEFt16KAhNcAaccXuD-VezwxjkF4Qo4Zfja6Ofl3yGhZc0NeXYAGmAaNwdhMYddgGL1VduKnrY8U-Ym9pRcIvWlR87p4S8j6SBOxPovIXCEZMj1aarIXmO7ZC6wKXhrok3rWCNoD2GyLK6SHCMbWpvL14Z8DywbhCyxFcl49Fl9GiRKDJiRDu8LI0V5twKrjE3ysKsOOgqHp91Rrja3XJYyTPpI2poeG4bhN6Uq3o7wL5YapGaaOAm-X0zF9-AmDev7ZPD2XUqm0OGXk5C7pNz-NAA4F0SPyzVnaKeCmKud1R7QnPNIaSQYWAgChBXAclI6iaQvsEIUzkZTgZN8XELrvJnX9Vhgg0_RCLomCKGP8yW_U7xMBTfCnjPkX9pHo0trMOCU5R6cC8oLZl3UF4Owo9ljs3CZhAsX49dMXNdQoOSv6Tuw2y3iiD31bSVoWjEaMFDqUjXs0aWUBe1HNPfxfL1KEahiAESfgjeJRmJwSeuVQKfmrom4KCjO6IXDTbhjoWw57kq3f5VP2wLSqLOlwfHGlldTBm6DYSyduci1UdkR4KvQ7Rpldq6pHX6ojW9HPo-UdoBUQCnbYGCKeFSVoM6fSpT3PuIYdTXFnNzDoUZs_WRx9dT3YkViQZdWhNMMht4PKC4EVv5zrw-FjkhAGFBFn4ZL93YtoOu2X2WBJhfUGWRDLQRvCzAfaIzJzbWI4pT-n7sixSYljmKaFhfZXAmYPXxBqBrLdOftHp2mI_Lwl1mlPu2ip5zFKyqDzIuvVISYsE6jJTVjqTmDR5WgF45eMFzrDvh0b7EKZia-hoXbVqOYsieGxE3WWnawfQuCk-qv8HVyKYK2f-wNh1R0biSKICWDk6diyNCXI1Nk6bv-_G6A2SICDMceb4MXra1uCcMzVs_aF?></g></svg>