<?plantuml 1.2026.2?><svg xmlns="http://www.w3.org/2000/svg" xmlns:xlink="http://www.w3.org/1999/xlink" contentStyleType="text/css" data-diagram-type="DESCRIPTION" height="900px" preserveAspectRatio="none" style="width:1756px;height:900px;background:#FFFFFF;" version="1.1" viewBox="0 0 1756 900" width="1756px" zoomAndPan="magnify"><title>TSaS Backend - Clean Architecture (Klassen-Detail)</title><defs/><g><g class="title" data-source-line="9"><text fill="#000000" font-family="Arial" font-size="22" font-weight="bold" lengthAdjust="spacing" textLength="540.3857" x="603.3071" y="41.6357">TSaS Backend - Clean Architecture (Klassen-Detail)</text></g><!--cluster infrastructure--><g class="cluster" data-qualified-name="infrastructure" data-source-line="14" id="ent0002"><path d="M389.5,585.9479 L474.0161,585.9479 A3.75,3.75 0 0 1 476.5161,588.4479 L483.5161,616.5968 L1746.5,616.5968 A2.5,2.5 0 0 1 1749,619.0968 L1749,891.3979 A2.5,2.5 0 0 1 1746.5,893.8979 L389.5,893.8979 A2.5,2.5 0 0 1 387,891.3979 L387,588.4479 A2.5,2.5 0 0 1 389.5,585.9479" fill="#DDEEFF" style="stroke:#000000;stroke-width:1;"/><line style="stroke:#000000;stroke-width:1;" x1="387" x2="483.5161" y1="616.5968" y2="616.5968"/><text fill="#000000" font-family="Arial" font-size="11" font-weight="bold" lengthAdjust="spacing" textLength="71.5161" x="397" y="604.2657">infrastructure</text></g><!--cluster web (REST Adapter)--><g class="cluster" data-qualified-name="infrastructure.web .REST Adapter." data-source-line="16" id="ent0003"><path d="M951.5,636.9479 L1070.23,636.9479 A3.75,3.75 0 0 1 1072.73,639.4479 L1079.73,667.5968 L1556.5,667.5968 A2.5,2.5 0 0 1 1559,670.0968 L1559,738.0979 A2.5,2.5 0 0 1 1556.5,740.5979 L951.5,740.5979 A2.5,2.5 0 0 1 949,738.0979 L949,639.4479 A2.5,2.5 0 0 1 951.5,636.9479" fill="#C5D8F0" style="stroke:#000000;stroke-width:1;"/><line style="stroke:#000000;stroke-width:1;" x1="949" x2="1079.73" y1="667.5968" y2="667.5968"/><text fill="#000000" font-family="Arial" font-size="11" font-weight="bold" lengthAdjust="spacing" textLength="105.73" x="959" y="655.2657">web (REST Adapter)</text></g><!--cluster persistence (JPA Adapter)--><g class="cluster" data-qualified-name="infrastructure.persistence .JPA Adapter." data-source-line="23" id="ent0008"><path d="M413.5,636.9479 L564.043,636.9479 A3.75,3.75 0 0 1 566.543,639.4479 L573.543,667.5968 L922.5,667.5968 A2.5,2.5 0 0 1 925,670.0968 L925,867.3979 A2.5,2.5 0 0 1 922.5,869.8979 L413.5,869.8979 A2.5,2.5 0 0 1 411,867.3979 L411,639.4479 A2.5,2.5 0 0 1 413.5,636.9479" fill="#C5D8F0" style="stroke:#000000;stroke-width:1;"/><line style="stroke:#000000;stroke-width:1;" x1="411" x2="573.543" y1="667.5968" y2="667.5968"/><text fill="#000000" font-family="Arial" font-size="11" font-weight="bold" lengthAdjust="spacing" textLength="137.543" x="421" y="655.2657">persistence (JPA Adapter)</text></g><!--cluster security--><g class="cluster" data-qualified-name="infrastructure.security" data-source-line="31" id="ent0014"><path d="M1585.5,636.9479 L1640.6899,636.9479 A3.75,3.75 0 0 1 1643.1899,639.4479 L1650.1899,667.5968 L1722.5,667.5968 A2.5,2.5 0 0 1 1725,670.0968 L1725,738.0979 A2.5,2.5 0 0 1 1722.5,740.5979 L1585.5,740.5979 A2.5,2.5 0 0 1 1583,738.0979 L1583,639.4479 A2.5,2.5 0 0 1 1585.5,636.9479" fill="#C5D8F0" style="stroke:#000000;stroke-width:1;"/><line style="stroke:#000000;stroke-width:1;" x1="1583" x2="1650.1899" y1="667.5968" y2="667.5968"/><text fill="#000000" font-family="Arial" font-size="11" font-weight="bold" lengthAdjust="spacing" textLength="42.1899" x="1593" y="655.2657">security</text></g><!--cluster application--><g class="cluster" data-qualified-name="application" data-source-line="40" id="ent0016"><path d="M13.5,69.2979 L84.5615,69.2979 A3.75,3.75 0 0 1 87.0615,71.7979 L94.0615,99.9468 L867.5,99.9468 A2.5,2.5 0 0 1 870,102.4468 L870,559.4479 A2.5,2.5 0 0 1 867.5,561.9479 L13.5,561.9479 A2.5,2.5 0 0 1 11,559.4479 L11,71.7979 A2.5,2.5 0 0 1 13.5,69.2979" fill="#DDFFDD" style="stroke:#000000;stroke-width:1;"/><line style="stroke:#000000;stroke-width:1;" x1="11" x2="94.0615" y1="99.9468" y2="99.9468"/><text fill="#000000" font-family="Arial" font-size="11" font-weight="bold" lengthAdjust="spacing" textLength="58.0615" x="21" y="87.6157">application</text></g><!--cluster port/in  (Use Case Interfaces)--><g class="cluster" data-qualified-name="application.port.in  .Use Case Interfaces." data-source-line="42" id="ent0017"><path d="M365.5,120.2979 L530.7114,120.2979 A3.75,3.75 0 0 1 533.2114,122.7979 L540.2114,150.9468 L843.5,150.9468 A2.5,2.5 0 0 1 846,153.4468 L846,250.7979 A2.5,2.5 0 0 1 843.5,253.2979 L365.5,253.2979 A2.5,2.5 0 0 1 363,250.7979 L363,122.7979 A2.5,2.5 0 0 1 365.5,120.2979" fill="#B8F0B8" style="stroke:#000000;stroke-width:1;"/><line style="stroke:#000000;stroke-width:1;" x1="363" x2="540.2114" y1="150.9468" y2="150.9468"/><text fill="#000000" font-family="Arial" font-size="11" font-weight="bold" lengthAdjust="spacing" textLength="152.2114" x="373" y="138.6157">port/in  (Use Case Interfaces)</text></g><!--cluster port/out  (Repository Interfaces)--><g class="cluster" data-qualified-name="application.port.out  .Repository Interfaces." data-source-line="49" id="ent0022"><path d="M37.5,404.9479 L217.96,404.9479 A3.75,3.75 0 0 1 220.46,407.4479 L227.46,435.5968 L843.5,435.5968 A2.5,2.5 0 0 1 846,438.0968 L846,535.4479 A2.5,2.5 0 0 1 843.5,537.9479 L37.5,537.9479 A2.5,2.5 0 0 1 35,535.4479 L35,407.4479 A2.5,2.5 0 0 1 37.5,404.9479" fill="#B8F0B8" style="stroke:#000000;stroke-width:1;"/><line style="stroke:#000000;stroke-width:1;" x1="35" x2="227.46" y1="435.5968" y2="435.5968"/><text fill="#000000" font-family="Arial" font-size="11" font-weight="bold" lengthAdjust="spacing" textLength="167.46" x="45" y="423.2657">port/out  (Repository Interfaces)</text></g><!--cluster service  (@Service)--><g class="cluster" data-qualified-name="application.service  ..Service." data-source-line="58" id="ent0029"><path d="M270.5,277.2979 L384.7344,277.2979 A3.75,3.75 0 0 1 387.2344,279.7979 L394.2344,307.9468 L843.5,307.9468 A2.5,2.5 0 0 1 846,310.4468 L846,378.4479 A2.5,2.5 0 0 1 843.5,380.9479 L270.5,380.9479 A2.5,2.5 0 0 1 268,378.4479 L268,279.7979 A2.5,2.5 0 0 1 270.5,277.2979" fill="#B8F0B8" style="stroke:#000000;stroke-width:1;"/><line style="stroke:#000000;stroke-width:1;" x1="268" x2="394.2344" y1="307.9468" y2="307.9468"/><text fill="#000000" font-family="Arial" font-size="11" font-weight="bold" lengthAdjust="spacing" textLength="101.2344" x="278" y="295.6157">service  (@Service)</text></g><!--cluster domain  (keine Framework-Abh?ngigkeiten)--><g class="cluster" data-qualified-name="domain  .keine Framework-Abh.ngigkeiten." data-source-line="70" id="ent0034"><path d="M896.5,419.6279 L1138.0938,419.6279 A3.75,3.75 0 0 1 1140.5938,422.1279 L1147.5938,450.2768 L1313.5,450.2768 A2.5,2.5 0 0 1 1316,452.7768 L1316,520.7779 A2.5,2.5 0 0 1 1313.5,523.2779 L896.5,523.2779 A2.5,2.5 0 0 1 894,520.7779 L894,422.1279 A2.5,2.5 0 0 1 896.5,419.6279" fill="#FFEECC" style="stroke:#000000;stroke-width:1;"/><line style="stroke:#000000;stroke-width:1;" x1="894" x2="1147.5938" y1="450.2768" y2="450.2768"/><text fill="#000000" font-family="Arial" font-size="11" font-weight="bold" lengthAdjust="spacing" textLength="228.5938" x="904" y="437.9457">domain  (keine Framework-Abh&#228;ngigkeiten)</text></g><!--entity PC--><g class="entity" data-qualified-name="infrastructure.web .REST Adapter..PC" data-source-line="17" id="ent0004"><rect fill="#FFFFFF" height="44.6489" rx="2.5" ry="2.5" style="stroke:#000000;stroke-width:1;" width="116.9761" x="964.51" y="679.9479"/><text fill="#000000" font-family="Arial" font-size="11" lengthAdjust="spacing" textLength="84.9761" x="980.51" y="706.2657">[PlayerController]</text></g><!--entity MC--><g class="entity" data-qualified-name="infrastructure.web .REST Adapter..MC" data-source-line="18" id="ent0005"><rect fill="#FFFFFF" height="44.6489" rx="2.5" ry="2.5" style="stroke:#000000;stroke-width:1;" width="115.7515" x="1427.12" y="679.9479"/><text fill="#000000" font-family="Arial" font-size="11" lengthAdjust="spacing" textLength="83.7515" x="1443.12" y="706.2657">[MatchController]</text></g><!--entity PTC--><g class="entity" data-qualified-name="infrastructure.web .REST Adapter..PTC" data-source-line="19" id="ent0006"><rect fill="#FFFFFF" height="44.6489" rx="2.5" ry="2.5" style="stroke:#000000;stroke-width:1;" width="110.8691" x="1116.57" y="679.9479"/><text fill="#000000" font-family="Arial" font-size="11" lengthAdjust="spacing" textLength="78.8691" x="1132.57" y="706.2657">[PointController]</text></g><!--entity SC--><g class="entity" data-qualified-name="infrastructure.web .REST Adapter..SC" data-source-line="20" id="ent0007"><rect fill="#FFFFFF" height="44.6489" rx="2.5" ry="2.5" style="stroke:#000000;stroke-width:1;" width="129.8076" x="1262.1" y="679.9479"/><text fill="#000000" font-family="Arial" font-size="11" lengthAdjust="spacing" textLength="97.8076" x="1278.1" y="706.2657">[StatisticsController]</text></g><!--entity PPA--><g class="entity" data-qualified-name="infrastructure.persistence .JPA Adapter..PPA" data-source-line="24" id="ent0009"><rect fill="#FFFFFF" height="44.6489" rx="2.5" ry="2.5" style="stroke:#000000;stroke-width:1;" width="165.2891" x="427.36" y="679.9479"/><text fill="#000000" font-family="Arial" font-size="11" lengthAdjust="spacing" textLength="133.2891" x="443.36" y="706.2657">[PlayerPersistenceAdapter]</text></g><!--entity MPA--><g class="entity" data-qualified-name="infrastructure.persistence .JPA Adapter..MPA" data-source-line="25" id="ent0010"><rect fill="#FFFFFF" height="44.6489" rx="2.5" ry="2.5" style="stroke:#000000;stroke-width:1;" width="164.0645" x="627.97" y="679.9479"/><text fill="#000000" font-family="Arial" font-size="11" lengthAdjust="spacing" textLength="132.0645" x="643.97" y="706.2657">[MatchPersistenceAdapter]</text></g><!--entity PJR--><g class="entity" data-qualified-name="infrastructure.persistence .JPA Adapter..PJR" data-source-line="26" id="ent0011"><rect fill="#FFFFFF" height="69.2979" rx="2.5" ry="2.5" style="stroke:#000000;stroke-width:1;" width="139.6045" x="427.2" y="784.5979"/><text fill="#000000" font-family="Arial" font-size="11" font-style="italic" lengthAdjust="spacing" textLength="82.5483" x="455.7281" y="810.9157">&#171;JpaRepository&#187;</text><text fill="#000000" font-family="Arial" font-size="11" lengthAdjust="spacing" textLength="107.6045" x="443.2" y="835.5646">[PlayerJpaRepository]</text></g><!--entity MJR--><g class="entity" data-qualified-name="infrastructure.persistence .JPA Adapter..MJR" data-source-line="27" id="ent0012"><rect fill="#FFFFFF" height="69.2979" rx="2.5" ry="2.5" style="stroke:#000000;stroke-width:1;" width="138.3799" x="601.81" y="784.5979"/><text fill="#000000" font-family="Arial" font-size="11" font-style="italic" lengthAdjust="spacing" textLength="82.5483" x="629.7258" y="810.9157">&#171;JpaRepository&#187;</text><text fill="#000000" font-family="Arial" font-size="11" lengthAdjust="spacing" textLength="106.3799" x="617.81" y="835.5646">[MatchJpaRepository]</text></g><!--entity PTJR--><g class="entity" data-qualified-name="infrastructure.persistence .JPA Adapter..PTJR" data-source-line="28" id="ent0013"><rect fill="#FFFFFF" height="69.2979" rx="2.5" ry="2.5" style="stroke:#000000;stroke-width:1;" width="133.4976" x="775.25" y="784.5979"/><text fill="#000000" font-family="Arial" font-size="11" font-style="italic" lengthAdjust="spacing" textLength="82.5483" x="800.7246" y="810.9157">&#171;JpaRepository&#187;</text><text fill="#000000" font-family="Arial" font-size="11" lengthAdjust="spacing" textLength="101.4976" x="791.25" y="835.5646">[PointJpaRepository]</text></g><!--entity SEC--><g class="entity" data-qualified-name="infrastructure.security.SEC" data-source-line="32" id="ent0015"><rect fill="#FFFFFF" height="44.6489" rx="2.5" ry="2.5" style="stroke:#000000;stroke-width:1;" width="109.6445" x="1599.18" y="679.9479"/><text fill="#000000" font-family="Arial" font-size="11" lengthAdjust="spacing" textLength="77.6445" x="1615.18" y="706.2657">[SecurityConfig]</text></g><!--entity PUC--><g class="entity" data-qualified-name="application.port.in  .Use Case Interfaces..PUC" data-source-line="43" id="ent0018"><ellipse cx="388" cy="200.2979" fill="#FFFFFF" rx="8" ry="8" style="stroke:#000000;stroke-width:1;"/><text fill="#000000" font-family="Arial" font-size="11" lengthAdjust="spacing" textLength="76.4199" x="349.79" y="233.6157">PlayerUseCase</text></g><!--entity MUC--><g class="entity" data-qualified-name="application.port.in  .Use Case Interfaces..MUC" data-source-line="44" id="ent0019"><ellipse cx="779" cy="200.2979" fill="#FFFFFF" rx="8" ry="8" style="stroke:#000000;stroke-width:1;"/><text fill="#000000" font-family="Arial" font-size="11" lengthAdjust="spacing" textLength="75.1953" x="741.4023" y="233.6157">MatchUseCase</text></g><!--entity SUC--><g class="entity" data-qualified-name="application.port.in  .Use Case Interfaces..SUC" data-source-line="45" id="ent0020"><ellipse cx="487" cy="200.2979" fill="#FFFFFF" rx="8" ry="8" style="stroke:#000000;stroke-width:1;"/><text fill="#000000" font-family="Arial" font-size="11" lengthAdjust="spacing" textLength="82.5376" x="445.7312" y="233.6157">ScoringUseCase</text></g><!--entity STUC--><g class="entity" data-qualified-name="application.port.in  .Use Case Interfaces..STUC" data-source-line="46" id="ent0021"><ellipse cx="635" cy="200.2979" fill="#FFFFFF" rx="8" ry="8" style="stroke:#000000;stroke-width:1;"/><text fill="#000000" font-family="Arial" font-size="11" lengthAdjust="spacing" textLength="89.2515" x="590.3743" y="233.6157">StatisticsUseCase</text></g><!--entity LPP--><g class="entity" data-qualified-name="application.port.out  .Repository Interfaces..LPP" data-source-line="50" id="ent0023"><ellipse cx="241" cy="484.9479" fill="#FFFFFF" rx="8" ry="8" style="stroke:#000000;stroke-width:1;"/><text fill="#000000" font-family="Arial" font-size="11" lengthAdjust="spacing" textLength="75.8237" x="203.0881" y="518.2657">LoadPlayerPort</text></g><!--entity SPP--><g class="entity" data-qualified-name="application.port.out  .Repository Interfaces..SPP" data-source-line="51" id="ent0024"><ellipse cx="103" cy="484.9479" fill="#FFFFFF" rx="8" ry="8" style="stroke:#000000;stroke-width:1;"/><text fill="#000000" font-family="Arial" font-size="11" lengthAdjust="spacing" textLength="76.4253" x="64.7874" y="518.2657">SavePlayerPort</text></g><!--entity LMP--><g class="entity" data-qualified-name="application.port.out  .Repository Interfaces..LMP" data-source-line="52" id="ent0025"><ellipse cx="642" cy="484.9479" fill="#FFFFFF" rx="8" ry="8" style="stroke:#000000;stroke-width:1;"/><text fill="#000000" font-family="Arial" font-size="11" lengthAdjust="spacing" textLength="74.5991" x="604.7004" y="518.2657">LoadMatchPort</text></g><!--entity SMP--><g class="entity" data-qualified-name="application.port.out  .Repository Interfaces..SMP" data-source-line="53" id="ent0026"><ellipse cx="779" cy="484.9479" fill="#FFFFFF" rx="8" ry="8" style="stroke:#000000;stroke-width:1;"/><text fill="#000000" font-family="Arial" font-size="11" lengthAdjust="spacing" textLength="75.2007" x="741.3997" y="518.2657">SaveMatchPort</text></g><!--entity LPTAP--><g class="entity" data-qualified-name="application.port.out  .Repository Interfaces..LPTAP" data-source-line="54" id="ent0027"><ellipse cx="508" cy="484.9479" fill="#FFFFFF" rx="8" ry="8" style="stroke:#000000;stroke-width:1;"/><text fill="#000000" font-family="Arial" font-size="11" lengthAdjust="spacing" textLength="69.7168" x="473.1416" y="518.2657">LoadPointPort</text></g><!--entity SPTAP--><g class="entity" data-qualified-name="application.port.out  .Repository Interfaces..SPTAP" data-source-line="55" id="ent0028"><ellipse cx="376" cy="484.9479" fill="#FFFFFF" rx="8" ry="8" style="stroke:#000000;stroke-width:1;"/><text fill="#000000" font-family="Arial" font-size="11" lengthAdjust="spacing" textLength="70.3184" x="340.8408" y="518.2657">SavePointPort</text></g><!--entity PS--><g class="entity" data-qualified-name="application.service  ..Service..PS" data-source-line="59" id="ent0030"><rect fill="#FFFFFF" height="44.6489" rx="2.5" ry="2.5" style="stroke:#000000;stroke-width:1;" width="105.9707" x="284.01" y="320.2979"/><text fill="#000000" font-family="Arial" font-size="11" lengthAdjust="spacing" textLength="73.9707" x="300.01" y="346.6157">[PlayerService]</text></g><!--entity MS--><g class="entity" data-qualified-name="application.service  ..Service..MS" data-source-line="60" id="ent0031"><rect fill="#FFFFFF" height="44.6489" rx="2.5" ry="2.5" style="stroke:#000000;stroke-width:1;" width="104.7461" x="725.63" y="320.2979"/><text fill="#000000" font-family="Arial" font-size="11" lengthAdjust="spacing" textLength="72.7461" x="741.63" y="346.6157">[MatchService]</text></g><!--entity SS--><g class="entity" data-qualified-name="application.service  ..Service..SS" data-source-line="61" id="ent0032"><rect fill="#FFFFFF" height="44.6489" rx="2.5" ry="2.5" style="stroke:#000000;stroke-width:1;" width="112.0884" x="424.96" y="320.2979"/><text fill="#000000" font-family="Arial" font-size="11" lengthAdjust="spacing" textLength="80.0884" x="440.96" y="346.6157">[ScoringService]</text></g><!--entity STS--><g class="entity" data-qualified-name="application.service  ..Service..STS" data-source-line="62" id="ent0033"><rect fill="#FFFFFF" height="44.6489" rx="2.5" ry="2.5" style="stroke:#000000;stroke-width:1;" width="118.8022" x="571.6" y="320.2979"/><text fill="#000000" font-family="Arial" font-size="11" lengthAdjust="spacing" textLength="86.8022" x="587.6" y="346.6157">[StatisticsService]</text></g><!--entity P--><g class="entity" data-qualified-name="domain  .keine Framework-Abh.ngigkeiten..P" data-source-line="71" id="ent0035"><rect fill="#FFFFFF" height="44.6489" rx="2.5" ry="2.5" style="stroke:#000000;stroke-width:1;" width="69.2915" x="910.35" y="462.6279"/><text fill="#000000" font-family="Arial" font-size="11" lengthAdjust="spacing" textLength="37.2915" x="926.35" y="488.9457">[Player]</text></g><!--entity M--><g class="entity" data-qualified-name="domain  .keine Framework-Abh.ngigkeiten..M" data-source-line="72" id="ent0036"><rect fill="#FFFFFF" height="44.6489" rx="2.5" ry="2.5" style="stroke:#000000;stroke-width:1;" width="68.0669" x="1112.97" y="462.6279"/><text fill="#000000" font-family="Arial" font-size="11" lengthAdjust="spacing" textLength="36.0669" x="1128.97" y="488.9457">[Match]</text></g><!--entity MSE--><g class="entity" data-qualified-name="domain  .keine Framework-Abh.ngigkeiten..MSE" data-source-line="73" id="ent0037"><rect fill="#FFFFFF" height="44.6489" rx="2.5" ry="2.5" style="stroke:#000000;stroke-width:1;" width="84.5776" x="1215.71" y="462.6279"/><text fill="#000000" font-family="Arial" font-size="11" lengthAdjust="spacing" textLength="52.5776" x="1231.71" y="488.9457">[MatchSet]</text></g><!--entity PT--><g class="entity" data-qualified-name="domain  .keine Framework-Abh.ngigkeiten..PT" data-source-line="74" id="ent0038"><rect fill="#FFFFFF" height="44.6489" rx="2.5" ry="2.5" style="stroke:#000000;stroke-width:1;" width="63.1846" x="1014.41" y="462.6279"/><text fill="#000000" font-family="Arial" font-size="11" lengthAdjust="spacing" textLength="31.1846" x="1030.41" y="488.9457">[Point]</text></g><g class="entity" data-qualified-name="GMN81" data-source-line="134" id="ent0082"><path d="M885.74,164.0079 L885.74,236.6036 L1138.2512,236.6036 L1138.2512,174.0079 L1128.2512,164.0079 L885.74,164.0079" fill="#FFFFFF" style="stroke:#000000;stroke-width:1;"/><path d="M1128.2512,164.0079 L1128.2512,174.0079 L1138.2512,174.0079 L1128.2512,164.0079" fill="#FFFFFF" style="stroke:#000000;stroke-width:1;"/><text fill="#000000" font-family="Arial" font-size="11" lengthAdjust="spacing" textLength="111.3105" x="897.74" y="185.3257">Abh&#228;ngigkeiten zeigen</text><text fill="#000000" font-family="Arial" font-size="11" lengthAdjust="spacing" textLength="142.4844" x="897.74" y="197.9746">stets von aussen nach innen:</text><text fill="#000000" font-family="Arial" font-size="11" lengthAdjust="spacing" textLength="190.7437" x="897.74" y="210.6236">Infrastructure &#8594; Application &#8594; Domain</text><text fill="#000000" font-family="Arial" font-size="11" lengthAdjust="spacing" textLength="219.5112" x="897.74" y="223.2725">Die Domain kennt keine &#228;usseren Schichten.</text></g><!--link PC to PUC--><g class="link" data-entity-1="ent0004" data-entity-2="ent0018" data-link-type="dependency" data-source-line="80" id="lnk39"><path d="M997.03,679.4879 C997.03,611.0379 997.03,411.8979 997.03,411.8979 C997.03,411.8979 392.32,411.8979 392.32,411.8979 C392.32,411.8979 392.32,256.6179 392.32,215.6679" fill="none" id="PC-to-PUC" style="stroke:#000000;stroke-width:1;stroke-dasharray:7,7;"/><polygon fill="#000000" points="392.32,209.6679,388.32,218.6679,392.32,214.6679,396.32,218.6679,392.32,209.6679" style="stroke:#000000;stroke-width:1;"/><text fill="#000000" font-family="Arial" font-size="11" lengthAdjust="spacing" textLength="22.0054" x="698.36" y="403.2157">calls</text></g><!--link MC to MUC--><g class="link" data-entity-1="ent0005" data-entity-2="ent0019" data-link-type="dependency" data-source-line="81" id="lnk40"><path d="M1485,679.7379 C1485,588.8079 1485,253.8979 1485,253.8979 C1485,253.8979 796,253.8979 796,253.8979 C796,253.8979 796,209.5979 796,206.4579" fill="none" id="MC-to-MUC" style="stroke:#000000;stroke-width:1;stroke-dasharray:7,7;"/><polygon fill="#000000" points="796,200.4579,792,209.4579,796,205.4579,800,209.4579,796,200.4579" style="stroke:#000000;stroke-width:1;"/><text fill="#000000" font-family="Arial" font-size="11" lengthAdjust="spacing" textLength="22.0054" x="1297.7" y="245.2157">calls</text></g><!--link PTC to SUC--><g class="link" data-entity-1="ent0006" data-entity-2="ent0020" data-link-type="dependency" data-source-line="82" id="lnk41"><path d="M1198.37,679.6479 C1198.37,592.9679 1198.37,286.8979 1198.37,286.8979 C1198.37,286.8979 502.03,286.8979 502.03,286.8979 C502.03,286.8979 502.03,208.9879 502.03,206.3679" fill="none" id="PTC-to-SUC" style="stroke:#000000;stroke-width:1;stroke-dasharray:7,7;"/><polygon fill="#000000" points="502.03,200.3679,498.03,209.3679,502.03,205.3679,506.03,209.3679,502.03,200.3679" style="stroke:#000000;stroke-width:1;"/><text fill="#000000" font-family="Arial" font-size="11" lengthAdjust="spacing" textLength="22.0054" x="974.31" y="278.2157">calls</text></g><!--link SC to STUC--><g class="link" data-entity-1="ent0007" data-entity-2="ent0021" data-link-type="dependency" data-source-line="83" id="lnk42"><path d="M1346.1,679.6879 C1346.1,590.9279 1346.1,270.8979 1346.1,270.8979 C1346.1,270.8979 652.6,270.8979 652.6,270.8979 C652.6,270.8979 652.6,208.4879 652.6,206.3579" fill="none" id="SC-to-STUC" style="stroke:#000000;stroke-width:1;stroke-dasharray:7,7;"/><polygon fill="#000000" points="652.6,200.3579,648.6,209.3579,652.6,205.3579,656.6,209.3579,652.6,200.3579" style="stroke:#000000;stroke-width:1;"/><text fill="#000000" font-family="Arial" font-size="11" lengthAdjust="spacing" textLength="22.0054" x="1139.47" y="262.2157">calls</text></g><!--reverse link PUC to PS--><g class="link" data-entity-1="ent0018" data-entity-2="ent0030" data-link-type="extension" data-source-line="88" id="lnk44"><path d="M384.49,227.6379 C384.49,249.8379 384.49,288.2879 384.49,320.0479" fill="none" id="PUC-backto-PS" style="stroke:#000000;stroke-width:1;stroke-dasharray:7,7;"/><polygon fill="none" points="384.49,209.6379,378.49,227.6379,390.49,227.6379,384.49,209.6379" style="stroke:#000000;stroke-width:1;"/></g><!--reverse link MUC to MS--><g class="link" data-entity-1="ent0019" data-entity-2="ent0031" data-link-type="extension" data-source-line="89" id="lnk46"><path d="M762,218.4079 C762,221.6079 762,280.7979 762,320.0879" fill="none" id="MUC-backto-MS" style="stroke:#000000;stroke-width:1;stroke-dasharray:7,7;"/><polygon fill="none" points="762,200.4079,756,218.4079,768,218.4079,762,200.4079" style="stroke:#000000;stroke-width:1;"/></g><!--reverse link SUC to SS--><g class="link" data-entity-1="ent0020" data-entity-2="ent0032" data-link-type="extension" data-source-line="90" id="lnk48"><path d="M467.01,218.4079 C467.01,221.6079 467.01,280.7979 467.01,320.0879" fill="none" id="SUC-backto-SS" style="stroke:#000000;stroke-width:1;stroke-dasharray:7,7;"/><polygon fill="none" points="467.01,200.4079,461.01,218.4079,473.01,218.4079,467.01,200.4079" style="stroke:#000000;stroke-width:1;"/></g><!--reverse link STUC to STS--><g class="link" data-entity-1="ent0021" data-entity-2="ent0033" data-link-type="extension" data-source-line="91" id="lnk50"><path d="M614.8,218.4079 C614.8,221.6079 614.8,280.7979 614.8,320.0879" fill="none" id="STUC-backto-STS" style="stroke:#000000;stroke-width:1;stroke-dasharray:7,7;"/><polygon fill="none" points="614.8,200.4079,608.8,218.4079,620.8,218.4079,614.8,200.4079" style="stroke:#000000;stroke-width:1;"/></g><!--link PS to LPP--><g class="link" data-entity-1="ent0030" data-entity-2="ent0023" data-link-type="dependency" data-source-line="96" id="lnk51"><path d="M288.01,365.1779 C288.01,404.6879 288.01,476.4679 288.01,478.8979" fill="none" id="PS-to-LPP" style="stroke:#000000;stroke-width:1;stroke-dasharray:7,7;"/><polygon fill="#000000" points="288.01,484.8979,292.01,475.8979,288.01,479.8979,284.01,475.8979,288.01,484.8979" style="stroke:#000000;stroke-width:1;"/></g><!--link PS to SPP--><g class="link" data-entity-1="ent0030" data-entity-2="ent0024" data-link-type="dependency" data-source-line="97" id="lnk52"><path d="M283.61,342.8979 C214.55,342.8979 103,342.8979 103,342.8979 C103,342.8979 103,438.9679 103,470.0679" fill="none" id="PS-to-SPP" style="stroke:#000000;stroke-width:1;stroke-dasharray:7,7;"/><polygon fill="#000000" points="103,476.0679,107,467.0679,103,471.0679,99,467.0679,103,476.0679" style="stroke:#000000;stroke-width:1;"/></g><!--link MS to LMP--><g class="link" data-entity-1="ent0031" data-entity-2="ent0025" data-link-type="dependency" data-source-line="98" id="lnk53"><path d="M725.24,342.8979 C716.02,342.8979 709.31,342.8979 709.31,342.8979 C709.31,342.8979 709.31,484.8979 709.31,484.8979 C709.31,484.8979 675.05,484.8979 656.8,484.8979" fill="none" id="MS-to-LMP" style="stroke:#000000;stroke-width:1;stroke-dasharray:7,7;"/><polygon fill="#000000" points="650.8,484.8979,659.8,488.8979,655.8,484.8979,659.8,480.8979,650.8,484.8979" style="stroke:#000000;stroke-width:1;"/></g><!--link MS to SMP--><g class="link" data-entity-1="ent0031" data-entity-2="ent0026" data-link-type="dependency" data-source-line="99" id="lnk54"><path d="M779,365.1779 C779,397.1579 779,448.2279 779,470.0879" fill="none" id="MS-to-SMP" style="stroke:#000000;stroke-width:1;stroke-dasharray:7,7;"/><polygon fill="#000000" points="779,476.0879,783,467.0879,779,471.0879,775,467.0879,779,476.0879" style="stroke:#000000;stroke-width:1;"/></g><!--link SS to LPTAP--><g class="link" data-entity-1="ent0032" data-entity-2="ent0027" data-link-type="dependency" data-source-line="100" id="lnk55"><path d="M485.68,365.1779 C485.68,404.6879 485.68,476.4679 485.68,478.8979" fill="none" id="SS-to-LPTAP" style="stroke:#000000;stroke-width:1;stroke-dasharray:7,7;"/><polygon fill="#000000" points="485.68,484.8979,489.68,475.8979,485.68,479.8979,481.68,475.8979,485.68,484.8979" style="stroke:#000000;stroke-width:1;"/></g><!--link SS to SPTAP--><g class="link" data-entity-1="ent0032" data-entity-2="ent0028" data-link-type="dependency" data-source-line="101" id="lnk56"><path d="M424.48,342.8979 C416.52,342.8979 410.98,342.8979 410.98,342.8979 C410.98,342.8979 410.98,474.5479 410.98,478.8479" fill="none" id="SS-to-SPTAP" style="stroke:#000000;stroke-width:1;stroke-dasharray:7,7;"/><polygon fill="#000000" points="410.98,484.8479,414.98,475.8479,410.98,479.8479,406.98,475.8479,410.98,484.8479" style="stroke:#000000;stroke-width:1;"/></g><!--link STS to LMP--><g class="link" data-entity-1="ent0033" data-entity-2="ent0025" data-link-type="dependency" data-source-line="102" id="lnk57"><path d="M610.88,365.1779 C610.88,404.6879 610.88,476.4679 610.88,478.8979" fill="none" id="STS-to-LMP" style="stroke:#000000;stroke-width:1;stroke-dasharray:7,7;"/><polygon fill="#000000" points="610.88,484.8979,614.88,475.8979,610.88,479.8979,606.88,475.8979,610.88,484.8979" style="stroke:#000000;stroke-width:1;"/></g><!--link STS to LPTAP--><g class="link" data-entity-1="ent0033" data-entity-2="ent0027" data-link-type="dependency" data-source-line="103" id="lnk58"><path d="M571.41,342.8979 C558.69,342.8979 549,342.8979 549,342.8979 C549,342.8979 549,474.5479 549,478.8479" fill="none" id="STS-to-LPTAP" style="stroke:#000000;stroke-width:1;stroke-dasharray:7,7;"/><polygon fill="#000000" points="549,484.8479,553,475.8479,549,479.8479,545,475.8479,549,484.8479" style="stroke:#000000;stroke-width:1;"/></g><!--reverse link LPP to PPA--><g class="link" data-entity-1="ent0023" data-entity-2="ent0009" data-link-type="extension" data-source-line="108" id="lnk60"><path d="M241,511.7079 C241,551.4379 241,694.8979 241,694.8979 C241,694.8979 348.06,694.8979 427.1,694.8979" fill="none" id="LPP-backto-PPA" style="stroke:#000000;stroke-width:1;stroke-dasharray:7,7;"/><polygon fill="none" points="241,493.7079,235,511.7079,247,511.7079,241,493.7079" style="stroke:#000000;stroke-width:1;"/></g><!--reverse link SPP to PPA--><g class="link" data-entity-1="ent0024" data-entity-2="ent0009" data-link-type="extension" data-source-line="109" id="lnk62"><path d="M103,511.7679 C103,553.3579 103,709.8979 103,709.8979 C103,709.8979 308.15,709.8979 427.15,709.8979" fill="none" id="SPP-backto-PPA" style="stroke:#000000;stroke-width:1;stroke-dasharray:7,7;"/><polygon fill="none" points="103,493.7679,97,511.7679,109,511.7679,103,493.7679" style="stroke:#000000;stroke-width:1;"/></g><!--reverse link LMP to MPA--><g class="link" data-entity-1="ent0025" data-entity-2="ent0010" data-link-type="extension" data-source-line="110" id="lnk64"><path d="M676.74,503.1079 C676.74,508.3479 676.74,625.1379 676.74,679.6879" fill="none" id="LMP-backto-MPA" style="stroke:#000000;stroke-width:1;stroke-dasharray:7,7;"/><polygon fill="none" points="676.74,485.1079,670.74,503.1079,682.74,503.1079,676.74,485.1079" style="stroke:#000000;stroke-width:1;"/></g><!--reverse link SMP to MPA--><g class="link" data-entity-1="ent0026" data-entity-2="ent0010" data-link-type="extension" data-source-line="111" id="lnk66"><path d="M760.02,503.1079 C760.02,508.3479 760.02,625.1379 760.02,679.6879" fill="none" id="SMP-backto-MPA" style="stroke:#000000;stroke-width:1;stroke-dasharray:7,7;"/><polygon fill="none" points="760.02,485.1079,754.02,503.1079,766.02,503.1079,760.02,485.1079" style="stroke:#000000;stroke-width:1;"/></g><!--reverse link LPTAP to MPA--><g class="link" data-entity-1="ent0027" data-entity-2="ent0010" data-link-type="extension" data-source-line="112" id="lnk68"><path d="M508,511.9079 C508,534.6579 508,574.8979 508,574.8979 C508,574.8979 660.48,574.8979 660.48,574.8979 C660.48,574.8979 660.48,642.8679 660.48,679.5079" fill="none" id="LPTAP-backto-MPA" style="stroke:#000000;stroke-width:1;stroke-dasharray:7,7;"/><polygon fill="none" points="508,493.9079,502,511.9079,514,511.9079,508,493.9079" style="stroke:#000000;stroke-width:1;"/></g><!--reverse link SPTAP to MPA--><g class="link" data-entity-1="ent0028" data-entity-2="ent0010" data-link-type="extension" data-source-line="113" id="lnk70"><path d="M376,511.8279 C376,542.9079 376,626.8979 376,626.8979 C376,626.8979 644.23,626.8979 644.23,626.8979 C644.23,626.8979 644.23,657.4579 644.23,679.6579" fill="none" id="SPTAP-backto-MPA" style="stroke:#000000;stroke-width:1;stroke-dasharray:7,7;"/><polygon fill="none" points="376,493.8279,370,511.8279,382,511.8279,376,493.8279" style="stroke:#000000;stroke-width:1;"/></g><!--link PS to P--><g class="link" data-entity-1="ent0030" data-entity-2="ent0035" data-link-type="dependency" data-source-line="118" id="lnk71"><path d="M358.49,365.2079 C358.49,392.8079 358.49,435.8979 358.49,435.8979 C358.49,435.8979 933.45,435.8979 933.45,435.8979 C933.45,435.8979 933.45,443.3379 933.45,456.1479" fill="none" id="PS-to-P" style="stroke:#000000;stroke-width:1;stroke-dasharray:7,7;"/><polygon fill="#000000" points="933.45,462.1479,937.45,453.1479,933.45,457.1479,929.45,453.1479,933.45,462.1479" style="stroke:#000000;stroke-width:1;"/></g><!--link MS to M--><g class="link" data-entity-1="ent0031" data-entity-2="ent0036" data-link-type="dependency" data-source-line="119" id="lnk72"><path d="M830.67,349.8979 C928.82,349.8979 1129.83,349.8979 1129.83,349.8979 C1129.83,349.8979 1129.83,417.8979 1129.83,456.3479" fill="none" id="MS-to-M" style="stroke:#000000;stroke-width:1;stroke-dasharray:7,7;"/><polygon fill="#000000" points="1129.83,462.3479,1133.83,453.3479,1129.83,457.3479,1125.83,453.3479,1129.83,462.3479" style="stroke:#000000;stroke-width:1;"/></g><!--link MS to MSE--><g class="link" data-entity-1="ent0031" data-entity-2="ent0037" data-link-type="dependency" data-source-line="120" id="lnk73"><path d="M830.74,334.8979 C955.43,334.8979 1258,334.8979 1258,334.8979 C1258,334.8979 1258,414.1879 1258,456.1579" fill="none" id="MS-to-MSE" style="stroke:#000000;stroke-width:1;stroke-dasharray:7,7;"/><polygon fill="#000000" points="1258,462.1579,1262,453.1579,1258,457.1579,1254,453.1579,1258,462.1579" style="stroke:#000000;stroke-width:1;"/></g><!--link SS to PT--><g class="link" data-entity-1="ent0032" data-entity-2="ent0038" data-link-type="dependency" data-source-line="121" id="lnk74"><path d="M511.36,365.3179 C511.36,381.6879 511.36,400.8979 511.36,400.8979 C511.36,400.8979 1035.47,400.8979 1035.47,400.8979 C1035.47,400.8979 1035.47,431.5279 1035.47,456.4279" fill="none" id="SS-to-PT" style="stroke:#000000;stroke-width:1;stroke-dasharray:7,7;"/><polygon fill="#000000" points="1035.47,462.4279,1039.47,453.4279,1035.47,457.4279,1031.47,453.4279,1035.47,462.4279" style="stroke:#000000;stroke-width:1;"/></g><!--link STS to P--><g class="link" data-entity-1="ent0033" data-entity-2="ent0035" data-link-type="dependency" data-source-line="122" id="lnk75"><path d="M630.76,365.2679 C630.76,389.3079 630.76,423.8979 630.76,423.8979 C630.76,423.8979 956.55,423.8979 956.55,423.8979 C956.55,423.8979 956.55,438.8579 956.55,456.2179" fill="none" id="STS-to-P" style="stroke:#000000;stroke-width:1;stroke-dasharray:7,7;"/><polygon fill="#000000" points="956.55,462.2179,960.55,453.2179,956.55,457.2179,952.55,453.2179,956.55,462.2179" style="stroke:#000000;stroke-width:1;"/></g><!--link STS to M--><g class="link" data-entity-1="ent0033" data-entity-2="ent0036" data-link-type="dependency" data-source-line="123" id="lnk76"><path d="M670.52,365.2979 C670.52,371.6679 670.52,376.8979 670.52,376.8979 C670.52,376.8979 1121.4,376.8979 1121.4,376.8979 C1121.4,376.8979 1121.4,424.6179 1121.4,456.2979" fill="none" id="STS-to-M" style="stroke:#000000;stroke-width:1;stroke-dasharray:7,7;"/><polygon fill="#000000" points="1121.4,462.2979,1125.4,453.2979,1121.4,457.2979,1117.4,453.2979,1121.4,462.2979" style="stroke:#000000;stroke-width:1;"/></g><!--link STS to PT--><g class="link" data-entity-1="ent0033" data-entity-2="ent0038" data-link-type="dependency" data-source-line="124" id="lnk77"><path d="M650.64,365.2179 C650.64,376.9679 650.64,388.8979 650.64,388.8979 C650.64,388.8979 1056.53,388.8979 1056.53,388.8979 C1056.53,388.8979 1056.53,427.7879 1056.53,456.1879" fill="none" id="STS-to-PT" style="stroke:#000000;stroke-width:1;stroke-dasharray:7,7;"/><polygon fill="#000000" points="1056.53,462.1879,1060.53,453.1879,1056.53,457.1879,1052.53,453.1879,1056.53,462.1879" style="stroke:#000000;stroke-width:1;"/></g><!--link PPA to PJR--><g class="link" data-entity-1="ent0009" data-entity-2="ent0011" data-link-type="dependency" data-source-line="129" id="lnk78"><path d="M497.08,724.8279 C497.08,741.6879 497.08,759.0579 497.08,778.3279" fill="none" id="PPA-to-PJR" style="stroke:#000000;stroke-width:1;stroke-dasharray:7,7;"/><polygon fill="#000000" points="497.08,784.3279,501.08,775.3279,497.08,779.3279,493.08,775.3279,497.08,784.3279" style="stroke:#000000;stroke-width:1;"/></g><!--link MPA to MJR--><g class="link" data-entity-1="ent0010" data-entity-2="ent0012" data-link-type="dependency" data-source-line="130" id="lnk79"><path d="M684.08,724.8279 C684.08,741.6879 684.08,759.0579 684.08,778.3279" fill="none" id="MPA-to-MJR" style="stroke:#000000;stroke-width:1;stroke-dasharray:7,7;"/><polygon fill="#000000" points="684.08,784.3279,688.08,775.3279,684.08,779.3279,680.08,775.3279,684.08,784.3279" style="stroke:#000000;stroke-width:1;"/></g><!--link MPA to PTJR--><g class="link" data-entity-1="ent0010" data-entity-2="ent0013" data-link-type="dependency" data-source-line="131" id="lnk80"><path d="M783.64,724.8279 C783.64,741.6879 783.64,759.0579 783.64,778.3279" fill="none" id="MPA-to-PTJR" style="stroke:#000000;stroke-width:1;stroke-dasharray:7,7;"/><polygon fill="#000000" points="783.64,784.3279,787.64,775.3279,783.64,779.3279,779.64,775.3279,783.64,784.3279" style="stroke:#000000;stroke-width:1;"/></g><!--link PUC to GMN81--><g class="link" data-entity-1="ent0018" data-entity-2="ent0082" data-link-type="association" data-source-line="134" id="lnk83"><path d="M394.66,209.4979 C394.66,234.8479 394.66,303.8979 394.66,303.8979 C394.66,303.8979 897.25,303.8979 897.25,303.8979 C897.25,303.8979 897.25,266.6479 897.25,236.8279" fill="none" id="PUC-GMN81" style="stroke:#000000;stroke-width:1;stroke-dasharray:7,7;"/></g><?plantuml-src rLZDRjiu4BxhAMQzXwQ7fErX5qLG1Aj85k1ib0YcZ3qiUc1bsYOiKm95ft1_W9xs0HPzXBv9twHFqY4bIvJ5BRet9J02ZVZDa9oPRuRKBsh3TWpAd7BXLLikIYhf3h9YLnQ22KNK8MSWMQQeMEVCWkHSC7Ke6HHIRGfhOCbMT9-hg13gZg9jNtAQkyS9VyVWnGjhiAJB9HTh-Dtp55SuTKeeWMkQRPbOmZa4EQC2JMORhd1HUydWxC-SLXKJvo5JbETFFUy9VFlyQGm_NCdiBfhx99qlWdGnduveQINwbAuPJBXOILefkJVkdC2lOJYTHX6yzpo05lMMlO6p-PIau2zfgPXyYiZWj_1bz1oHW7zjpi3axoId1oO33B4iyfp9rnED05f14Wp0CLNPPe3Lu7W8JWekb1ESf4CqKLJnIl6iwgaWccZmnzuMIoOh13EHOLBT9Fx_s6dIgJPAzIn9uhktwrGmMtPer7FSb7JEogBYgf07UzytStnuzQetVdNbdjTfnCpxarQC___JIf9gCouhVLTNBDjBhWu_yYnfC1Yv5LytKPisOViuBfRxIN8x2_nqTdytHehJiinvXbGeXE5t58NX2RzBBEFFk00uMrGC0eh_PWBJSaKpLca6N6EKhbysSUB78PZKoObAMgUZ-I8u1Phyw-5CtWs192iazW0RgaFl0BRiRh4Qc2uStDRRA_OAzzSbva_kyBQWouRcQAMcwMsI35P37zWfZ0nXsbfT0cgKiHOxhPt2IEoqPYXfMqjItxsw4o1fWAVSb0ySLU3i3r8_3fmpB4uDqghpn5s0-a2J0KDaam4zh5ul-K61xy0c1yWewqHu7_kpKPQ8PR6ZXlvRXWSxYF0mnjuMSdlklzby_IBMV8q3sAzqBaJHT1e49XU6cV2wIQx4SqI_3MNiEND3rU6BoTHpj9rMEqb7rm3wNhg4l_2yzEsVVq7JxTbCZ6YnIG1mSN45kaO3N496yxpoukFRs7wBPwhwBR7VaYDMbzhsxRZZqPG7uBionnkFK9n9DSRe4FJjlhpuK0V8YorPzqfYoRebOgNhPDtv7aSOMchSxzNOlAypM_VtLj1TF6v7OalG7PbqEhgTaaxBY3e-HxrEC6FZ3fLrHN6nPcI1m-lQaGOcTfPimcUFntsPdCXrS7g8Hn2kXbcLeLPeklaOYMMH9xOUiU6tnC7ktXB5uanilKqV4NTqFFJN17Fl61jbZ3TlvdMs6o_RWhxEUvue50F9rni5nQgvsPti6DunlcO21t3JgeA7GW3Twwzo86YsmOi8dkCkSNZM-zXaVEDtbrCxTm52pXe1japWCR0-cdxzeWrBD4so3SysEFs5fxyEwdLwtm40?></g></svg>