<?plantuml 1.2026.2?><svg xmlns="http://www.w3.org/2000/svg" xmlns:xlink="http://www.w3.org/1999/xlink" contentStyleType="text/css" data-diagram-type="SEQUENCE" height="981px" preserveAspectRatio="none" style="width:1749px;height:981px;background:#FFFFFF;" version="1.1" viewBox="0 0 1749 981" width="1749px" zoomAndPan="magnify"><title>KI-Match-Analyse generieren &#8212; Sequenz (Szenario &#167;6.2)</title><defs/><g><text fill="#000000" font-family="Helvetica" font-size="14" font-weight="bold" lengthAdjust="spacing" textLength="374.9922" x="688.1846" y="25.7803">KI-Match-Analyse generieren &#8212; Sequenz (Szenario &#167;6.2)</text><g><title>Spring Boot</title><rect fill="#FFFFFF" height="675" style="stroke:#181818;stroke-width:1;" width="10" x="468.1978" y="183"/></g><g><title>MatchAnalysisController</title><rect fill="#FFFFFF" height="621" style="stroke:#181818;stroke-width:1;" width="10" x="620.1904" y="210"/></g><g><title>MatchAnalysisService</title><rect fill="#FFFFFF" height="567" style="stroke:#181818;stroke-width:1;" width="10" x="859.4102" y="237"/></g><g><title>LlmClientPort</title><rect fill="#FFFFFF" height="176" style="stroke:#181818;stroke-width:1;" width="10" x="1333.7007" y="424"/></g><rect fill="none" height="122" style="stroke:#000000;stroke-width:1.5;" width="559.5566" x="1182.8047" y="439"/><rect fill="none" height="136" style="stroke:#000000;stroke-width:1.5;" width="1203.4087" x="403.6772" y="615"/><g class="participant-lifeline" data-entity-uid="part1" data-qualified-name="Coach" id="part1-lifeline"><g><title>Coach</title><rect fill="#000000" fill-opacity="0.00000" height="789" width="8" x="24.2344" y="114"/><line style="stroke:#181818;stroke-width:0.5;stroke-dasharray:5,5;" x1="28" x2="28" y1="114" y2="903"/></g></g><g class="participant-lifeline" data-entity-uid="part2" data-qualified-name="FE" id="part2-lifeline"><g><title>Angular SPA</title><rect fill="#000000" fill-opacity="0.00000" height="789" width="8" x="259.4971" y="114"/><line style="stroke:#181818;stroke-width:0.5;stroke-dasharray:5,5;" x1="263.1523" x2="263.1523" y1="114" y2="903"/></g></g><g class="participant-lifeline" data-entity-uid="part3" data-qualified-name="API" id="part3-lifeline"><g><title>Spring Boot</title><rect fill="#000000" fill-opacity="0.00000" height="789" width="8" x="469.1978" y="114"/><line style="stroke:#181818;stroke-width:0.5;stroke-dasharray:5,5;" x1="472.6772" x2="472.6772" y1="114" y2="903"/></g></g><g class="participant-lifeline" data-entity-uid="part4" data-qualified-name="Ctrl" id="part4-lifeline"><g><title>MatchAnalysisController</title><rect fill="#000000" fill-opacity="0.00000" height="789" width="8" x="621.1904" y="114"/><line style="stroke:#181818;stroke-width:0.5;stroke-dasharray:5,5;" x1="624.7183" x2="624.7183" y1="114" y2="903"/></g></g><g class="participant-lifeline" data-entity-uid="part5" data-qualified-name="Svc" id="part5-lifeline"><g><title>MatchAnalysisService</title><rect fill="#000000" fill-opacity="0.00000" height="789" width="8" x="860.4102" y="114"/><line style="stroke:#181818;stroke-width:0.5;stroke-dasharray:5,5;" x1="863.9414" x2="863.9414" y1="114" y2="903"/></g></g><g class="participant-lifeline" data-entity-uid="part6" data-qualified-name="Stats" id="part6-lifeline"><g><title>MatchStatisticsService</title><rect fill="#000000" fill-opacity="0.00000" height="789" width="8" x="1101.3945" y="114"/><line style="stroke:#181818;stroke-width:0.5;stroke-dasharray:5,5;" x1="1104.9844" x2="1104.9844" y1="114" y2="903"/></g></g><g class="participant-lifeline" data-entity-uid="part7" data-qualified-name="Llm" id="part7-lifeline"><g><title>LlmClientPort</title><rect fill="#000000" fill-opacity="0.00000" height="789" width="8" x="1334.7007" y="114"/><line style="stroke:#181818;stroke-width:0.5;stroke-dasharray:5,5;" x1="1337.8047" x2="1337.8047" y1="114" y2="903"/></g></g><g class="participant-lifeline" data-entity-uid="part8" data-qualified-name="DB" id="part8-lifeline"><g><title>match_analysis</title><rect fill="#000000" fill-opacity="0.00000" height="789" width="8" x="1541.8413" y="114"/><line style="stroke:#181818;stroke-width:0.5;stroke-dasharray:5,5;" x1="1545.5967" x2="1545.5967" y1="114" y2="903"/></g></g><g class="participant-lifeline" data-entity-uid="part9" data-qualified-name="OpenAI" id="part9-lifeline"><g><title>OpenAI</title><rect fill="#000000" fill-opacity="0.00000" height="789" width="8" x="1665.7236" y="114"/><line style="stroke:#181818;stroke-width:0.5;stroke-dasharray:5,5;" x1="1669.0859" x2="1669.0859" y1="114" y2="903"/></g></g><g class="participant participant-head" data-entity-uid="part1" data-qualified-name="Coach" id="part1-head"><text fill="#000000" font-family="Helvetica" font-size="14" lengthAdjust="spacing" textLength="40.4688" x="5" y="110.7803">Coach</text><ellipse cx="28.2344" cy="48.5" fill="#E2E2F0" rx="8" ry="8" style="stroke:#181818;stroke-width:0.5;"/><path d="M28.2344,56.5 L28.2344,83.5 M15.2344,64.5 L41.2344,64.5 M28.2344,83.5 L15.2344,98.5 M28.2344,83.5 L41.2344,98.5" fill="none" style="stroke:#181818;stroke-width:0.5;"/></g><g class="participant participant-tail" data-entity-uid="part1" data-qualified-name="Coach" id="part1-tail"><text fill="#000000" font-family="Helvetica" font-size="14" lengthAdjust="spacing" textLength="40.4688" x="5" y="912.7803">Coach</text><ellipse cx="28.2344" cy="924.5" fill="#E2E2F0" rx="8" ry="8" style="stroke:#181818;stroke-width:0.5;"/><path d="M28.2344,932.5 L28.2344,959.5 M15.2344,940.5 L41.2344,940.5 M28.2344,959.5 L15.2344,974.5 M28.2344,959.5 L41.2344,974.5" fill="none" style="stroke:#181818;stroke-width:0.5;"/></g><g class="participant participant-head" data-entity-uid="part2" data-qualified-name="FE" id="part2-head"><rect fill="#E2E2F0" height="42" rx="2.5" ry="2.5" style="stroke:#181818;stroke-width:0.5;" width="116.6895" x="205.1523" y="71"/><text fill="#000000" font-family="Helvetica" font-size="14" lengthAdjust="spacing" textLength="80.1582" x="223.418" y="88.7803">Angular SPA</text><text fill="#000000" font-family="Helvetica" font-size="14" lengthAdjust="spacing" textLength="102.6895" x="212.1523" y="102.7803">(match-analysis)</text></g><g class="participant participant-tail" data-entity-uid="part2" data-qualified-name="FE" id="part2-tail"><rect fill="#E2E2F0" height="42" rx="2.5" ry="2.5" style="stroke:#181818;stroke-width:0.5;" width="116.6895" x="205.1523" y="902"/><text fill="#000000" font-family="Helvetica" font-size="14" lengthAdjust="spacing" textLength="80.1582" x="223.418" y="919.7803">Angular SPA</text><text fill="#000000" font-family="Helvetica" font-size="14" lengthAdjust="spacing" textLength="102.6895" x="212.1523" y="933.7803">(match-analysis)</text></g><g class="participant participant-head" data-entity-uid="part3" data-qualified-name="API" id="part3-head"><rect fill="#E2E2F0" height="42" rx="2.5" ry="2.5" style="stroke:#181818;stroke-width:0.5;" width="119.041" x="413.6772" y="71"/><text fill="#000000" font-family="Helvetica" font-size="14" lengthAdjust="spacing" textLength="73.1582" x="436.6187" y="88.7803">Spring Boot</text><text fill="#000000" font-family="Helvetica" font-size="14" lengthAdjust="spacing" textLength="105.041" x="420.6772" y="102.7803">Resource Server</text></g><g class="participant participant-tail" data-entity-uid="part3" data-qualified-name="API" id="part3-tail"><rect fill="#E2E2F0" height="42" rx="2.5" ry="2.5" style="stroke:#181818;stroke-width:0.5;" width="119.041" x="413.6772" y="902"/><text fill="#000000" font-family="Helvetica" font-size="14" lengthAdjust="spacing" textLength="73.1582" x="436.6187" y="919.7803">Spring Boot</text><text fill="#000000" font-family="Helvetica" font-size="14" lengthAdjust="spacing" textLength="105.041" x="420.6772" y="933.7803">Resource Server</text></g><g class="participant participant-head" data-entity-uid="part4" data-qualified-name="Ctrl" id="part4-head"><rect fill="#E2E2F0" height="42" rx="2.5" ry="2.5" style="stroke:#181818;stroke-width:0.5;" width="164.9443" x="542.7183" y="71"/><text fill="#000000" font-family="Helvetica" font-size="14" lengthAdjust="spacing" textLength="150.9443" x="549.7183" y="88.7803">MatchAnalysisController</text><text fill="#000000" font-family="Helvetica" font-size="14" lengthAdjust="spacing" textLength="100.3721" x="575.0044" y="102.7803">(ai-module/web)</text></g><g class="participant participant-tail" data-entity-uid="part4" data-qualified-name="Ctrl" id="part4-tail"><rect fill="#E2E2F0" height="42" rx="2.5" ry="2.5" style="stroke:#181818;stroke-width:0.5;" width="164.9443" x="542.7183" y="902"/><text fill="#000000" font-family="Helvetica" font-size="14" lengthAdjust="spacing" textLength="150.9443" x="549.7183" y="919.7803">MatchAnalysisController</text><text fill="#000000" font-family="Helvetica" font-size="14" lengthAdjust="spacing" textLength="100.3721" x="575.0044" y="933.7803">(ai-module/web)</text></g><g class="participant participant-head" data-entity-uid="part5" data-qualified-name="Svc" id="part5-head"><rect fill="#E2E2F0" height="42" rx="2.5" ry="2.5" style="stroke:#181818;stroke-width:0.5;" width="150.9375" x="788.9414" y="71"/><text fill="#000000" font-family="Helvetica" font-size="14" lengthAdjust="spacing" textLength="136.9375" x="795.9414" y="88.7803">MatchAnalysisService</text><text fill="#000000" font-family="Helvetica" font-size="14" lengthAdjust="spacing" textLength="76.2617" x="826.2793" y="102.7803">(application)</text></g><g class="participant participant-tail" data-entity-uid="part5" data-qualified-name="Svc" id="part5-tail"><rect fill="#E2E2F0" height="42" rx="2.5" ry="2.5" style="stroke:#181818;stroke-width:0.5;" width="150.9375" x="788.9414" y="902"/><text fill="#000000" font-family="Helvetica" font-size="14" lengthAdjust="spacing" textLength="136.9375" x="795.9414" y="919.7803">MatchAnalysisService</text><text fill="#000000" font-family="Helvetica" font-size="14" lengthAdjust="spacing" textLength="76.2617" x="826.2793" y="933.7803">(application)</text></g><g class="participant participant-head" data-entity-uid="part6" data-qualified-name="Stats" id="part6-head"><rect fill="#E2E2F0" height="28" rx="2.5" ry="2.5" style="stroke:#181818;stroke-width:0.5;" width="154.8203" x="1027.9844" y="85"/><text fill="#000000" font-family="Helvetica" font-size="14" lengthAdjust="spacing" textLength="140.8203" x="1034.9844" y="102.7803">MatchStatisticsService</text></g><g class="participant participant-tail" data-entity-uid="part6" data-qualified-name="Stats" id="part6-tail"><rect fill="#E2E2F0" height="28" rx="2.5" ry="2.5" style="stroke:#181818;stroke-width:0.5;" width="154.8203" x="1027.9844" y="902"/><text fill="#000000" font-family="Helvetica" font-size="14" lengthAdjust="spacing" textLength="140.8203" x="1034.9844" y="919.7803">MatchStatisticsService</text></g><g class="participant participant-head" data-entity-uid="part7" data-qualified-name="Llm" id="part7-head"><rect fill="#E2E2F0" height="42" rx="2.5" ry="2.5" style="stroke:#181818;stroke-width:0.5;" width="291.792" x="1192.8047" y="71"/><text fill="#000000" font-family="Helvetica" font-size="14" lengthAdjust="spacing" textLength="84.0273" x="1296.687" y="88.7803">LlmClientPort</text><text fill="#000000" font-family="Helvetica" font-size="14" lengthAdjust="spacing" textLength="277.792" x="1199.8047" y="102.7803">(OpenAiLlmAdapter / FakeLlmClientAdapter)</text></g><g class="participant participant-tail" data-entity-uid="part7" data-qualified-name="Llm" id="part7-tail"><rect fill="#E2E2F0" height="42" rx="2.5" ry="2.5" style="stroke:#181818;stroke-width:0.5;" width="291.792" x="1192.8047" y="902"/><text fill="#000000" font-family="Helvetica" font-size="14" lengthAdjust="spacing" textLength="84.0273" x="1296.687" y="919.7803">LlmClientPort</text><text fill="#000000" font-family="Helvetica" font-size="14" lengthAdjust="spacing" textLength="277.792" x="1199.8047" y="933.7803">(OpenAiLlmAdapter / FakeLlmClientAdapter)</text></g><g class="participant participant-head" data-entity-uid="part8" data-qualified-name="DB" id="part8-head"><text fill="#000000" font-family="Helvetica" font-size="14" lengthAdjust="spacing" textLength="96.4893" x="1494.5967" y="110.7803">match_analysis</text><path d="M1527.8413,64 C1527.8413,54 1545.8413,54 1545.8413,54 C1545.8413,54 1563.8413,54 1563.8413,64 L1563.8413,90 C1563.8413,100 1545.8413,100 1545.8413,100 C1545.8413,100 1527.8413,100 1527.8413,90 L1527.8413,64" fill="#E2E2F0" style="stroke:#181818;stroke-width:0.5;"/><path d="M1527.8413,64 C1527.8413,74 1545.8413,74 1545.8413,74 C1545.8413,74 1563.8413,74 1563.8413,64" fill="none" style="stroke:#181818;stroke-width:0.5;"/></g><g class="participant participant-tail" data-entity-uid="part8" data-qualified-name="DB" id="part8-tail"><text fill="#000000" font-family="Helvetica" font-size="14" lengthAdjust="spacing" textLength="96.4893" x="1494.5967" y="912.7803">match_analysis</text><path d="M1527.8413,926 C1527.8413,916 1545.8413,916 1545.8413,916 C1545.8413,916 1563.8413,916 1563.8413,926 L1563.8413,952 C1563.8413,962 1545.8413,962 1545.8413,962 C1545.8413,962 1527.8413,962 1527.8413,952 L1527.8413,926" fill="#E2E2F0" style="stroke:#181818;stroke-width:0.5;"/><path d="M1527.8413,926 C1527.8413,936 1545.8413,936 1545.8413,936 C1545.8413,936 1563.8413,936 1563.8413,926" fill="none" style="stroke:#181818;stroke-width:0.5;"/></g><g class="participant participant-head" data-entity-uid="part9" data-qualified-name="OpenAI" id="part9-head"><rect fill="#E2E2F0" height="42" rx="2.5" ry="2.5" style="stroke:#181818;stroke-width:0.5;" width="125.2754" x="1607.0859" y="71"/><text fill="#000000" font-family="Helvetica" font-size="14" lengthAdjust="spacing" textLength="47.4756" x="1645.9858" y="88.7803">OpenAI</text><text fill="#000000" font-family="Helvetica" font-size="14" lengthAdjust="spacing" textLength="111.2754" x="1614.0859" y="102.7803">Chat Completions</text></g><g class="participant participant-tail" data-entity-uid="part9" data-qualified-name="OpenAI" id="part9-tail"><rect fill="#E2E2F0" height="42" rx="2.5" ry="2.5" style="stroke:#181818;stroke-width:0.5;" width="125.2754" x="1607.0859" y="902"/><text fill="#000000" font-family="Helvetica" font-size="14" lengthAdjust="spacing" textLength="47.4756" x="1645.9858" y="919.7803">OpenAI</text><text fill="#000000" font-family="Helvetica" font-size="14" lengthAdjust="spacing" textLength="111.2754" x="1614.0859" y="933.7803">Chat Completions</text></g><g><title>Spring Boot</title><rect fill="#FFFFFF" height="675" style="stroke:#181818;stroke-width:1;" width="10" x="468.1978" y="183"/></g><g><title>MatchAnalysisController</title><rect fill="#FFFFFF" height="621" style="stroke:#181818;stroke-width:1;" width="10" x="620.1904" y="210"/></g><g><title>MatchAnalysisService</title><rect fill="#FFFFFF" height="567" style="stroke:#181818;stroke-width:1;" width="10" x="859.4102" y="237"/></g><g><title>LlmClientPort</title><rect fill="#FFFFFF" height="176" style="stroke:#181818;stroke-width:1;" width="10" x="1333.7007" y="424"/></g><g class="message" data-entity-1="part1" data-entity-2="part2" id="msg1"><polygon fill="#181818" points="251.4971,139,261.4971,143,251.4971,147,255.4971,143" style="stroke:#181818;stroke-width:1;"/><line style="stroke:#181818;stroke-width:1;" x1="28.2344" x2="257.4971" y1="143" y2="143"/><text fill="#000000" font-family="Helvetica" font-size="13" lengthAdjust="spacing" textLength="211.2627" x="40.2344" y="138.0103">Klick &#8222;Taktische Analyse generieren"</text></g><g class="message" data-entity-1="part2" data-entity-2="part3" id="msg2"><polygon fill="#181818" points="456.1978,179,466.1978,183,456.1978,187,460.1978,183" style="stroke:#181818;stroke-width:1;"/><line style="stroke:#181818;stroke-width:1;" x1="263.4971" x2="462.1978" y1="183" y2="183"/><text fill="#000000" font-family="Helvetica" font-size="13" lengthAdjust="spacing" textLength="185.7007" x="272.9971" y="165.0103">POST /api/matches/{id}/analysis</text><text fill="#000000" font-family="Helvetica" font-size="13" lengthAdjust="spacing" textLength="167.6289" x="282.033" y="178.0103">Authorization: Bearer &lt;JWT&gt;</text></g><g class="message" data-entity-1="part3" data-entity-2="part4" id="msg3"><polygon fill="#181818" points="608.1904,206,618.1904,210,608.1904,214,612.1904,210" style="stroke:#181818;stroke-width:1;"/><line style="stroke:#181818;stroke-width:1;" x1="478.1978" x2="614.1904" y1="210" y2="210"/><text fill="#000000" font-family="Helvetica" font-size="13" lengthAdjust="spacing" textLength="118.5044" x="489.9419" y="205.0103">generateAnalysis(id)</text></g><g class="message" data-entity-1="part4" data-entity-2="part5" id="msg4"><polygon fill="#181818" points="847.4102,233,857.4102,237,847.4102,241,851.4102,237" style="stroke:#181818;stroke-width:1;"/><line style="stroke:#181818;stroke-width:1;" x1="630.1904" x2="853.4102" y1="237" y2="237"/><text fill="#000000" font-family="Helvetica" font-size="13" lengthAdjust="spacing" textLength="106.2217" x="691.6895" y="232.0103">generate(matchId)</text></g><g class="message" data-entity-1="part5" data-entity-2="part5" id="msg5"><line style="stroke:#181818;stroke-width:1;" x1="869.4102" x2="911.4102" y1="277" y2="277"/><line style="stroke:#181818;stroke-width:1;" x1="911.4102" x2="911.4102" y1="277" y2="290"/><line style="stroke:#181818;stroke-width:1;" x1="870.4102" x2="911.4102" y1="290" y2="290"/><polygon fill="#181818" points="880.4102,286,870.4102,290,880.4102,294,876.4102,290" style="stroke:#181818;stroke-width:1;"/><text fill="#000000" font-family="Helvetica" font-size="13" lengthAdjust="spacing" textLength="206.9844" x="876.4102" y="259.0103">assert MatchStatus = COMPLETED</text><text fill="#000000" font-family="Helvetica" font-size="13" lengthAdjust="spacing" textLength="49.1499" x="955.3274" y="272.0103">else 409</text></g><g class="message" data-entity-1="part5" data-entity-2="part6" id="msg6"><polygon fill="#181818" points="1093.3945,313,1103.3945,317,1093.3945,321,1097.3945,317" style="stroke:#181818;stroke-width:1;"/><line style="stroke:#181818;stroke-width:1;" x1="869.4102" x2="1099.3945" y1="317" y2="317"/><text fill="#000000" font-family="Helvetica" font-size="13" lengthAdjust="spacing" textLength="104.7617" x="935.0215" y="312.0103">compute(matchId)</text></g><g class="message" data-entity-1="part6" data-entity-2="part5" id="msg7"><polygon fill="#181818" points="880.4102,340,870.4102,344,880.4102,348,876.4102,344" style="stroke:#181818;stroke-width:1;"/><line style="stroke:#181818;stroke-width:1;stroke-dasharray:2,2;" x1="874.4102" x2="1104.3945" y1="344" y2="344"/><text fill="#000000" font-family="Helvetica" font-size="13" lengthAdjust="spacing" textLength="87.4136" x="943.6956" y="339.0103">MatchStatistics</text></g><g class="message" data-entity-1="part5" data-entity-2="part5" id="msg8"><line style="stroke:#181818;stroke-width:1;" x1="869.4102" x2="911.4102" y1="384" y2="384"/><line style="stroke:#181818;stroke-width:1;" x1="911.4102" x2="911.4102" y1="384" y2="397"/><line style="stroke:#181818;stroke-width:1;" x1="870.4102" x2="911.4102" y1="397" y2="397"/><polygon fill="#181818" points="880.4102,393,870.4102,397,880.4102,401,876.4102,397" style="stroke:#181818;stroke-width:1;"/><text fill="#000000" font-family="Helvetica" font-size="13" lengthAdjust="spacing" textLength="128.5337" x="876.4102" y="366.0103">assert totalPoints &#8805; 10</text><text fill="#000000" font-family="Helvetica" font-size="13" lengthAdjust="spacing" textLength="49.1499" x="916.1021" y="379.0103">else 422</text></g><g class="message" data-entity-1="part5" data-entity-2="part7" id="msg9"><polygon fill="#181818" points="1321.7007,420,1331.7007,424,1321.7007,428,1325.7007,424" style="stroke:#181818;stroke-width:1;"/><line style="stroke:#181818;stroke-width:1;" x1="869.4102" x2="1327.7007" y1="424" y2="424"/><text fill="#000000" font-family="Helvetica" font-size="13" lengthAdjust="spacing" textLength="207.3716" x="997.8696" y="419.0103">generateAnalysis(stats, playerMeta)</text></g><path d="M1182.8047,439 L1242.9756,439 L1242.9756,444 L1232.9756,454 L1182.8047,454 L1182.8047,439" fill="#EEEEEE" style="stroke:#000000;stroke-width:1.5;"/><rect fill="none" height="122" style="stroke:#000000;stroke-width:1.5;" width="559.5566" x="1182.8047" y="439"/><text fill="#000000" font-family="Helvetica" font-size="13" font-weight="bold" lengthAdjust="spacing" textLength="15.1709" x="1197.8047" y="450.0103">alt</text><text fill="#000000" font-family="Helvetica" font-size="11" font-weight="bold" lengthAdjust="spacing" textLength="113.6738" x="1257.9756" y="449.4702">[API-Key konfiguriert]</text><g class="message" data-entity-1="part7" data-entity-2="part9" id="msg10"><polygon fill="#181818" points="1657.7236,469,1667.7236,473,1657.7236,477,1661.7236,473" style="stroke:#181818;stroke-width:1;"/><line style="stroke:#181818;stroke-width:1;" x1="1343.7007" x2="1663.7236" y1="473" y2="473"/><text fill="#000000" font-family="Helvetica" font-size="13" lengthAdjust="spacing" textLength="221.0762" x="1396.1741" y="468.0103">ChatClient.entity(MatchAnalysis.class)</text></g><g class="message" data-entity-1="part9" data-entity-2="part7" id="msg11"><polygon fill="#181818" points="1354.7007,496,1344.7007,500,1354.7007,504,1350.7007,500" style="stroke:#181818;stroke-width:1;"/><line style="stroke:#181818;stroke-width:1;stroke-dasharray:2,2;" x1="1348.7007" x2="1668.7236" y1="500" y2="500"/><text fill="#000000" font-family="Helvetica" font-size="13" lengthAdjust="spacing" textLength="96.0845" x="1458.6699" y="495.0103">structured JSON</text></g><line style="stroke:#000000;stroke-width:1;stroke-dasharray:2,2;" x1="1182.8047" x2="1742.3613" y1="509" y2="509"/><text fill="#000000" font-family="Helvetica" font-size="11" font-weight="bold" lengthAdjust="spacing" textLength="74.5723" x="1187.8047" y="517.4702">[kein API-Key]</text><g class="message" data-entity-1="part7" data-entity-2="part7" id="msg12"><line style="stroke:#181818;stroke-width:1;" x1="1343.7007" x2="1385.7007" y1="540" y2="540"/><line style="stroke:#181818;stroke-width:1;" x1="1385.7007" x2="1385.7007" y1="540" y2="553"/><line style="stroke:#181818;stroke-width:1;" x1="1344.7007" x2="1385.7007" y1="553" y2="553"/><polygon fill="#181818" points="1354.7007,549,1344.7007,553,1354.7007,557,1350.7007,553" style="stroke:#181818;stroke-width:1;"/><text fill="#000000" font-family="Helvetica" font-size="13" lengthAdjust="spacing" textLength="101.1499" x="1350.7007" y="535.0103">deterministic stub</text></g><g class="message" data-entity-1="part7" data-entity-2="part5" id="msg13"><polygon fill="#181818" points="880.4102,596,870.4102,600,880.4102,604,876.4102,600" style="stroke:#181818;stroke-width:1;"/><line style="stroke:#181818;stroke-width:1;stroke-dasharray:2,2;" x1="874.4102" x2="1337.7007" y1="600" y2="600"/><text fill="#000000" font-family="Helvetica" font-size="13" lengthAdjust="spacing" textLength="184.2026" x="1011.9541" y="582.0103">MatchAnalysis (COMPLETED) /</text><text fill="#000000" font-family="Helvetica" font-size="13" lengthAdjust="spacing" textLength="86.7217" x="1064.3064" y="595.0103">oder Exception</text></g><path d="M403.6772,615 L463.8481,615 L463.8481,620 L453.8481,630 L403.6772,630 L403.6772,615" fill="#EEEEEE" style="stroke:#000000;stroke-width:1.5;"/><rect fill="none" height="136" style="stroke:#000000;stroke-width:1.5;" width="1203.4087" x="403.6772" y="615"/><text fill="#000000" font-family="Helvetica" font-size="13" font-weight="bold" lengthAdjust="spacing" textLength="15.1709" x="418.6772" y="626.0103">alt</text><text fill="#000000" font-family="Helvetica" font-size="11" font-weight="bold" lengthAdjust="spacing" textLength="64.1738" x="478.8481" y="625.4702">[erfolgreich]</text><g class="message" data-entity-1="part5" data-entity-2="part8" id="msg14"><polygon fill="#181818" points="1533.8413,645,1543.8413,649,1533.8413,653,1537.8413,649" style="stroke:#181818;stroke-width:1;"/><line style="stroke:#181818;stroke-width:1;" x1="869.4102" x2="1539.8413" y1="649" y2="649"/><text fill="#000000" font-family="Helvetica" font-size="13" lengthAdjust="spacing" textLength="277.4053" x="1068.9231" y="644.0103">UPSERT match_analysis (status COMPLETED)</text></g><line style="stroke:#000000;stroke-width:1;stroke-dasharray:2,2;" x1="403.6772" x2="1607.0859" y1="658" y2="658"/><text fill="#000000" font-family="Helvetica" font-size="11" font-weight="bold" lengthAdjust="spacing" textLength="66.6016" x="408.6772" y="666.4702">[LLM-Fehler]</text><g class="message" data-entity-1="part5" data-entity-2="part8" id="msg15"><polygon fill="#181818" points="1533.8413,685,1543.8413,689,1533.8413,693,1537.8413,689" style="stroke:#181818;stroke-width:1;"/><line style="stroke:#181818;stroke-width:1;" x1="869.4102" x2="1539.8413" y1="689" y2="689"/><text fill="#000000" font-family="Helvetica" font-size="13" lengthAdjust="spacing" textLength="329.437" x="1042.9072" y="684.0103">UPSERT match_analysis (status FAILED, errorMessage)</text></g><g class="message" data-entity-1="part5" data-entity-2="part4" id="msg16"><polygon fill="#181818" points="641.1904,712,631.1904,716,641.1904,720,637.1904,716" style="stroke:#181818;stroke-width:1;"/><line style="stroke:#181818;stroke-width:1;" x1="635.1904" x2="858.4102" y1="716" y2="716"/><text fill="#000000" font-family="Helvetica" font-size="13" lengthAdjust="spacing" textLength="205.2197" x="642.1904" y="711.0103">throw AnalysisGenerationException</text></g><g class="message" data-entity-1="part4" data-entity-2="part3" id="msg17"><polygon fill="#181818" points="489.1978,739,479.1978,743,489.1978,747,485.1978,743" style="stroke:#181818;stroke-width:1;"/><line style="stroke:#181818;stroke-width:1;stroke-dasharray:2,2;" x1="483.1978" x2="619.1904" y1="743" y2="743"/><text fill="#000000" font-family="Helvetica" font-size="13" lengthAdjust="spacing" textLength="106.9453" x="495.7214" y="738.0103">502 ProblemDetail</text></g><g class="message" data-entity-1="part8" data-entity-2="part5" id="msg18"><polygon fill="#181818" points="880.4102,773,870.4102,777,880.4102,781,876.4102,777" style="stroke:#181818;stroke-width:1;"/><line style="stroke:#181818;stroke-width:1;stroke-dasharray:2,2;" x1="874.4102" x2="1544.8413" y1="777" y2="777"/><text fill="#000000" font-family="Helvetica" font-size="13" lengthAdjust="spacing" textLength="52.749" x="1181.2512" y="772.0103">persisted</text></g><g class="message" data-entity-1="part5" data-entity-2="part4" id="msg19"><polygon fill="#181818" points="641.1904,800,631.1904,804,641.1904,808,637.1904,804" style="stroke:#181818;stroke-width:1;"/><line style="stroke:#181818;stroke-width:1;stroke-dasharray:2,2;" x1="635.1904" x2="863.4102" y1="804" y2="804"/><text fill="#000000" font-family="Helvetica" font-size="13" lengthAdjust="spacing" textLength="142.3462" x="676.1272" y="799.0103">MatchAnalysisResponse</text></g><g class="message" data-entity-1="part4" data-entity-2="part3" id="msg20"><polygon fill="#181818" points="489.1978,827,479.1978,831,489.1978,835,485.1978,831" style="stroke:#181818;stroke-width:1;"/><line style="stroke:#181818;stroke-width:1;stroke-dasharray:2,2;" x1="483.1978" x2="624.1904" y1="831" y2="831"/><text fill="#000000" font-family="Helvetica" font-size="13" lengthAdjust="spacing" textLength="93.5708" x="504.9087" y="826.0103">200 OK + JSON</text></g><g class="message" data-entity-1="part3" data-entity-2="part2" id="msg21"><polygon fill="#181818" points="274.4971,854,264.4971,858,274.4971,862,270.4971,858" style="stroke:#181818;stroke-width:1;"/><line style="stroke:#181818;stroke-width:1;stroke-dasharray:2,2;" x1="268.4971" x2="472.1978" y1="858" y2="858"/><text fill="#000000" font-family="Helvetica" font-size="13" lengthAdjust="spacing" textLength="82.7544" x="326.9702" y="853.0103">200 + Analyse</text></g><g class="message" data-entity-1="part2" data-entity-2="part1" id="msg22"><polygon fill="#181818" points="39.2344,881,29.2344,885,39.2344,889,35.2344,885" style="stroke:#181818;stroke-width:1;"/><line style="stroke:#181818;stroke-width:1;" x1="33.2344" x2="262.4971" y1="885" y2="885"/><text fill="#000000" font-family="Helvetica" font-size="13" lengthAdjust="spacing" textLength="167.2988" x="62.2163" y="880.0103">5 Textfelder + Empfehlungen</text></g><?plantuml-src bLHDZzis4BthLmpsP6EZjMiq0Rf80cZzqJfhhusLWruC55nfR1EcI8Mal1z5WLvppxctel-ZFsL_IOQaPSl9ea0Fkb3lpPjvRqZBhK2u7iTJPhDDd4Wc7Wt26YLgZXebFF_v1LByLA5yWbRwX99fhk3VVzvSzDfHPBPSbaop0ep7P3X5OzWQ4y7N4ZAK5dKJjM6vkkTo3Iic33R-vBXYbR0Z9UqDAn1-GR53opCMHIopIaDViMmJ4PWEUScaXRD4hYl1DAJpP2bRXH-1-H6uQPy1Cp0QdZBIKZlnAwNiKjwYKPNEaERJEzIUaCp7fmnlJB8lsgVkj182DUan7XSghmHsxl4koFMj5lz1TpeyGySjIq6pMQvaOAQxx0LYQWbYwB2c1YoTcbFqH1HzmSdjkT8qMMjMeamudIOvAoa2wC28RV40sny7RJgDScRP7QFepxoDlzKsUi3WwbJDLnylPN_3BELIb0BT904SVaQHpmlYzvG1NC8rZRkbPVfhmROqKhP1-7xPpYB24eD28CfybYwWmqhUyIsXwVpEypywTMTBcLHsepH_yZPUmXKoJPE-_V3huhtR6RvZ5dsWhXwLTUbGNQz7l-fKMZnl7_4-Geya1gNI88GD6pVHBZO7Ec2PCQWj7DAh3Bo3_cmwdmmNmy5I8cqz_DZzwS1oMH8l8nUhfaJu4HyAVxCFBwfQPPcOAow9-VpvR_YXMmlsUZM1mdx90-FaNa4fs2FgALhM6DBj1nFMMHbVuoDibLpnTUKoin7uYbGuv4wrtLQ4BRkWZzl7riabkCW4jTicufuH7xeoLbUPhJJcy26TtKI-zoroMKiVrG8XHrhYWall2T6hkmXb7ddCgNErEhGEORIXivG0AgUb6JvaMBerYdByRcxKAoNM6ZczFm1x7mTNLFhZF1tUBk3qoe0tau8_AeL99fDfFC8DlHx_gyme6K-6WrVKXbPw_xosZnNsMsqtMjr3FURF8LyQw3WP16Xyk62lkpsOQtKdi1XGubnuywYZetSbQgfcCG_hSvGxCPKUqfAkFpRDSpVZ6xrUjmkpQpWFuJQm_ixvIre_5mvwNhyGJQYxpk6H2EyBJG4BVB0h52x7SnWMvOeyhYIj-5S0?></g></svg>