<?plantuml 1.2026.2?><svg xmlns="http://www.w3.org/2000/svg" xmlns:xlink="http://www.w3.org/1999/xlink" contentStyleType="text/css" data-diagram-type="DESCRIPTION" height="1002px" preserveAspectRatio="none" style="width:574px;height:1002px;background:#FFFFFF;" version="1.1" viewBox="0 0 574 1002" width="574px" zoomAndPan="magnify"><title>TSaS Backend - Fachliche Module</title><defs/><g><g class="title" data-source-line="9"><text fill="#000000" font-family="Arial" font-size="22" font-weight="bold" lengthAdjust="spacing" textLength="356.9736" x="104.3532" y="43.6357">TSaS Backend - Fachliche Module</text></g><!--cluster Spring Boot Backend (Modularer Monolith)--><g class="cluster" data-qualified-name="Spring Boot Backend .Modularer Monolith." data-source-line="11" id="ent0002"><path d="M50.18,73.2979 L311.8382,73.2979 A3.75,3.75 0 0 1 314.3382,75.7979 L321.3382,109.0967 L565.18,109.0967 A2.5,2.5 0 0 1 567.68,111.5967 L567.68,881.7779 A2.5,2.5 0 0 1 565.18,884.2779 L50.18,884.2779 A2.5,2.5 0 0 1 47.68,881.7779 L47.68,75.7979 A2.5,2.5 0 0 1 50.18,73.2979" fill="#FFFFFF" style="stroke:#000000;stroke-width:1;"/><line style="stroke:#000000;stroke-width:1;" x1="47.68" x2="321.3382" y1="109.0967" y2="109.0967"/><text fill="#000000" font-family="Arial" font-size="12" font-weight="bold" lengthAdjust="spacing" textLength="244.6582" x="59.68" y="94.5537">Spring Boot Backend (Modularer Monolith)</text></g><!--entity PM--><g class="entity" data-qualified-name="Spring Boot Backend .Modularer Monolith..PM" data-source-line="13" id="ent0003"><rect fill="#C8E6C9" height="101.3965" rx="2.5" ry="2.5" style="stroke:#000000;stroke-width:1;" width="160.7285" x="63.31" y="605.4879"/><text fill="#000000" font-family="Arial" font-size="12" font-weight="bold" lengthAdjust="spacing" textLength="82.0195" x="81.31" y="634.7437">player-module</text><line style="stroke:#000000;stroke-width:1;" x1="64.31" x2="223.0385" y1="645.2867" y2="645.2867"/><text fill="#000000" font-family="Arial" font-size="12" lengthAdjust="spacing" textLength="124.7285" x="81.31" y="668.5425">Spielerprofile verwalten</text><text fill="#000000" font-family="Arial" font-size="12" lengthAdjust="spacing" textLength="83.3496" x="81.31" y="682.3414">(CRUD, Suche)</text></g><!--entity MM--><g class="entity" data-qualified-name="Spring Boot Backend .Modularer Monolith..MM" data-source-line="14" id="ent0004"><rect fill="#C8E6C9" height="101.3965" rx="2.5" ry="2.5" style="stroke:#000000;stroke-width:1;" width="165.4336" x="79.96" y="444.0879"/><text fill="#000000" font-family="Arial" font-size="12" font-weight="bold" lengthAdjust="spacing" textLength="82.0078" x="97.96" y="473.3437">match-module</text><line style="stroke:#000000;stroke-width:1;" x1="80.96" x2="244.3936" y1="483.8867" y2="483.8867"/><text fill="#000000" font-family="Arial" font-size="12" lengthAdjust="spacing" textLength="129.4336" x="97.96" y="507.1425">Begegnungen verwalten</text><text fill="#000000" font-family="Arial" font-size="12" lengthAdjust="spacing" textLength="126.0469" x="97.96" y="520.9414">(Erstellen, Sets, Status)</text></g><!--entity SM--><g class="entity" data-qualified-name="Spring Boot Backend .Modularer Monolith..SM" data-source-line="15" id="ent0005"><rect fill="#C8E6C9" height="101.3965" rx="2.5" ry="2.5" style="stroke:#000000;stroke-width:1;" width="145.377" x="151.99" y="282.6979"/><text fill="#000000" font-family="Arial" font-size="12" font-weight="bold" lengthAdjust="spacing" textLength="90.0059" x="169.99" y="311.9537">scoring-module</text><line style="stroke:#000000;stroke-width:1;" x1="152.99" x2="296.367" y1="322.4967" y2="322.4967"/><text fill="#000000" font-family="Arial" font-size="12" lengthAdjust="spacing" textLength="105.3984" x="169.99" y="345.7525">Spielstand erfassen</text><text fill="#000000" font-family="Arial" font-size="12" lengthAdjust="spacing" textLength="109.377" x="169.99" y="359.5514">(Punkte, Live-Score)</text></g><!--entity STM--><g class="entity" data-qualified-name="Spring Boot Backend .Modularer Monolith..STM" data-source-line="16" id="ent0006"><rect fill="#C8E6C9" height="101.3965" rx="2.5" ry="2.5" style="stroke:#000000;stroke-width:1;" width="191.3848" x="128.98" y="121.2979"/><text fill="#000000" font-family="Arial" font-size="12" font-weight="bold" lengthAdjust="spacing" textLength="98.6895" x="146.98" y="150.5537">statistics-module</text><line style="stroke:#000000;stroke-width:1;" x1="129.98" x2="319.3648" y1="161.0967" y2="161.0967"/><text fill="#000000" font-family="Arial" font-size="12" lengthAdjust="spacing" textLength="115.4063" x="146.98" y="184.3525">Statistiken berechnen</text><text fill="#000000" font-family="Arial" font-size="12" lengthAdjust="spacing" textLength="155.3848" x="146.98" y="198.1514">(Head-to-Head, Winner%, ...)</text></g><!--entity AM--><g class="entity" data-qualified-name="Spring Boot Backend .Modularer Monolith..AM" data-source-line="17" id="ent0007"><rect fill="#BBDEFB" height="101.3965" rx="2.5" ry="2.5" style="stroke:#000000;stroke-width:1;" width="182.0684" x="369.64" y="605.4879"/><text fill="#000000" font-family="Arial" font-size="12" font-weight="bold" lengthAdjust="spacing" textLength="71.9941" x="387.64" y="634.7437">auth-module</text><line style="stroke:#000000;stroke-width:1;" x1="370.64" x2="550.7084" y1="645.2867" y2="645.2867"/><text fill="#000000" font-family="Arial" font-size="12" lengthAdjust="spacing" textLength="109.3945" x="387.64" y="668.5425">Keycloak-Integration</text><text fill="#000000" font-family="Arial" font-size="12" lengthAdjust="spacing" textLength="146.0684" x="387.64" y="682.3414">(Token-Validierung, Rollen)</text></g><!--entity CM--><g class="entity" data-qualified-name="Spring Boot Backend .Modularer Monolith..CM" data-source-line="18" id="ent0008"><rect fill="#FFF9C4" height="101.3965" rx="2.5" ry="2.5" style="stroke:#000000;stroke-width:1;" width="182.0449" x="205.65" y="766.8879"/><text fill="#000000" font-family="Arial" font-size="12" font-weight="bold" lengthAdjust="spacing" textLength="96.668" x="223.65" y="796.1437">common-module</text><line style="stroke:#000000;stroke-width:1;" x1="206.65" x2="386.6949" y1="806.6867" y2="806.6867"/><text fill="#000000" font-family="Arial" font-size="12" lengthAdjust="spacing" textLength="76.7168" x="223.65" y="829.9425">Shared Kernel</text><text fill="#000000" font-family="Arial" font-size="12" lengthAdjust="spacing" textLength="146.0449" x="223.65" y="843.7414">(DTOs, Exceptions, Config)</text></g><g class="entity" data-qualified-name="GMN18" data-source-line="34" id="ent0019"><path d="M179.13,928.2779 L179.13,995.6743 A0,0 0 0 0 179.13,995.6743 L414.2179,995.6743 A0,0 0 0 0 414.2179,995.6743 L414.2179,938.2779 L404.2179,928.2779 L300.68,928.2779 L296.68,868.4879 L292.68,928.2779 L179.13,928.2779 A0,0 0 0 0 179.13,928.2779" fill="#FFFFFF" style="stroke:#000000;stroke-width:1;"/><path d="M404.2179,928.2779 L404.2179,938.2779 L414.2179,938.2779 L404.2179,928.2779" fill="#FFFFFF" style="stroke:#000000;stroke-width:1;"/><text fill="#000000" font-family="Arial" font-size="12" lengthAdjust="spacing" textLength="156.0879" x="193.13" y="952.5337">Kein Modul darf direkt auf die</text><text fill="#000000" font-family="Arial" font-size="12" lengthAdjust="spacing" textLength="168.7852" x="193.13" y="966.3325">internen Klassen eines anderen</text><text fill="#000000" font-family="Arial" font-size="12" lengthAdjust="spacing" textLength="198.0879" x="193.13" y="980.1314">Moduls zugreifen (nur via Interfaces).</text></g><!--link MM to PM--><g class="link" data-entity-1="ent0004" data-entity-2="ent0003" data-link-type="dependency" data-source-line="22" id="lnk9"><path d="M152,545.8579 C152,564.7879 152,580.2479 152,599.1779" fill="none" id="MM-to-PM" style="stroke:#000000;stroke-width:1;stroke-dasharray:7,7;"/><polygon fill="#000000" points="152,605.1779,156,596.1779,152,600.1779,148,596.1779,152,605.1779" style="stroke:#000000;stroke-width:1;"/><text fill="#000000" font-family="Arial" font-size="12" lengthAdjust="spacing" textLength="123.375" x="20" y="564.7737">referenziert Spieler-IDs</text></g><!--link SM to MM--><g class="link" data-entity-1="ent0005" data-entity-2="ent0004" data-link-type="dependency" data-source-line="23" id="lnk10"><path d="M198.69,384.4579 C198.69,403.3879 198.69,418.8479 198.69,437.7779" fill="none" id="SM-to-MM" style="stroke:#000000;stroke-width:1;stroke-dasharray:7,7;"/><polygon fill="#000000" points="198.69,443.7779,202.69,434.7779,198.69,438.7779,194.69,434.7779,198.69,443.7779" style="stroke:#000000;stroke-width:1;"/><text fill="#000000" font-family="Arial" font-size="12" lengthAdjust="spacing" textLength="136.752" x="53.69" y="403.3737">Punkte geh&#246;ren zu Match</text></g><!--link STM to MM--><g class="link" data-entity-1="ent0006" data-entity-2="ent0004" data-link-type="dependency" data-source-line="24" id="lnk11"><path d="M140.49,223.1479 C140.49,283.4979 140.49,377.2479 140.49,437.6179" fill="none" id="STM-to-MM" style="stroke:#000000;stroke-width:1;stroke-dasharray:7,7;"/><polygon fill="#000000" points="140.49,443.6179,144.49,434.6179,140.49,438.6179,136.49,434.6179,140.49,443.6179" style="stroke:#000000;stroke-width:1;"/><text fill="#000000" font-family="Arial" font-size="12" lengthAdjust="spacing" textLength="93.3691" x="38.49" y="322.6337">liest Match-Daten</text></g><!--link STM to SM--><g class="link" data-entity-1="ent0006" data-entity-2="ent0005" data-link-type="dependency" data-source-line="25" id="lnk12"><path d="M224.68,223.0679 C224.68,241.9979 224.68,257.4579 224.68,276.3779" fill="none" id="STM-to-SM" style="stroke:#000000;stroke-width:1;stroke-dasharray:7,7;"/><polygon fill="#000000" points="224.68,282.3779,228.68,273.3779,224.68,277.3779,220.68,273.3779,224.68,282.3779" style="stroke:#000000;stroke-width:1;"/><text fill="#000000" font-family="Arial" font-size="12" lengthAdjust="spacing" textLength="124.0723" x="91.68" y="272.9837">aggregiert Punkt-Daten</text></g><!--link AM to CM--><g class="link" data-entity-1="ent0007" data-entity-2="ent0008" data-link-type="dependency" data-source-line="27" id="lnk13"><path d="M378.67,707.2579 C378.67,726.1879 378.67,741.6479 378.67,760.5679" fill="none" id="AM-to-CM" style="stroke:#000000;stroke-width:1;stroke-dasharray:7,7;"/><polygon fill="#000000" points="378.67,766.5679,382.67,757.5679,378.67,761.5679,374.67,757.5679,378.67,766.5679" style="stroke:#000000;stroke-width:1;"/></g><!--link PM to CM--><g class="link" data-entity-1="ent0003" data-entity-2="ent0008" data-link-type="dependency" data-source-line="28" id="lnk14"><path d="M214.85,707.2579 C214.85,726.1879 214.85,741.6479 214.85,760.5679" fill="none" id="PM-to-CM" style="stroke:#000000;stroke-width:1;stroke-dasharray:7,7;"/><polygon fill="#000000" points="214.85,766.5679,218.85,757.5679,214.85,761.5679,210.85,757.5679,214.85,766.5679" style="stroke:#000000;stroke-width:1;"/></g><!--link MM to CM--><g class="link" data-entity-1="ent0004" data-entity-2="ent0008" data-link-type="dependency" data-source-line="29" id="lnk15"><path d="M234.72,545.9379 C234.72,606.2879 234.72,700.0479 234.72,760.4079" fill="none" id="MM-to-CM" style="stroke:#000000;stroke-width:1;stroke-dasharray:7,7;"/><polygon fill="#000000" points="234.72,766.4079,238.72,757.4079,234.72,761.4079,230.72,757.4079,234.72,766.4079" style="stroke:#000000;stroke-width:1;"/></g><!--link SM to CM--><g class="link" data-entity-1="ent0005" data-entity-2="ent0008" data-link-type="dependency" data-source-line="30" id="lnk16"><path d="M271.38,384.2979 C271.38,477.2879 271.38,667.6079 271.38,760.6379" fill="none" id="SM-to-CM" style="stroke:#000000;stroke-width:1;stroke-dasharray:7,7;"/><polygon fill="#000000" points="271.38,766.6379,275.38,757.6379,271.38,761.6379,267.38,757.6379,271.38,766.6379" style="stroke:#000000;stroke-width:1;"/></g><!--link STM to CM--><g class="link" data-entity-1="ent0006" data-entity-2="ent0008" data-link-type="dependency" data-source-line="31" id="lnk17"><path d="M308.87,223.1979 C308.87,344.1279 308.87,640.3379 308.87,760.8279" fill="none" id="STM-to-CM" style="stroke:#000000;stroke-width:1;stroke-dasharray:7,7;"/><polygon fill="#000000" points="308.87,766.8279,312.87,757.8279,308.87,761.8279,304.87,757.8279,308.87,766.8279" style="stroke:#000000;stroke-width:1;"/></g><?plantuml-src TLF1RjD04BtlLmn5I6qKHm8Xr790Qfn4e6AewW2NNhRss5vbFMljZWifuhVu0NwCMIUb9celoIJpvhsPDxFFkC4MeRFQa0eRGvtskeN2jPqZ9CvvQn4y5gofjZY2M4F8smx1UMxSA55YfNlBAqVyIGltkJVQFfxFpHt2orUZPAVBqb0DfqgnOP5Uvpg7kIusI2KaiD95OqtH86IkxAKXrKbErmX7UUTZvTmv_bTmFA2qHozuSjPmSt84FvM2Xn7XQ3AH-RVeatRWd4okAKckAUyCMlITTvMHJcxHVzUMaQxfEBtwifX2taiZmgS3N6RmF3rTladF3gbRpKLpm3p76clggKRwZtRf0wErICAD7EIJDVTX9v4zAH4A5qT_hFqWUoi1VQL362GkUzemJk6ZkSKabyBz0FdJxDA32MoAS2YmJuZJS8Do8mqD4kzHbmcx97vFuPiXGlzY2hFPR2-rVb9BztperGLk2-lq9lb0ZBKNIHT5ravaaw_QcjAW5okdSEMYTJkDSv6OpnVBrVnGGdwqZWv7QUH6IhX0JsY5VR7-BEulVnJOHJs9KqULgNVagP2lLgkpzBLIlvIInSXmxo0U0RoLnrA96NGdRJ7iRoZvi0WglyTb0swt2QYn-VDRy73NGnPlHKL_HZXhCF0kbIoq7Ce381y0kguzreFSmBb7gVDxlJHJbwCu6yNvEBwdbLYHazvk7BDhmLNnBn1x3EtU7PJQLr0QZni6tSSG1M1aHU8WmOKTxWsa00F82KP7130K1nbLEZQL08wfzt1hDCJjofKM64vcAZxTs83w2m00?></g></svg>