<?plantuml 1.2026.2?><svg xmlns="http://www.w3.org/2000/svg" xmlns:xlink="http://www.w3.org/1999/xlink" contentStyleType="text/css" data-diagram-type="SEQUENCE" height="1567.8px" preserveAspectRatio="none" style="width:2515px;height:1567px;background:#FFFFFF;" version="1.1" viewBox="0 0 2515 1567" width="2515.5px" zoomAndPan="magnify"><title>KI-Match-Analyse generieren &#8212; Sequenz (Szenario &#167;6.2)</title><defs/><g><text fill="#000000" font-family="Helvetica" font-size="26" font-weight="bold" lengthAdjust="spacing" textLength="696.4141" x="910.8887" y="39.5205">KI-Match-Analyse generieren &#8212; Sequenz (Szenario &#167;6.2)</text><g><title>Resource Server</title><rect fill="#FFFFFF" height="1141.4" style="stroke:#181818;stroke-width:1.3;" width="13" x="731.5039" y="260"/></g><g><title>MatchAnalysis</title><rect fill="#FFFFFF" height="1063.4" style="stroke:#181818;stroke-width:1.3;" width="13" x="958.8109" y="299"/></g><g><title>MatchAnalysis</title><rect fill="#FFFFFF" height="985.4" style="stroke:#181818;stroke-width:1.3;" width="13" x="1331.3625" y="338"/></g><g><title>LlmClientPort</title><rect fill="#FFFFFF" height="260" style="stroke:#181818;stroke-width:1.3;" width="13" x="2031.5496" y="763.1"/></g><rect fill="none" height="182" style="stroke:#000000;stroke-width:1.95;" width="564.525" x="1941.9664" y="782.6"/><rect fill="none" height="204.1" style="stroke:#000000;stroke-width:1.95;" width="1694.7938" x="637.8734" y="1042.6"/><g class="participant-lifeline" data-entity-uid="part1" data-qualified-name="Coach" id="part1-lifeline"><g><title>Coach</title><rect fill="#000000" fill-opacity="0.00000" height="1305.2" width="10.4" x="35.2625" y="158.6"/><line style="stroke:#181818;stroke-width:0.65;stroke-dasharray:6.5,6.5;" x1="40.3" x2="40.3" y1="158.6" y2="1463.8"/></g></g><g class="participant-lifeline" data-entity-uid="part2" data-qualified-name="FE" id="part2-lifeline"><g><title>Angular SPA</title><rect fill="#000000" fill-opacity="0.00000" height="1305.2" width="10.4" x="404.4828" y="158.6"/><line style="stroke:#181818;stroke-width:0.65;stroke-dasharray:6.5,6.5;" x1="408.6367" x2="408.6367" y1="158.6" y2="1463.8"/></g></g><g class="participant-lifeline" data-entity-uid="part3" data-qualified-name="API" id="part3-lifeline"><g><title>Resource Server</title><rect fill="#000000" fill-opacity="0.00000" height="1305.2" width="10.4" x="732.8039" y="158.6"/><line style="stroke:#181818;stroke-width:0.65;stroke-dasharray:6.5,6.5;" x1="737.9734" x2="737.9734" y1="158.6" y2="1463.8"/></g></g><g class="participant-lifeline" data-entity-uid="part4" data-qualified-name="Ctrl" id="part4-lifeline"><g><title>MatchAnalysis</title><rect fill="#000000" fill-opacity="0.00000" height="1305.2" width="10.4" x="960.1109" y="158.6"/><line style="stroke:#181818;stroke-width:0.65;stroke-dasharray:6.5,6.5;" x1="964.5645" x2="964.5645" y1="158.6" y2="1463.8"/></g></g><g class="participant-lifeline" data-entity-uid="part5" data-qualified-name="Svc" id="part5-lifeline"><g><title>MatchAnalysis</title><rect fill="#000000" fill-opacity="0.00000" height="1305.2" width="10.4" x="1332.6625" y="158.6"/><line style="stroke:#181818;stroke-width:0.65;stroke-dasharray:6.5,6.5;" x1="1337.116" x2="1337.116" y1="158.6" y2="1463.8"/></g></g><g class="participant-lifeline" data-entity-uid="part6" data-qualified-name="Stats" id="part6-lifeline"><g><title>Statistics</title><rect fill="#000000" fill-opacity="0.00000" height="1305.2" width="10.4" x="1708.0375" y="158.6"/><line style="stroke:#181818;stroke-width:0.65;stroke-dasharray:6.5,6.5;" x1="1713.2273" x2="1713.2273" y1="158.6" y2="1463.8"/></g></g><g class="participant-lifeline" data-entity-uid="part7" data-qualified-name="Notes" id="part7-lifeline"><g><title>GetPlayerNotes</title><rect fill="#000000" fill-opacity="0.00000" height="1305.2" width="10.4" x="1854.257" y="158.6"/><line style="stroke:#181818;stroke-width:0.65;stroke-dasharray:6.5,6.5;" x1="1858.8477" x2="1858.8477" y1="158.6" y2="1463.8"/></g></g><g class="participant-lifeline" data-entity-uid="part8" data-qualified-name="Llm" id="part8-lifeline"><g><title>LlmClientPort</title><rect fill="#000000" fill-opacity="0.00000" height="1305.2" width="10.4" x="2032.8496" y="158.6"/><line style="stroke:#181818;stroke-width:0.65;stroke-dasharray:6.5,6.5;" x1="2036.8664" x2="2036.8664" y1="158.6" y2="1463.8"/></g></g><g class="participant-lifeline" data-entity-uid="part9" data-qualified-name="DB" id="part9-lifeline"><g><title>match_analysis</title><rect fill="#000000" fill-opacity="0.00000" height="1305.2" width="10.4" x="2238.8895" y="158.6"/><line style="stroke:#181818;stroke-width:0.65;stroke-dasharray:6.5,6.5;" x1="2243.9117" x2="2243.9117" y1="158.6" y2="1463.8"/></g></g><g class="participant-lifeline" data-entity-uid="part10" data-qualified-name="OpenAI" id="part10-lifeline"><g><title>OpenAI API</title><rect fill="#000000" fill-opacity="0.00000" height="1305.2" width="10.4" x="2424.2715" y="158.6"/><line style="stroke:#181818;stroke-width:0.65;stroke-dasharray:6.5,6.5;" x1="2429.1516" x2="2429.1516" y1="158.6" y2="1463.8"/></g></g><g class="participant participant-head" data-entity-uid="part1" data-qualified-name="Coach" id="part1-head"><text fill="#000000" font-family="Helvetica" font-size="20.8" lengthAdjust="spacing" textLength="60.125" x="6.5" y="153.8164">Coach</text><ellipse cx="40.4625" cy="70.85" fill="#E2E2F0" rx="10.4" ry="10.4" style="stroke:#181818;stroke-width:0.65;"/><path d="M40.4625,81.25 L40.4625,116.35 M23.5625,91.65 L57.3625,91.65 M40.4625,116.35 L23.5625,135.85 M40.4625,116.35 L57.3625,135.85" fill="none" style="stroke:#181818;stroke-width:0.65;"/></g><g class="participant participant-tail" data-entity-uid="part1" data-qualified-name="Coach" id="part1-tail"><text fill="#000000" font-family="Helvetica" font-size="20.8" lengthAdjust="spacing" textLength="60.125" x="6.5" y="1478.5164">Coach</text><ellipse cx="40.4625" cy="1494.35" fill="#E2E2F0" rx="10.4" ry="10.4" style="stroke:#181818;stroke-width:0.65;"/><path d="M40.4625,1504.75 L40.4625,1539.85 M23.5625,1515.15 L57.3625,1515.15 M40.4625,1539.85 L23.5625,1559.35 M40.4625,1539.85 L57.3625,1559.35" fill="none" style="stroke:#181818;stroke-width:0.65;"/></g><g class="participant participant-head" data-entity-uid="part2" data-qualified-name="FE" id="part2-head"><rect fill="#E2E2F0" height="39" rx="3.25" ry="3.25" style="stroke:#181818;stroke-width:0.65;" width="137.2922" x="341.0367" y="118.3"/><text fill="#000000" font-family="Helvetica" font-size="20.8" lengthAdjust="spacing" textLength="119.0922" x="350.1367" y="143.4164">Angular SPA</text></g><g class="participant participant-tail" data-entity-uid="part2" data-qualified-name="FE" id="part2-tail"><rect fill="#E2E2F0" height="39" rx="3.25" ry="3.25" style="stroke:#181818;stroke-width:0.65;" width="137.2922" x="341.0367" y="1462.5"/><text fill="#000000" font-family="Helvetica" font-size="20.8" lengthAdjust="spacing" textLength="119.0922" x="350.1367" y="1487.6164">Angular SPA</text></g><g class="participant participant-head" data-entity-uid="part3" data-qualified-name="API" id="part3-head"><rect fill="#E2E2F0" height="59.8" rx="3.25" ry="3.25" style="stroke:#181818;stroke-width:0.65;" width="174.2609" x="650.8734" y="97.5"/><text fill="#000000" font-family="Helvetica" font-size="20.8" lengthAdjust="spacing" textLength="156.0609" x="659.9734" y="122.6164">Resource Server</text><text fill="#000000" font-family="Helvetica" font-size="20.8" lengthAdjust="spacing" textLength="122.5453" x="676.7313" y="143.4164">(Spring Boot)</text></g><g class="participant participant-tail" data-entity-uid="part3" data-qualified-name="API" id="part3-tail"><rect fill="#E2E2F0" height="59.8" rx="3.25" ry="3.25" style="stroke:#181818;stroke-width:0.65;" width="174.2609" x="650.8734" y="1462.5"/><text fill="#000000" font-family="Helvetica" font-size="20.8" lengthAdjust="spacing" textLength="156.0609" x="659.9734" y="1487.6164">Resource Server</text><text fill="#000000" font-family="Helvetica" font-size="20.8" lengthAdjust="spacing" textLength="122.5453" x="676.7313" y="1508.4164">(Spring Boot)</text></g><g class="participant participant-head" data-entity-uid="part4" data-qualified-name="Ctrl" id="part4-head"><rect fill="#E2E2F0" height="59.8" rx="3.25" ry="3.25" style="stroke:#181818;stroke-width:0.65;" width="152.293" x="889.1645" y="97.5"/><text fill="#000000" font-family="Helvetica" font-size="20.8" lengthAdjust="spacing" textLength="134.093" x="898.2645" y="122.6164">MatchAnalysis</text><text fill="#000000" font-family="Helvetica" font-size="20.8" lengthAdjust="spacing" textLength="90.1672" x="920.2273" y="143.4164">Controller</text></g><g class="participant participant-tail" data-entity-uid="part4" data-qualified-name="Ctrl" id="part4-tail"><rect fill="#E2E2F0" height="59.8" rx="3.25" ry="3.25" style="stroke:#181818;stroke-width:0.65;" width="152.293" x="889.1645" y="1462.5"/><text fill="#000000" font-family="Helvetica" font-size="20.8" lengthAdjust="spacing" textLength="134.093" x="898.2645" y="1487.6164">MatchAnalysis</text><text fill="#000000" font-family="Helvetica" font-size="20.8" lengthAdjust="spacing" textLength="90.1672" x="920.2273" y="1508.4164">Controller</text></g><g class="participant participant-head" data-entity-uid="part5" data-qualified-name="Svc" id="part5-head"><rect fill="#E2E2F0" height="59.8" rx="3.25" ry="3.25" style="stroke:#181818;stroke-width:0.65;" width="152.293" x="1261.716" y="97.5"/><text fill="#000000" font-family="Helvetica" font-size="20.8" lengthAdjust="spacing" textLength="134.093" x="1270.816" y="122.6164">MatchAnalysis</text><text fill="#000000" font-family="Helvetica" font-size="20.8" lengthAdjust="spacing" textLength="69.357" x="1303.184" y="143.4164">Service</text></g><g class="participant participant-tail" data-entity-uid="part5" data-qualified-name="Svc" id="part5-tail"><rect fill="#E2E2F0" height="59.8" rx="3.25" ry="3.25" style="stroke:#181818;stroke-width:0.65;" width="152.293" x="1261.716" y="1462.5"/><text fill="#000000" font-family="Helvetica" font-size="20.8" lengthAdjust="spacing" textLength="134.093" x="1270.816" y="1487.6164">MatchAnalysis</text><text fill="#000000" font-family="Helvetica" font-size="20.8" lengthAdjust="spacing" textLength="69.357" x="1303.184" y="1508.4164">Service</text></g><g class="participant participant-head" data-entity-uid="part6" data-qualified-name="Stats" id="part6-head"><rect fill="#E2E2F0" height="59.8" rx="3.25" ry="3.25" style="stroke:#181818;stroke-width:0.65;" width="101.4203" x="1662.5273" y="97.5"/><text fill="#000000" font-family="Helvetica" font-size="20.8" lengthAdjust="spacing" textLength="83.2203" x="1671.6273" y="122.6164">Statistics</text><text fill="#000000" font-family="Helvetica" font-size="20.8" lengthAdjust="spacing" textLength="69.357" x="1678.559" y="143.4164">Service</text></g><g class="participant participant-tail" data-entity-uid="part6" data-qualified-name="Stats" id="part6-tail"><rect fill="#E2E2F0" height="59.8" rx="3.25" ry="3.25" style="stroke:#181818;stroke-width:0.65;" width="101.4203" x="1662.5273" y="1462.5"/><text fill="#000000" font-family="Helvetica" font-size="20.8" lengthAdjust="spacing" textLength="83.2203" x="1671.6273" y="1487.6164">Statistics</text><text fill="#000000" font-family="Helvetica" font-size="20.8" lengthAdjust="spacing" textLength="69.357" x="1678.559" y="1508.4164">Service</text></g><g class="participant participant-head" data-entity-uid="part7" data-qualified-name="Notes" id="part7-head"><rect fill="#E2E2F0" height="59.8" rx="3.25" ry="3.25" style="stroke:#181818;stroke-width:0.65;" width="165.0188" x="1776.9477" y="97.5"/><text fill="#000000" font-family="Helvetica" font-size="20.8" lengthAdjust="spacing" textLength="146.8188" x="1786.0477" y="122.6164">GetPlayerNotes</text><text fill="#000000" font-family="Helvetica" font-size="20.8" lengthAdjust="spacing" textLength="85.5461" x="1816.684" y="143.4164">UseCase</text></g><g class="participant participant-tail" data-entity-uid="part7" data-qualified-name="Notes" id="part7-tail"><rect fill="#E2E2F0" height="59.8" rx="3.25" ry="3.25" style="stroke:#181818;stroke-width:0.65;" width="165.0188" x="1776.9477" y="1462.5"/><text fill="#000000" font-family="Helvetica" font-size="20.8" lengthAdjust="spacing" textLength="146.8188" x="1786.0477" y="1487.6164">GetPlayerNotes</text><text fill="#000000" font-family="Helvetica" font-size="20.8" lengthAdjust="spacing" textLength="85.5461" x="1816.684" y="1508.4164">UseCase</text></g><g class="participant participant-head" data-entity-uid="part8" data-qualified-name="Llm" id="part8-head"><rect fill="#E2E2F0" height="59.8" rx="3.25" ry="3.25" style="stroke:#181818;stroke-width:0.65;" width="166.1664" x="1954.9664" y="97.5"/><text fill="#000000" font-family="Helvetica" font-size="20.8" lengthAdjust="spacing" textLength="124.8406" x="1975.6293" y="122.6164">LlmClientPort</text><text fill="#000000" font-family="Helvetica" font-size="20.8" lengthAdjust="spacing" textLength="147.9664" x="1964.0664" y="143.4164">(OpenAI / Fake)</text></g><g class="participant participant-tail" data-entity-uid="part8" data-qualified-name="Llm" id="part8-tail"><rect fill="#E2E2F0" height="59.8" rx="3.25" ry="3.25" style="stroke:#181818;stroke-width:0.65;" width="166.1664" x="1954.9664" y="1462.5"/><text fill="#000000" font-family="Helvetica" font-size="20.8" lengthAdjust="spacing" textLength="124.8406" x="1975.6293" y="1487.6164">LlmClientPort</text><text fill="#000000" font-family="Helvetica" font-size="20.8" lengthAdjust="spacing" textLength="147.9664" x="1964.0664" y="1508.4164">(OpenAI / Fake)</text></g><g class="participant participant-head" data-entity-uid="part9" data-qualified-name="DB" id="part9-head"><text fill="#000000" font-family="Helvetica" font-size="20.8" lengthAdjust="spacing" textLength="143.3555" x="2168.5117" y="153.8164">match_analysis</text><path d="M2220.6895,91 C2220.6895,78 2244.0895,78 2244.0895,78 C2244.0895,78 2267.4895,78 2267.4895,91 L2267.4895,124.8 C2267.4895,137.8 2244.0895,137.8 2244.0895,137.8 C2244.0895,137.8 2220.6895,137.8 2220.6895,124.8 L2220.6895,91" fill="#E2E2F0" style="stroke:#181818;stroke-width:0.65;"/><path d="M2220.6895,91 C2220.6895,104 2244.0895,104 2244.0895,104 C2244.0895,104 2267.4895,104 2267.4895,91" fill="none" style="stroke:#181818;stroke-width:0.65;"/></g><g class="participant participant-tail" data-entity-uid="part9" data-qualified-name="DB" id="part9-tail"><text fill="#000000" font-family="Helvetica" font-size="20.8" lengthAdjust="spacing" textLength="143.3555" x="2168.5117" y="1478.5164">match_analysis</text><path d="M2220.6895,1496.3 C2220.6895,1483.3 2244.0895,1483.3 2244.0895,1483.3 C2244.0895,1483.3 2267.4895,1483.3 2267.4895,1496.3 L2267.4895,1530.1 C2267.4895,1543.1 2244.0895,1543.1 2244.0895,1543.1 C2244.0895,1543.1 2220.6895,1543.1 2220.6895,1530.1 L2220.6895,1496.3" fill="#E2E2F0" style="stroke:#181818;stroke-width:0.65;"/><path d="M2220.6895,1496.3 C2220.6895,1509.3 2244.0895,1509.3 2244.0895,1509.3 C2244.0895,1509.3 2267.4895,1509.3 2267.4895,1496.3" fill="none" style="stroke:#181818;stroke-width:0.65;"/></g><g class="participant participant-head" data-entity-uid="part10" data-qualified-name="OpenAI" id="part10-head"><rect fill="#E2E2F0" height="39" rx="3.25" ry="3.25" style="stroke:#181818;stroke-width:0.65;" width="128.0398" x="2365.4516" y="118.3"/><text fill="#000000" font-family="Helvetica" font-size="20.8" lengthAdjust="spacing" textLength="109.8398" x="2374.5516" y="143.4164">OpenAI API</text></g><g class="participant participant-tail" data-entity-uid="part10" data-qualified-name="OpenAI" id="part10-tail"><rect fill="#E2E2F0" height="39" rx="3.25" ry="3.25" style="stroke:#181818;stroke-width:0.65;" width="128.0398" x="2365.4516" y="1462.5"/><text fill="#000000" font-family="Helvetica" font-size="20.8" lengthAdjust="spacing" textLength="109.8398" x="2374.5516" y="1487.6164">OpenAI API</text></g><g><title>Resource Server</title><rect fill="#FFFFFF" height="1141.4" style="stroke:#181818;stroke-width:1.3;" width="13" x="731.5039" y="260"/></g><g><title>MatchAnalysis</title><rect fill="#FFFFFF" height="1063.4" style="stroke:#181818;stroke-width:1.3;" width="13" x="958.8109" y="299"/></g><g><title>MatchAnalysis</title><rect fill="#FFFFFF" height="985.4" style="stroke:#181818;stroke-width:1.3;" width="13" x="1331.3625" y="338"/></g><g><title>LlmClientPort</title><rect fill="#FFFFFF" height="260" style="stroke:#181818;stroke-width:1.3;" width="13" x="2031.5496" y="763.1"/></g><g class="message" data-entity-1="part1" data-entity-2="part2" id="msg1"><polygon fill="#181818" points="394.0828,195,407.0828,200.2,394.0828,205.4,399.2828,200.2" style="stroke:#181818;stroke-width:1.3;"/><line style="stroke:#181818;stroke-width:1.3;" x1="40.4625" x2="401.8828" y1="200.2" y2="200.2"/><text fill="#000000" font-family="Helvetica" font-size="20.8" lengthAdjust="spacing" textLength="338.0203" x="56.0625" y="192.8164">Klick &#8222;Taktische Analyse generieren"</text></g><g class="message" data-entity-1="part2" data-entity-2="part3" id="msg2"><polygon fill="#181818" points="715.9039,254.8,728.9039,260,715.9039,265.2,721.1039,260" style="stroke:#181818;stroke-width:1.3;"/><line style="stroke:#181818;stroke-width:1.3;" x1="409.6828" x2="723.7039" y1="260" y2="260"/><text fill="#000000" font-family="Helvetica" font-size="20.8" lengthAdjust="spacing" textLength="297.1211" x="422.0328" y="231.8164">POST /api/matches/{id}/analysis</text><text fill="#000000" font-family="Helvetica" font-size="20.8" lengthAdjust="spacing" textLength="268.2063" x="436.4902" y="252.6164">Authorization: Bearer &lt;JWT&gt;</text></g><g class="message" data-entity-1="part3" data-entity-2="part4" id="msg3"><polygon fill="#181818" points="943.2109,293.8,956.2109,299,943.2109,304.2,948.4109,299" style="stroke:#181818;stroke-width:1.3;"/><line style="stroke:#181818;stroke-width:1.3;" x1="744.5039" x2="951.0109" y1="299" y2="299"/><text fill="#000000" font-family="Helvetica" font-size="20.8" lengthAdjust="spacing" textLength="189.607" x="756.8539" y="291.6164">generateAnalysis(id)</text></g><g class="message" data-entity-1="part4" data-entity-2="part5" id="msg4"><polygon fill="#181818" points="1315.7625,332.8,1328.7625,338,1315.7625,343.2,1320.9625,338" style="stroke:#181818;stroke-width:1.3;"/><line style="stroke:#181818;stroke-width:1.3;" x1="971.8109" x2="1323.5625" y1="338" y2="338"/><text fill="#000000" font-family="Helvetica" font-size="20.8" lengthAdjust="spacing" textLength="169.9547" x="1066.6094" y="330.6164">generate(matchId)</text></g><g class="message" data-entity-1="part5" data-entity-2="part5" id="msg5"><line style="stroke:#181818;stroke-width:1.3;" x1="1344.3625" x2="1398.9625" y1="397.8" y2="397.8"/><line style="stroke:#181818;stroke-width:1.3;" x1="1398.9625" x2="1398.9625" y1="397.8" y2="414.7"/><line style="stroke:#181818;stroke-width:1.3;" x1="1345.6625" x2="1398.9625" y1="414.7" y2="414.7"/><polygon fill="#181818" points="1358.6625,409.5,1345.6625,414.7,1358.6625,419.9,1353.4625,414.7" style="stroke:#181818;stroke-width:1.3;"/><text fill="#000000" font-family="Helvetica" font-size="20.8" lengthAdjust="spacing" textLength="331.175" x="1353.4625" y="369.6164">assert MatchStatus = COMPLETED</text><text fill="#000000" font-family="Helvetica" font-size="20.8" lengthAdjust="spacing" textLength="78.6398" x="1479.7301" y="390.4164">else 409</text></g><g class="message" data-entity-1="part5" data-entity-2="part6" id="msg6"><polygon fill="#181818" points="1697.6375,448.5,1710.6375,453.7,1697.6375,458.9,1702.8375,453.7" style="stroke:#181818;stroke-width:1.3;"/><line style="stroke:#181818;stroke-width:1.3;" x1="1344.3625" x2="1705.4375" y1="453.7" y2="453.7"/><text fill="#000000" font-family="Helvetica" font-size="20.8" lengthAdjust="spacing" textLength="167.6188" x="1444.9906" y="446.3164">compute(matchId)</text></g><g class="message" data-entity-1="part6" data-entity-2="part5" id="msg7"><polygon fill="#181818" points="1358.6625,487.5,1345.6625,492.7,1358.6625,497.9,1353.4625,492.7" style="stroke:#181818;stroke-width:1.3;"/><line style="stroke:#181818;stroke-width:1.3;stroke-dasharray:2.6,2.6;" x1="1350.8625" x2="1711.9375" y1="492.7" y2="492.7"/><text fill="#000000" font-family="Helvetica" font-size="20.8" lengthAdjust="spacing" textLength="139.8617" x="1458.8691" y="485.3164">MatchStatistics</text></g><g class="message" data-entity-1="part5" data-entity-2="part5" id="msg8"><line style="stroke:#181818;stroke-width:1.3;" x1="1344.3625" x2="1398.9625" y1="552.5" y2="552.5"/><line style="stroke:#181818;stroke-width:1.3;" x1="1398.9625" x2="1398.9625" y1="552.5" y2="569.4"/><line style="stroke:#181818;stroke-width:1.3;" x1="1345.6625" x2="1398.9625" y1="569.4" y2="569.4"/><polygon fill="#181818" points="1358.6625,564.2,1345.6625,569.4,1358.6625,574.6,1353.4625,569.4" style="stroke:#181818;stroke-width:1.3;"/><text fill="#000000" font-family="Helvetica" font-size="20.8" lengthAdjust="spacing" textLength="205.6539" x="1353.4625" y="524.3164">assert totalPoints &#8805; 10</text><text fill="#000000" font-family="Helvetica" font-size="20.8" lengthAdjust="spacing" textLength="78.6398" x="1416.9695" y="545.1164">else 422</text></g><g class="message" data-entity-1="part5" data-entity-2="part7" id="msg9"><polygon fill="#181818" points="1843.857,603.2,1856.857,608.4,1843.857,613.6,1849.057,608.4" style="stroke:#181818;stroke-width:1.3;"/><line style="stroke:#181818;stroke-width:1.3;" x1="1344.3625" x2="1851.657" y1="608.4" y2="608.4"/><text fill="#000000" font-family="Helvetica" font-size="20.8" lengthAdjust="spacing" textLength="168.7563" x="1517.5316" y="601.0164">forMatch(matchId)</text></g><g class="message" data-entity-1="part7" data-entity-2="part5" id="msg10"><polygon fill="#181818" points="1358.6625,642.2,1345.6625,647.4,1358.6625,652.6,1353.4625,647.4" style="stroke:#181818;stroke-width:1.3;"/><line style="stroke:#181818;stroke-width:1.3;stroke-dasharray:2.6,2.6;" x1="1350.8625" x2="1858.157" y1="647.4" y2="647.4"/><text fill="#000000" font-family="Helvetica" font-size="20.8" lengthAdjust="spacing" textLength="265.8906" x="1468.9645" y="640.0164">List&lt;MatchPlayerNote&gt; (0-2)</text></g><g class="message" data-entity-1="part5" data-entity-2="part5" id="msg11"><line style="stroke:#181818;stroke-width:1.3;" x1="1344.3625" x2="1398.9625" y1="707.2" y2="707.2"/><line style="stroke:#181818;stroke-width:1.3;" x1="1398.9625" x2="1398.9625" y1="707.2" y2="724.1"/><line style="stroke:#181818;stroke-width:1.3;" x1="1345.6625" x2="1398.9625" y1="724.1" y2="724.1"/><polygon fill="#181818" points="1358.6625,718.9,1345.6625,724.1,1358.6625,729.3,1353.4625,724.1" style="stroke:#181818;stroke-width:1.3;"/><text fill="#000000" font-family="Helvetica" font-size="20.8" lengthAdjust="spacing" textLength="239.2914" x="1353.4625" y="679.0164">Coach-Notizen in Prompt-</text><text fill="#000000" font-family="Helvetica" font-size="20.8" lengthAdjust="spacing" textLength="238.1742" x="1354.0211" y="699.8164">Kontext einbetten (FA-22)</text></g><g class="message" data-entity-1="part5" data-entity-2="part8" id="msg12"><polygon fill="#181818" points="2015.9496,757.9,2028.9496,763.1,2015.9496,768.3,2021.1496,763.1" style="stroke:#181818;stroke-width:1.3;"/><line style="stroke:#181818;stroke-width:1.3;" x1="1344.3625" x2="2023.7496" y1="763.1" y2="763.1"/><text fill="#000000" font-family="Helvetica" font-size="20.8" lengthAdjust="spacing" textLength="426.0242" x="1474.9439" y="755.7164">generateAnalysis(stats, playerMeta + Notizen)</text></g><path d="M1941.9664,782.6 L2024.7398,782.6 L2024.7398,793 L2011.7398,806 L1941.9664,806 L1941.9664,782.6" fill="#EEEEEE" style="stroke:#000000;stroke-width:1.95;"/><rect fill="none" height="182" style="stroke:#000000;stroke-width:1.95;" width="564.525" x="1941.9664" y="782.6"/><text fill="#000000" font-family="Helvetica" font-size="20.8" font-weight="bold" lengthAdjust="spacing" textLength="24.2734" x="1961.4664" y="799.9164">alt</text><text fill="#000000" font-family="Helvetica" font-size="20.8" font-weight="bold" lengthAdjust="spacing" textLength="214.9469" x="2044.2398" y="801.2164">[API-Key konfiguriert]</text><g class="message" data-entity-1="part8" data-entity-2="part10" id="msg13"><polygon fill="#181818" points="2413.8715,830.7,2426.8715,835.9,2413.8715,841.1,2419.0715,835.9" style="stroke:#181818;stroke-width:1.3;"/><line style="stroke:#181818;stroke-width:1.3;" x1="2044.5496" x2="2421.6715" y1="835.9" y2="835.9"/><text fill="#000000" font-family="Helvetica" font-size="20.8" lengthAdjust="spacing" textLength="353.7219" x="2060.1496" y="828.5164">ChatClient.entity(MatchAnalysis.class)</text></g><g class="message" data-entity-1="part10" data-entity-2="part8" id="msg14"><polygon fill="#181818" points="2058.8496,869.7,2045.8496,874.9,2058.8496,880.1,2053.6496,874.9" style="stroke:#181818;stroke-width:1.3;"/><line style="stroke:#181818;stroke-width:1.3;stroke-dasharray:2.6,2.6;" x1="2051.0496" x2="2428.1715" y1="874.9" y2="874.9"/><text fill="#000000" font-family="Helvetica" font-size="20.8" lengthAdjust="spacing" textLength="153.7352" x="2160.143" y="867.5164">structured JSON</text></g><line style="stroke:#000000;stroke-width:1.3;stroke-dasharray:2.6,2.6;" x1="1941.9664" x2="2506.4914" y1="886.6" y2="886.6"/><text fill="#000000" font-family="Helvetica" font-size="20.8" font-weight="bold" lengthAdjust="spacing" textLength="141.0094" x="1948.4664" y="902.6164">[kein API-Key]</text><g class="message" data-entity-1="part8" data-entity-2="part8" id="msg15"><line style="stroke:#181818;stroke-width:1.3;" x1="2044.5496" x2="2099.1496" y1="937.3" y2="937.3"/><line style="stroke:#181818;stroke-width:1.3;" x1="2099.1496" x2="2099.1496" y1="937.3" y2="954.2"/><line style="stroke:#181818;stroke-width:1.3;" x1="2045.8496" x2="2099.1496" y1="954.2" y2="954.2"/><polygon fill="#181818" points="2058.8496,949,2045.8496,954.2,2058.8496,959.4,2053.6496,954.2" style="stroke:#181818;stroke-width:1.3;"/><text fill="#000000" font-family="Helvetica" font-size="20.8" lengthAdjust="spacing" textLength="161.8398" x="2053.6496" y="929.9164">deterministic stub</text></g><g class="message" data-entity-1="part8" data-entity-2="part5" id="msg16"><polygon fill="#181818" points="1358.6625,1017.9,1345.6625,1023.1,1358.6625,1028.3,1353.4625,1023.1" style="stroke:#181818;stroke-width:1.3;"/><line style="stroke:#181818;stroke-width:1.3;stroke-dasharray:2.6,2.6;" x1="1350.8625" x2="2036.7496" y1="1023.1" y2="1023.1"/><text fill="#000000" font-family="Helvetica" font-size="20.8" lengthAdjust="spacing" textLength="294.7242" x="1543.8439" y="994.9164">MatchAnalysis (COMPLETED) /</text><text fill="#000000" font-family="Helvetica" font-size="20.8" lengthAdjust="spacing" textLength="138.7547" x="1627.6076" y="1015.7164">oder Exception</text></g><path d="M637.8734,1042.6 L720.6469,1042.6 L720.6469,1053 L707.6469,1066 L637.8734,1066 L637.8734,1042.6" fill="#EEEEEE" style="stroke:#000000;stroke-width:1.95;"/><rect fill="none" height="204.1" style="stroke:#000000;stroke-width:1.95;" width="1694.7938" x="637.8734" y="1042.6"/><text fill="#000000" font-family="Helvetica" font-size="20.8" font-weight="bold" lengthAdjust="spacing" textLength="24.2734" x="657.3734" y="1059.9164">alt</text><text fill="#000000" font-family="Helvetica" font-size="20.8" font-weight="bold" lengthAdjust="spacing" textLength="121.3469" x="740.1469" y="1061.2164">[erfolgreich]</text><g class="message" data-entity-1="part5" data-entity-2="part9" id="msg17"><polygon fill="#181818" points="2228.4895,1090.7,2241.4895,1095.9,2228.4895,1101.1,2233.6895,1095.9" style="stroke:#181818;stroke-width:1.3;"/><line style="stroke:#181818;stroke-width:1.3;" x1="1344.3625" x2="2236.2895" y1="1095.9" y2="1095.9"/><text fill="#000000" font-family="Helvetica" font-size="20.8" lengthAdjust="spacing" textLength="443.8484" x="1572.3018" y="1088.5164">UPSERT match_analysis (status COMPLETED)</text></g><line style="stroke:#000000;stroke-width:1.3;stroke-dasharray:2.6,2.6;" x1="637.8734" x2="2332.6672" y1="1107.6" y2="1107.6"/><text fill="#000000" font-family="Helvetica" font-size="20.8" font-weight="bold" lengthAdjust="spacing" textLength="125.9375" x="644.3734" y="1123.6164">[LLM-Fehler]</text><g class="message" data-entity-1="part5" data-entity-2="part9" id="msg18"><polygon fill="#181818" points="2228.4895,1153.1,2241.4895,1158.3,2228.4895,1163.5,2233.6895,1158.3" style="stroke:#181818;stroke-width:1.3;"/><line style="stroke:#181818;stroke-width:1.3;" x1="1344.3625" x2="2236.2895" y1="1158.3" y2="1158.3"/><text fill="#000000" font-family="Helvetica" font-size="20.8" lengthAdjust="spacing" textLength="527.0992" x="1530.6764" y="1150.9164">UPSERT match_analysis (status FAILED, errorMessage)</text></g><g class="message" data-entity-1="part5" data-entity-2="part4" id="msg19"><polygon fill="#181818" points="986.1109,1192.1,973.1109,1197.3,986.1109,1202.5,980.9109,1197.3" style="stroke:#181818;stroke-width:1.3;"/><line style="stroke:#181818;stroke-width:1.3;" x1="978.3109" x2="1330.0625" y1="1197.3" y2="1197.3"/><text fill="#000000" font-family="Helvetica" font-size="20.8" lengthAdjust="spacing" textLength="328.3516" x="987.4109" y="1189.9164">throw AnalysisGenerationException</text></g><g class="message" data-entity-1="part4" data-entity-2="part3" id="msg20"><polygon fill="#181818" points="758.8039,1231.1,745.8039,1236.3,758.8039,1241.5,753.6039,1236.3" style="stroke:#181818;stroke-width:1.3;"/><line style="stroke:#181818;stroke-width:1.3;stroke-dasharray:2.6,2.6;" x1="751.0039" x2="957.5109" y1="1236.3" y2="1236.3"/><text fill="#000000" font-family="Helvetica" font-size="20.8" lengthAdjust="spacing" textLength="171.1125" x="766.1012" y="1228.9164">502 ProblemDetail</text></g><g class="message" data-entity-1="part9" data-entity-2="part5" id="msg21"><polygon fill="#181818" points="1358.6625,1279.2,1345.6625,1284.4,1358.6625,1289.6,1353.4625,1284.4" style="stroke:#181818;stroke-width:1.3;"/><line style="stroke:#181818;stroke-width:1.3;stroke-dasharray:2.6,2.6;" x1="1350.8625" x2="2242.7895" y1="1284.4" y2="1284.4"/><text fill="#000000" font-family="Helvetica" font-size="20.8" lengthAdjust="spacing" textLength="84.3984" x="1752.0268" y="1277.0164">persisted</text></g><g class="message" data-entity-1="part5" data-entity-2="part4" id="msg22"><polygon fill="#181818" points="986.1109,1318.2,973.1109,1323.4,986.1109,1328.6,980.9109,1323.4" style="stroke:#181818;stroke-width:1.3;"/><line style="stroke:#181818;stroke-width:1.3;stroke-dasharray:2.6,2.6;" x1="978.3109" x2="1336.5625" y1="1323.4" y2="1323.4"/><text fill="#000000" font-family="Helvetica" font-size="20.8" lengthAdjust="spacing" textLength="227.7539" x="1040.9598" y="1316.0164">MatchAnalysisResponse</text></g><g class="message" data-entity-1="part4" data-entity-2="part3" id="msg23"><polygon fill="#181818" points="758.8039,1357.2,745.8039,1362.4,758.8039,1367.6,753.6039,1362.4" style="stroke:#181818;stroke-width:1.3;"/><line style="stroke:#181818;stroke-width:1.3;stroke-dasharray:2.6,2.6;" x1="751.0039" x2="964.0109" y1="1362.4" y2="1362.4"/><text fill="#000000" font-family="Helvetica" font-size="20.8" lengthAdjust="spacing" textLength="149.7133" x="780.0508" y="1355.0164">200 OK + JSON</text></g><g class="message" data-entity-1="part3" data-entity-2="part2" id="msg24"><polygon fill="#181818" points="423.9828,1396.2,410.9828,1401.4,423.9828,1406.6,418.7828,1401.4" style="stroke:#181818;stroke-width:1.3;"/><line style="stroke:#181818;stroke-width:1.3;stroke-dasharray:2.6,2.6;" x1="416.1828" x2="736.7039" y1="1401.4" y2="1401.4"/><text fill="#000000" font-family="Helvetica" font-size="20.8" lengthAdjust="spacing" textLength="132.407" x="507.6398" y="1394.0164">200 + Analyse</text></g><g class="message" data-entity-1="part2" data-entity-2="part1" id="msg25"><polygon fill="#181818" points="54.7625,1435.2,41.7625,1440.4,54.7625,1445.6,49.5625,1440.4" style="stroke:#181818;stroke-width:1.3;"/><line style="stroke:#181818;stroke-width:1.3;" x1="46.9625" x2="408.3828" y1="1440.4" y2="1440.4"/><text fill="#000000" font-family="Helvetica" font-size="20.8" lengthAdjust="spacing" textLength="267.6781" x="91.2336" y="1433.0164">5 Textfelder + Empfehlungen</text></g><?plantuml-src bLLDZnf74BtFhoZj2RIU1PFOKYnd9POF1mCByc3bWXJrpXJGekcUTDUilHj5yjNtd7EByZ_oK_nBKjq3p8ozYfG31wXNhpxUwu8aAOJf99uBIdTnNmlru12sgD5AjAZXowS_8C5V2zIFq4eUKGih3VppzykhNZkAN2eu__dLTv7RIvqBAmxW0Zh5EJedjjXNSgiXHKrewwYToCm7gRUm4SfXBPBXHXIAnaRJhJWW_8Jg7accucbC8X-vWvUr8FcXpg5UDuf4IiR2m8Xq5p66oMGkDC55NsyB9Imao_u520VZKJF-3fqfR8gy0dkFTgrRIMvzqpV6K3kaz9UJPavOPRb9wTPwm8rOenJQ01-GLV-9zvLaYW6StATDR4A2fEFlNmFvTzU4la5QAl60zjOGClozmu5m9Jpyr8JFr66W9AkqD9PupaMEkZ-13ep57ij96H9bWiGTqy35mRVzYpZs7G33coRdaOCt5CBbroWAEa1ypTk6Lp1LCjsppVvSYJtFbkuGlhNXHSHOpc0gJbakaXLqH2uxeGbqdTzazdj7d7VOBsXdh7paPHdz2cvGMBJm-ktFgsll1Nal28DmdezflIZC6-fnw2H6IsRj2X-K2qZEO6Lg2QtGnwIEzj9vq1ahd4DB4DJsSXKEVeJ1OhwSZLQZuLeZlmBulll3ESjBodcfEUH5lKGPYC_4PyRI64zM9KD2BOtKdFdbyr_ml7igsEkT4e8fE6LZRA2iAfQHgkACAxqEcCfXrz3gndmI6jM3qZ67-I5ga1gMbgUXUAsd_2hm8m5AVOT476sD-t6l8c2pFQM8yyC_WppKdIC9k8GZVstvtgb2aPSudk83x8tUo6tXlKGH16ukSRGdjxaJL9h_YZ-I7bgDDtcLAbvZcnEF6V6vFqUsIAcmcC7RP74RXPtkUQXJwQfQcP0Xdy63r44hJY_k8jHP531DHK_LeNKsIHiwQmrWCZRpw6EAkRTtbE4tSwFT6BMrAFdU0HmtEhnXwlVBPFHk1St72s6jRCYgKZd9R3QFnxZZs_M_QCRzoMmqVCPjMFPI-JVGhXYEhursrdo0qvXlIgLve6eoAA7n-U6_wFQyXUuK7eQilLHXUTnHjRiSBRCHPgMHgdADfV9TputclvtQyloB_QfUhzk5nPGj5iIjOSCj2CVZTCOyzF9qkUfGVsRAurNUFPu2Lcpz3IgluoMC3lc6TrneDlk_?></g></svg>