<?plantuml 1.2026.2?><svg xmlns="http://www.w3.org/2000/svg" xmlns:xlink="http://www.w3.org/1999/xlink" contentStyleType="text/css" data-diagram-type="SEQUENCE" height="1088px" preserveAspectRatio="none" style="width:1929px;height:1088px;background:#FFFFFF;" version="1.1" viewBox="0 0 1929 1088" width="1929px" zoomAndPan="magnify"><title>KI-Match-Analyse generieren &#8212; Sequenz (Szenario &#167;6.2)</title><defs/><g><text fill="#000000" font-family="Helvetica" font-size="14" font-weight="bold" lengthAdjust="spacing" textLength="374.9922" x="778.3843" y="25.7803">KI-Match-Analyse generieren &#8212; Sequenz (Szenario &#167;6.2)</text><g><title>Spring Boot</title><rect fill="#FFFFFF" height="782" style="stroke:#181818;stroke-width:1;" width="10" x="468.1978" y="183"/></g><g><title>MatchAnalysisController</title><rect fill="#FFFFFF" height="728" style="stroke:#181818;stroke-width:1;" width="10" x="620.1904" y="210"/></g><g><title>MatchAnalysisService</title><rect fill="#FFFFFF" height="674" style="stroke:#181818;stroke-width:1;" width="10" x="859.4102" y="237"/></g><g><title>LlmClientPort</title><rect fill="#FFFFFF" height="176" style="stroke:#181818;stroke-width:1;" width="10" x="1514.1001" y="531"/></g><rect fill="none" height="122" style="stroke:#000000;stroke-width:1.5;" width="559.5566" x="1363.2041" y="546"/><rect fill="none" height="136" style="stroke:#000000;stroke-width:1.5;" width="1383.8081" x="403.6772" y="722"/><g class="participant-lifeline" data-entity-uid="part1" data-qualified-name="Coach" id="part1-lifeline"><g><title>Coach</title><rect fill="#000000" fill-opacity="0.00000" height="896" width="8" x="24.2344" y="114"/><line style="stroke:#181818;stroke-width:0.5;stroke-dasharray:5,5;" x1="28" x2="28" y1="114" y2="1010"/></g></g><g class="participant-lifeline" data-entity-uid="part2" data-qualified-name="FE" id="part2-lifeline"><g><title>Angular SPA</title><rect fill="#000000" fill-opacity="0.00000" height="896" width="8" x="259.4971" y="114"/><line style="stroke:#181818;stroke-width:0.5;stroke-dasharray:5,5;" x1="263.1523" x2="263.1523" y1="114" y2="1010"/></g></g><g class="participant-lifeline" data-entity-uid="part3" data-qualified-name="API" id="part3-lifeline"><g><title>Spring Boot</title><rect fill="#000000" fill-opacity="0.00000" height="896" width="8" x="469.1978" y="114"/><line style="stroke:#181818;stroke-width:0.5;stroke-dasharray:5,5;" x1="472.6772" x2="472.6772" y1="114" y2="1010"/></g></g><g class="participant-lifeline" data-entity-uid="part4" data-qualified-name="Ctrl" id="part4-lifeline"><g><title>MatchAnalysisController</title><rect fill="#000000" fill-opacity="0.00000" height="896" width="8" x="621.1904" y="114"/><line style="stroke:#181818;stroke-width:0.5;stroke-dasharray:5,5;" x1="624.7183" x2="624.7183" y1="114" y2="1010"/></g></g><g class="participant-lifeline" data-entity-uid="part5" data-qualified-name="Svc" id="part5-lifeline"><g><title>MatchAnalysisService</title><rect fill="#000000" fill-opacity="0.00000" height="896" width="8" x="860.4102" y="114"/><line style="stroke:#181818;stroke-width:0.5;stroke-dasharray:5,5;" x1="863.9414" x2="863.9414" y1="114" y2="1010"/></g></g><g class="participant-lifeline" data-entity-uid="part6" data-qualified-name="Stats" id="part6-lifeline"><g><title>MatchStatisticsService</title><rect fill="#000000" fill-opacity="0.00000" height="896" width="8" x="1101.3945" y="114"/><line style="stroke:#181818;stroke-width:0.5;stroke-dasharray:5,5;" x1="1104.9844" x2="1104.9844" y1="114" y2="1010"/></g></g><g class="participant-lifeline" data-entity-uid="part7" data-qualified-name="Notes" id="part7-lifeline"><g><title>GetPlayerNotesUseCase</title><rect fill="#000000" fill-opacity="0.00000" height="896" width="8" x="1274.0044" y="114"/><line style="stroke:#181818;stroke-width:0.5;stroke-dasharray:5,5;" x1="1277.8047" x2="1277.8047" y1="114" y2="1010"/></g></g><g class="participant-lifeline" data-entity-uid="part8" data-qualified-name="Llm" id="part8-lifeline"><g><title>LlmClientPort</title><rect fill="#000000" fill-opacity="0.00000" height="896" width="8" x="1515.1001" y="114"/><line style="stroke:#181818;stroke-width:0.5;stroke-dasharray:5,5;" x1="1518.2041" x2="1518.2041" y1="114" y2="1010"/></g></g><g class="participant-lifeline" data-entity-uid="part9" data-qualified-name="DB" id="part9-lifeline"><g><title>match_analysis</title><rect fill="#000000" fill-opacity="0.00000" height="896" width="8" x="1722.2407" y="114"/><line style="stroke:#181818;stroke-width:0.5;stroke-dasharray:5,5;" x1="1725.9961" x2="1725.9961" y1="114" y2="1010"/></g></g><g class="participant-lifeline" data-entity-uid="part10" data-qualified-name="OpenAI" id="part10-lifeline"><g><title>OpenAI</title><rect fill="#000000" fill-opacity="0.00000" height="896" width="8" x="1846.123" y="114"/><line style="stroke:#181818;stroke-width:0.5;stroke-dasharray:5,5;" x1="1849.4854" x2="1849.4854" y1="114" y2="1010"/></g></g><g class="participant participant-head" data-entity-uid="part1" data-qualified-name="Coach" id="part1-head"><text fill="#000000" font-family="Helvetica" font-size="14" lengthAdjust="spacing" textLength="40.4688" x="5" y="110.7803">Coach</text><ellipse cx="28.2344" cy="48.5" fill="#E2E2F0" rx="8" ry="8" style="stroke:#181818;stroke-width:0.5;"/><path d="M28.2344,56.5 L28.2344,83.5 M15.2344,64.5 L41.2344,64.5 M28.2344,83.5 L15.2344,98.5 M28.2344,83.5 L41.2344,98.5" fill="none" style="stroke:#181818;stroke-width:0.5;"/></g><g class="participant participant-tail" data-entity-uid="part1" data-qualified-name="Coach" id="part1-tail"><text fill="#000000" font-family="Helvetica" font-size="14" lengthAdjust="spacing" textLength="40.4688" x="5" y="1019.7803">Coach</text><ellipse cx="28.2344" cy="1031.5" fill="#E2E2F0" rx="8" ry="8" style="stroke:#181818;stroke-width:0.5;"/><path d="M28.2344,1039.5 L28.2344,1066.5 M15.2344,1047.5 L41.2344,1047.5 M28.2344,1066.5 L15.2344,1081.5 M28.2344,1066.5 L41.2344,1081.5" fill="none" style="stroke:#181818;stroke-width:0.5;"/></g><g class="participant participant-head" data-entity-uid="part2" data-qualified-name="FE" id="part2-head"><rect fill="#E2E2F0" height="42" rx="2.5" ry="2.5" style="stroke:#181818;stroke-width:0.5;" width="116.6895" x="205.1523" y="71"/><text fill="#000000" font-family="Helvetica" font-size="14" lengthAdjust="spacing" textLength="80.1582" x="223.418" y="88.7803">Angular SPA</text><text fill="#000000" font-family="Helvetica" font-size="14" lengthAdjust="spacing" textLength="102.6895" x="212.1523" y="102.7803">(match-analysis)</text></g><g class="participant participant-tail" data-entity-uid="part2" data-qualified-name="FE" id="part2-tail"><rect fill="#E2E2F0" height="42" rx="2.5" ry="2.5" style="stroke:#181818;stroke-width:0.5;" width="116.6895" x="205.1523" y="1009"/><text fill="#000000" font-family="Helvetica" font-size="14" lengthAdjust="spacing" textLength="80.1582" x="223.418" y="1026.7803">Angular SPA</text><text fill="#000000" font-family="Helvetica" font-size="14" lengthAdjust="spacing" textLength="102.6895" x="212.1523" y="1040.7803">(match-analysis)</text></g><g class="participant participant-head" data-entity-uid="part3" data-qualified-name="API" id="part3-head"><rect fill="#E2E2F0" height="42" rx="2.5" ry="2.5" style="stroke:#181818;stroke-width:0.5;" width="119.041" x="413.6772" y="71"/><text fill="#000000" font-family="Helvetica" font-size="14" lengthAdjust="spacing" textLength="73.1582" x="436.6187" y="88.7803">Spring Boot</text><text fill="#000000" font-family="Helvetica" font-size="14" lengthAdjust="spacing" textLength="105.041" x="420.6772" y="102.7803">Resource Server</text></g><g class="participant participant-tail" data-entity-uid="part3" data-qualified-name="API" id="part3-tail"><rect fill="#E2E2F0" height="42" rx="2.5" ry="2.5" style="stroke:#181818;stroke-width:0.5;" width="119.041" x="413.6772" y="1009"/><text fill="#000000" font-family="Helvetica" font-size="14" lengthAdjust="spacing" textLength="73.1582" x="436.6187" y="1026.7803">Spring Boot</text><text fill="#000000" font-family="Helvetica" font-size="14" lengthAdjust="spacing" textLength="105.041" x="420.6772" y="1040.7803">Resource Server</text></g><g class="participant participant-head" data-entity-uid="part4" data-qualified-name="Ctrl" id="part4-head"><rect fill="#E2E2F0" height="42" rx="2.5" ry="2.5" style="stroke:#181818;stroke-width:0.5;" width="164.9443" x="542.7183" y="71"/><text fill="#000000" font-family="Helvetica" font-size="14" lengthAdjust="spacing" textLength="150.9443" x="549.7183" y="88.7803">MatchAnalysisController</text><text fill="#000000" font-family="Helvetica" font-size="14" lengthAdjust="spacing" textLength="100.3721" x="575.0044" y="102.7803">(ai-module/web)</text></g><g class="participant participant-tail" data-entity-uid="part4" data-qualified-name="Ctrl" id="part4-tail"><rect fill="#E2E2F0" height="42" rx="2.5" ry="2.5" style="stroke:#181818;stroke-width:0.5;" width="164.9443" x="542.7183" y="1009"/><text fill="#000000" font-family="Helvetica" font-size="14" lengthAdjust="spacing" textLength="150.9443" x="549.7183" y="1026.7803">MatchAnalysisController</text><text fill="#000000" font-family="Helvetica" font-size="14" lengthAdjust="spacing" textLength="100.3721" x="575.0044" y="1040.7803">(ai-module/web)</text></g><g class="participant participant-head" data-entity-uid="part5" data-qualified-name="Svc" id="part5-head"><rect fill="#E2E2F0" height="42" rx="2.5" ry="2.5" style="stroke:#181818;stroke-width:0.5;" width="150.9375" x="788.9414" y="71"/><text fill="#000000" font-family="Helvetica" font-size="14" lengthAdjust="spacing" textLength="136.9375" x="795.9414" y="88.7803">MatchAnalysisService</text><text fill="#000000" font-family="Helvetica" font-size="14" lengthAdjust="spacing" textLength="76.2617" x="826.2793" y="102.7803">(application)</text></g><g class="participant participant-tail" data-entity-uid="part5" data-qualified-name="Svc" id="part5-tail"><rect fill="#E2E2F0" height="42" rx="2.5" ry="2.5" style="stroke:#181818;stroke-width:0.5;" width="150.9375" x="788.9414" y="1009"/><text fill="#000000" font-family="Helvetica" font-size="14" lengthAdjust="spacing" textLength="136.9375" x="795.9414" y="1026.7803">MatchAnalysisService</text><text fill="#000000" font-family="Helvetica" font-size="14" lengthAdjust="spacing" textLength="76.2617" x="826.2793" y="1040.7803">(application)</text></g><g class="participant participant-head" data-entity-uid="part6" data-qualified-name="Stats" id="part6-head"><rect fill="#E2E2F0" height="28" rx="2.5" ry="2.5" style="stroke:#181818;stroke-width:0.5;" width="154.8203" x="1027.9844" y="85"/><text fill="#000000" font-family="Helvetica" font-size="14" lengthAdjust="spacing" textLength="140.8203" x="1034.9844" y="102.7803">MatchStatisticsService</text></g><g class="participant participant-tail" data-entity-uid="part6" data-qualified-name="Stats" id="part6-tail"><rect fill="#E2E2F0" height="28" rx="2.5" ry="2.5" style="stroke:#181818;stroke-width:0.5;" width="154.8203" x="1027.9844" y="1009"/><text fill="#000000" font-family="Helvetica" font-size="14" lengthAdjust="spacing" textLength="140.8203" x="1034.9844" y="1026.7803">MatchStatisticsService</text></g><g class="participant participant-head" data-entity-uid="part7" data-qualified-name="Notes" id="part7-head"><rect fill="#E2E2F0" height="42" rx="2.5" ry="2.5" style="stroke:#181818;stroke-width:0.5;" width="170.3994" x="1192.8047" y="71"/><text fill="#000000" font-family="Helvetica" font-size="14" lengthAdjust="spacing" textLength="156.3994" x="1199.8047" y="88.7803">GetPlayerNotesUseCase</text><text fill="#000000" font-family="Helvetica" font-size="14" lengthAdjust="spacing" textLength="98.0273" x="1228.9907" y="102.7803">(match-module)</text></g><g class="participant participant-tail" data-entity-uid="part7" data-qualified-name="Notes" id="part7-tail"><rect fill="#E2E2F0" height="42" rx="2.5" ry="2.5" style="stroke:#181818;stroke-width:0.5;" width="170.3994" x="1192.8047" y="1009"/><text fill="#000000" font-family="Helvetica" font-size="14" lengthAdjust="spacing" textLength="156.3994" x="1199.8047" y="1026.7803">GetPlayerNotesUseCase</text><text fill="#000000" font-family="Helvetica" font-size="14" lengthAdjust="spacing" textLength="98.0273" x="1228.9907" y="1040.7803">(match-module)</text></g><g class="participant participant-head" data-entity-uid="part8" data-qualified-name="Llm" id="part8-head"><rect fill="#E2E2F0" height="42" rx="2.5" ry="2.5" style="stroke:#181818;stroke-width:0.5;" width="291.792" x="1373.2041" y="71"/><text fill="#000000" font-family="Helvetica" font-size="14" lengthAdjust="spacing" textLength="84.0273" x="1477.0864" y="88.7803">LlmClientPort</text><text fill="#000000" font-family="Helvetica" font-size="14" lengthAdjust="spacing" textLength="277.792" x="1380.2041" y="102.7803">(OpenAiLlmAdapter / FakeLlmClientAdapter)</text></g><g class="participant participant-tail" data-entity-uid="part8" data-qualified-name="Llm" id="part8-tail"><rect fill="#E2E2F0" height="42" rx="2.5" ry="2.5" style="stroke:#181818;stroke-width:0.5;" width="291.792" x="1373.2041" y="1009"/><text fill="#000000" font-family="Helvetica" font-size="14" lengthAdjust="spacing" textLength="84.0273" x="1477.0864" y="1026.7803">LlmClientPort</text><text fill="#000000" font-family="Helvetica" font-size="14" lengthAdjust="spacing" textLength="277.792" x="1380.2041" y="1040.7803">(OpenAiLlmAdapter / FakeLlmClientAdapter)</text></g><g class="participant participant-head" data-entity-uid="part9" data-qualified-name="DB" id="part9-head"><text fill="#000000" font-family="Helvetica" font-size="14" lengthAdjust="spacing" textLength="96.4893" x="1674.9961" y="110.7803">match_analysis</text><path d="M1708.2407,64 C1708.2407,54 1726.2407,54 1726.2407,54 C1726.2407,54 1744.2407,54 1744.2407,64 L1744.2407,90 C1744.2407,100 1726.2407,100 1726.2407,100 C1726.2407,100 1708.2407,100 1708.2407,90 L1708.2407,64" fill="#E2E2F0" style="stroke:#181818;stroke-width:0.5;"/><path d="M1708.2407,64 C1708.2407,74 1726.2407,74 1726.2407,74 C1726.2407,74 1744.2407,74 1744.2407,64" fill="none" style="stroke:#181818;stroke-width:0.5;"/></g><g class="participant participant-tail" data-entity-uid="part9" data-qualified-name="DB" id="part9-tail"><text fill="#000000" font-family="Helvetica" font-size="14" lengthAdjust="spacing" textLength="96.4893" x="1674.9961" y="1019.7803">match_analysis</text><path d="M1708.2407,1033 C1708.2407,1023 1726.2407,1023 1726.2407,1023 C1726.2407,1023 1744.2407,1023 1744.2407,1033 L1744.2407,1059 C1744.2407,1069 1726.2407,1069 1726.2407,1069 C1726.2407,1069 1708.2407,1069 1708.2407,1059 L1708.2407,1033" fill="#E2E2F0" style="stroke:#181818;stroke-width:0.5;"/><path d="M1708.2407,1033 C1708.2407,1043 1726.2407,1043 1726.2407,1043 C1726.2407,1043 1744.2407,1043 1744.2407,1033" fill="none" style="stroke:#181818;stroke-width:0.5;"/></g><g class="participant participant-head" data-entity-uid="part10" data-qualified-name="OpenAI" id="part10-head"><rect fill="#E2E2F0" height="42" rx="2.5" ry="2.5" style="stroke:#181818;stroke-width:0.5;" width="125.2754" x="1787.4854" y="71"/><text fill="#000000" font-family="Helvetica" font-size="14" lengthAdjust="spacing" textLength="47.4756" x="1826.3853" y="88.7803">OpenAI</text><text fill="#000000" font-family="Helvetica" font-size="14" lengthAdjust="spacing" textLength="111.2754" x="1794.4854" y="102.7803">Chat Completions</text></g><g class="participant participant-tail" data-entity-uid="part10" data-qualified-name="OpenAI" id="part10-tail"><rect fill="#E2E2F0" height="42" rx="2.5" ry="2.5" style="stroke:#181818;stroke-width:0.5;" width="125.2754" x="1787.4854" y="1009"/><text fill="#000000" font-family="Helvetica" font-size="14" lengthAdjust="spacing" textLength="47.4756" x="1826.3853" y="1026.7803">OpenAI</text><text fill="#000000" font-family="Helvetica" font-size="14" lengthAdjust="spacing" textLength="111.2754" x="1794.4854" y="1040.7803">Chat Completions</text></g><g><title>Spring Boot</title><rect fill="#FFFFFF" height="782" style="stroke:#181818;stroke-width:1;" width="10" x="468.1978" y="183"/></g><g><title>MatchAnalysisController</title><rect fill="#FFFFFF" height="728" style="stroke:#181818;stroke-width:1;" width="10" x="620.1904" y="210"/></g><g><title>MatchAnalysisService</title><rect fill="#FFFFFF" height="674" style="stroke:#181818;stroke-width:1;" width="10" x="859.4102" y="237"/></g><g><title>LlmClientPort</title><rect fill="#FFFFFF" height="176" style="stroke:#181818;stroke-width:1;" width="10" x="1514.1001" y="531"/></g><g class="message" data-entity-1="part1" data-entity-2="part2" id="msg1"><polygon fill="#181818" points="251.4971,139,261.4971,143,251.4971,147,255.4971,143" style="stroke:#181818;stroke-width:1;"/><line style="stroke:#181818;stroke-width:1;" x1="28.2344" x2="257.4971" y1="143" y2="143"/><text fill="#000000" font-family="Helvetica" font-size="13" lengthAdjust="spacing" textLength="211.2627" x="40.2344" y="138.0103">Klick &#8222;Taktische Analyse generieren"</text></g><g class="message" data-entity-1="part2" data-entity-2="part3" id="msg2"><polygon fill="#181818" points="456.1978,179,466.1978,183,456.1978,187,460.1978,183" style="stroke:#181818;stroke-width:1;"/><line style="stroke:#181818;stroke-width:1;" x1="263.4971" x2="462.1978" y1="183" y2="183"/><text fill="#000000" font-family="Helvetica" font-size="13" lengthAdjust="spacing" textLength="185.7007" x="272.9971" y="165.0103">POST /api/matches/{id}/analysis</text><text fill="#000000" font-family="Helvetica" font-size="13" lengthAdjust="spacing" textLength="167.6289" x="282.033" y="178.0103">Authorization: Bearer &lt;JWT&gt;</text></g><g class="message" data-entity-1="part3" data-entity-2="part4" id="msg3"><polygon fill="#181818" points="608.1904,206,618.1904,210,608.1904,214,612.1904,210" style="stroke:#181818;stroke-width:1;"/><line style="stroke:#181818;stroke-width:1;" x1="478.1978" x2="614.1904" y1="210" y2="210"/><text fill="#000000" font-family="Helvetica" font-size="13" lengthAdjust="spacing" textLength="118.5044" x="489.9419" y="205.0103">generateAnalysis(id)</text></g><g class="message" data-entity-1="part4" data-entity-2="part5" id="msg4"><polygon fill="#181818" points="847.4102,233,857.4102,237,847.4102,241,851.4102,237" style="stroke:#181818;stroke-width:1;"/><line style="stroke:#181818;stroke-width:1;" x1="630.1904" x2="853.4102" y1="237" y2="237"/><text fill="#000000" font-family="Helvetica" font-size="13" lengthAdjust="spacing" textLength="106.2217" x="691.6895" y="232.0103">generate(matchId)</text></g><g class="message" data-entity-1="part5" data-entity-2="part5" id="msg5"><line style="stroke:#181818;stroke-width:1;" x1="869.4102" x2="911.4102" y1="277" y2="277"/><line style="stroke:#181818;stroke-width:1;" x1="911.4102" x2="911.4102" y1="277" y2="290"/><line style="stroke:#181818;stroke-width:1;" x1="870.4102" x2="911.4102" y1="290" y2="290"/><polygon fill="#181818" points="880.4102,286,870.4102,290,880.4102,294,876.4102,290" style="stroke:#181818;stroke-width:1;"/><text fill="#000000" font-family="Helvetica" font-size="13" lengthAdjust="spacing" textLength="206.9844" x="876.4102" y="259.0103">assert MatchStatus = COMPLETED</text><text fill="#000000" font-family="Helvetica" font-size="13" lengthAdjust="spacing" textLength="49.1499" x="955.3274" y="272.0103">else 409</text></g><g class="message" data-entity-1="part5" data-entity-2="part6" id="msg6"><polygon fill="#181818" points="1093.3945,313,1103.3945,317,1093.3945,321,1097.3945,317" style="stroke:#181818;stroke-width:1;"/><line style="stroke:#181818;stroke-width:1;" x1="869.4102" x2="1099.3945" y1="317" y2="317"/><text fill="#000000" font-family="Helvetica" font-size="13" lengthAdjust="spacing" textLength="104.7617" x="935.0215" y="312.0103">compute(matchId)</text></g><g class="message" data-entity-1="part6" data-entity-2="part5" id="msg7"><polygon fill="#181818" points="880.4102,340,870.4102,344,880.4102,348,876.4102,344" style="stroke:#181818;stroke-width:1;"/><line style="stroke:#181818;stroke-width:1;stroke-dasharray:2,2;" x1="874.4102" x2="1104.3945" y1="344" y2="344"/><text fill="#000000" font-family="Helvetica" font-size="13" lengthAdjust="spacing" textLength="87.4136" x="943.6956" y="339.0103">MatchStatistics</text></g><g class="message" data-entity-1="part5" data-entity-2="part5" id="msg8"><line style="stroke:#181818;stroke-width:1;" x1="869.4102" x2="911.4102" y1="384" y2="384"/><line style="stroke:#181818;stroke-width:1;" x1="911.4102" x2="911.4102" y1="384" y2="397"/><line style="stroke:#181818;stroke-width:1;" x1="870.4102" x2="911.4102" y1="397" y2="397"/><polygon fill="#181818" points="880.4102,393,870.4102,397,880.4102,401,876.4102,397" style="stroke:#181818;stroke-width:1;"/><text fill="#000000" font-family="Helvetica" font-size="13" lengthAdjust="spacing" textLength="128.5337" x="876.4102" y="366.0103">assert totalPoints &#8805; 10</text><text fill="#000000" font-family="Helvetica" font-size="13" lengthAdjust="spacing" textLength="49.1499" x="916.1021" y="379.0103">else 422</text></g><g class="message" data-entity-1="part5" data-entity-2="part7" id="msg9"><polygon fill="#181818" points="1266.0044,420,1276.0044,424,1266.0044,428,1270.0044,424" style="stroke:#181818;stroke-width:1;"/><line style="stroke:#181818;stroke-width:1;" x1="869.4102" x2="1272.0044" y1="424" y2="424"/><text fill="#000000" font-family="Helvetica" font-size="13" lengthAdjust="spacing" textLength="105.4727" x="1020.9709" y="419.0103">forMatch(matchId)</text></g><g class="message" data-entity-1="part7" data-entity-2="part5" id="msg10"><polygon fill="#181818" points="880.4102,447,870.4102,451,880.4102,455,876.4102,451" style="stroke:#181818;stroke-width:1;"/><line style="stroke:#181818;stroke-width:1;stroke-dasharray:2,2;" x1="874.4102" x2="1277.0044" y1="451" y2="451"/><text fill="#000000" font-family="Helvetica" font-size="13" lengthAdjust="spacing" textLength="166.1816" x="990.6165" y="446.0103">List&lt;MatchPlayerNote&gt; (0-2)</text></g><g class="message" data-entity-1="part5" data-entity-2="part5" id="msg11"><line style="stroke:#181818;stroke-width:1;" x1="869.4102" x2="911.4102" y1="491" y2="491"/><line style="stroke:#181818;stroke-width:1;" x1="911.4102" x2="911.4102" y1="491" y2="504"/><line style="stroke:#181818;stroke-width:1;" x1="870.4102" x2="911.4102" y1="504" y2="504"/><polygon fill="#181818" points="880.4102,500,870.4102,504,880.4102,508,876.4102,504" style="stroke:#181818;stroke-width:1;"/><text fill="#000000" font-family="Helvetica" font-size="13" lengthAdjust="spacing" textLength="149.5571" x="876.4102" y="473.0103">Coach-Notizen in Prompt-</text><text fill="#000000" font-family="Helvetica" font-size="13" lengthAdjust="spacing" textLength="148.8589" x="876.7593" y="486.0103">Kontext einbetten (FA-22)</text></g><g class="message" data-entity-1="part5" data-entity-2="part8" id="msg12"><polygon fill="#181818" points="1502.1001,527,1512.1001,531,1502.1001,535,1506.1001,531" style="stroke:#181818;stroke-width:1;"/><line style="stroke:#181818;stroke-width:1;" x1="869.4102" x2="1508.1001" y1="531" y2="531"/><text fill="#000000" font-family="Helvetica" font-size="13" lengthAdjust="spacing" textLength="266.2651" x="1058.6226" y="526.0103">generateAnalysis(stats, playerMeta + Notizen)</text></g><path d="M1363.2041,546 L1423.375,546 L1423.375,551 L1413.375,561 L1363.2041,561 L1363.2041,546" fill="#EEEEEE" style="stroke:#000000;stroke-width:1.5;"/><rect fill="none" height="122" style="stroke:#000000;stroke-width:1.5;" width="559.5566" x="1363.2041" y="546"/><text fill="#000000" font-family="Helvetica" font-size="13" font-weight="bold" lengthAdjust="spacing" textLength="15.1709" x="1378.2041" y="557.0103">alt</text><text fill="#000000" font-family="Helvetica" font-size="11" font-weight="bold" lengthAdjust="spacing" textLength="113.6738" x="1438.375" y="556.4702">[API-Key konfiguriert]</text><g class="message" data-entity-1="part8" data-entity-2="part10" id="msg13"><polygon fill="#181818" points="1838.123,576,1848.123,580,1838.123,584,1842.123,580" style="stroke:#181818;stroke-width:1;"/><line style="stroke:#181818;stroke-width:1;" x1="1524.1001" x2="1844.123" y1="580" y2="580"/><text fill="#000000" font-family="Helvetica" font-size="13" lengthAdjust="spacing" textLength="221.0762" x="1576.5735" y="575.0103">ChatClient.entity(MatchAnalysis.class)</text></g><g class="message" data-entity-1="part10" data-entity-2="part8" id="msg14"><polygon fill="#181818" points="1535.1001,603,1525.1001,607,1535.1001,611,1531.1001,607" style="stroke:#181818;stroke-width:1;"/><line style="stroke:#181818;stroke-width:1;stroke-dasharray:2,2;" x1="1529.1001" x2="1849.123" y1="607" y2="607"/><text fill="#000000" font-family="Helvetica" font-size="13" lengthAdjust="spacing" textLength="96.0845" x="1639.0693" y="602.0103">structured JSON</text></g><line style="stroke:#000000;stroke-width:1;stroke-dasharray:2,2;" x1="1363.2041" x2="1922.7607" y1="616" y2="616"/><text fill="#000000" font-family="Helvetica" font-size="11" font-weight="bold" lengthAdjust="spacing" textLength="74.5723" x="1368.2041" y="624.4702">[kein API-Key]</text><g class="message" data-entity-1="part8" data-entity-2="part8" id="msg15"><line style="stroke:#181818;stroke-width:1;" x1="1524.1001" x2="1566.1001" y1="647" y2="647"/><line style="stroke:#181818;stroke-width:1;" x1="1566.1001" x2="1566.1001" y1="647" y2="660"/><line style="stroke:#181818;stroke-width:1;" x1="1525.1001" x2="1566.1001" y1="660" y2="660"/><polygon fill="#181818" points="1535.1001,656,1525.1001,660,1535.1001,664,1531.1001,660" style="stroke:#181818;stroke-width:1;"/><text fill="#000000" font-family="Helvetica" font-size="13" lengthAdjust="spacing" textLength="101.1499" x="1531.1001" y="642.0103">deterministic stub</text></g><g class="message" data-entity-1="part8" data-entity-2="part5" id="msg16"><polygon fill="#181818" points="880.4102,703,870.4102,707,880.4102,711,876.4102,707" style="stroke:#181818;stroke-width:1;"/><line style="stroke:#181818;stroke-width:1;stroke-dasharray:2,2;" x1="874.4102" x2="1518.1001" y1="707" y2="707"/><text fill="#000000" font-family="Helvetica" font-size="13" lengthAdjust="spacing" textLength="184.2026" x="1102.1538" y="689.0103">MatchAnalysis (COMPLETED) /</text><text fill="#000000" font-family="Helvetica" font-size="13" lengthAdjust="spacing" textLength="86.7217" x="1154.5061" y="702.0103">oder Exception</text></g><path d="M403.6772,722 L463.8481,722 L463.8481,727 L453.8481,737 L403.6772,737 L403.6772,722" fill="#EEEEEE" style="stroke:#000000;stroke-width:1.5;"/><rect fill="none" height="136" style="stroke:#000000;stroke-width:1.5;" width="1383.8081" x="403.6772" y="722"/><text fill="#000000" font-family="Helvetica" font-size="13" font-weight="bold" lengthAdjust="spacing" textLength="15.1709" x="418.6772" y="733.0103">alt</text><text fill="#000000" font-family="Helvetica" font-size="11" font-weight="bold" lengthAdjust="spacing" textLength="64.1738" x="478.8481" y="732.4702">[erfolgreich]</text><g class="message" data-entity-1="part5" data-entity-2="part9" id="msg17"><polygon fill="#181818" points="1714.2407,752,1724.2407,756,1714.2407,760,1718.2407,756" style="stroke:#181818;stroke-width:1;"/><line style="stroke:#181818;stroke-width:1;" x1="869.4102" x2="1720.2407" y1="756" y2="756"/><text fill="#000000" font-family="Helvetica" font-size="13" lengthAdjust="spacing" textLength="277.4053" x="1159.1228" y="751.0103">UPSERT match_analysis (status COMPLETED)</text></g><line style="stroke:#000000;stroke-width:1;stroke-dasharray:2,2;" x1="403.6772" x2="1787.4854" y1="765" y2="765"/><text fill="#000000" font-family="Helvetica" font-size="11" font-weight="bold" lengthAdjust="spacing" textLength="66.6016" x="408.6772" y="773.4702">[LLM-Fehler]</text><g class="message" data-entity-1="part5" data-entity-2="part9" id="msg18"><polygon fill="#181818" points="1714.2407,792,1724.2407,796,1714.2407,800,1718.2407,796" style="stroke:#181818;stroke-width:1;"/><line style="stroke:#181818;stroke-width:1;" x1="869.4102" x2="1720.2407" y1="796" y2="796"/><text fill="#000000" font-family="Helvetica" font-size="13" lengthAdjust="spacing" textLength="329.437" x="1133.1069" y="791.0103">UPSERT match_analysis (status FAILED, errorMessage)</text></g><g class="message" data-entity-1="part5" data-entity-2="part4" id="msg19"><polygon fill="#181818" points="641.1904,819,631.1904,823,641.1904,827,637.1904,823" style="stroke:#181818;stroke-width:1;"/><line style="stroke:#181818;stroke-width:1;" x1="635.1904" x2="858.4102" y1="823" y2="823"/><text fill="#000000" font-family="Helvetica" font-size="13" lengthAdjust="spacing" textLength="205.2197" x="642.1904" y="818.0103">throw AnalysisGenerationException</text></g><g class="message" data-entity-1="part4" data-entity-2="part3" id="msg20"><polygon fill="#181818" points="489.1978,846,479.1978,850,489.1978,854,485.1978,850" style="stroke:#181818;stroke-width:1;"/><line style="stroke:#181818;stroke-width:1;stroke-dasharray:2,2;" x1="483.1978" x2="619.1904" y1="850" y2="850"/><text fill="#000000" font-family="Helvetica" font-size="13" lengthAdjust="spacing" textLength="106.9453" x="495.7214" y="845.0103">502 ProblemDetail</text></g><g class="message" data-entity-1="part9" data-entity-2="part5" id="msg21"><polygon fill="#181818" points="880.4102,880,870.4102,884,880.4102,888,876.4102,884" style="stroke:#181818;stroke-width:1;"/><line style="stroke:#181818;stroke-width:1;stroke-dasharray:2,2;" x1="874.4102" x2="1725.2407" y1="884" y2="884"/><text fill="#000000" font-family="Helvetica" font-size="13" lengthAdjust="spacing" textLength="52.749" x="1271.4509" y="879.0103">persisted</text></g><g class="message" data-entity-1="part5" data-entity-2="part4" id="msg22"><polygon fill="#181818" points="641.1904,907,631.1904,911,641.1904,915,637.1904,911" style="stroke:#181818;stroke-width:1;"/><line style="stroke:#181818;stroke-width:1;stroke-dasharray:2,2;" x1="635.1904" x2="863.4102" y1="911" y2="911"/><text fill="#000000" font-family="Helvetica" font-size="13" lengthAdjust="spacing" textLength="142.3462" x="676.1272" y="906.0103">MatchAnalysisResponse</text></g><g class="message" data-entity-1="part4" data-entity-2="part3" id="msg23"><polygon fill="#181818" points="489.1978,934,479.1978,938,489.1978,942,485.1978,938" style="stroke:#181818;stroke-width:1;"/><line style="stroke:#181818;stroke-width:1;stroke-dasharray:2,2;" x1="483.1978" x2="624.1904" y1="938" y2="938"/><text fill="#000000" font-family="Helvetica" font-size="13" lengthAdjust="spacing" textLength="93.5708" x="504.9087" y="933.0103">200 OK + JSON</text></g><g class="message" data-entity-1="part3" data-entity-2="part2" id="msg24"><polygon fill="#181818" points="274.4971,961,264.4971,965,274.4971,969,270.4971,965" style="stroke:#181818;stroke-width:1;"/><line style="stroke:#181818;stroke-width:1;stroke-dasharray:2,2;" x1="268.4971" x2="472.1978" y1="965" y2="965"/><text fill="#000000" font-family="Helvetica" font-size="13" lengthAdjust="spacing" textLength="82.7544" x="326.9702" y="960.0103">200 + Analyse</text></g><g class="message" data-entity-1="part2" data-entity-2="part1" id="msg25"><polygon fill="#181818" points="39.2344,988,29.2344,992,39.2344,996,35.2344,992" style="stroke:#181818;stroke-width:1;"/><line style="stroke:#181818;stroke-width:1;" x1="33.2344" x2="262.4971" y1="992" y2="992"/><text fill="#000000" font-family="Helvetica" font-size="13" lengthAdjust="spacing" textLength="167.2988" x="62.2163" y="987.0103">5 Textfelder + Empfehlungen</text></g><?plantuml-src bLLDZzis4BthLmpsP6EZjMkq1Hga2sZzaJgsrqRie1S31IsDRS8KgPBKRdQB0htstdDlHVz7Vqf-IOUaPKd9ea0FleZlpUFCUnnRRWN2R1elc4sFSIAPU3881vIeEMgKyEctFs2DFvSedw6pVaR9D5Vmpz_VtWowKMHEN1PCinoCnwIuG6FO0HF13n9Ib1Pr4tLacNhayW1x9WmsJZBSirBOYPBsdkK8Fw1uGCjJ5aKijKh3KB7q616OFlA2IGjNYJoKWcbOhvAjxEI-1UPRuAPx1Sp0PDnch0ljnE-Kiblv7eqgTOhKdtv0xGd9Qjfc-C4avw93kfrMGg0cFSRZN6MbmDuZxeBSq6hn7tIdmrDqtA8Gr9lbIWRc-Y5zWRYs137qiQ86B7qrRVHRj2l1db3VAulcWy4XCtYPIRXc4FA0Ddakyg7WPDLAQHfBPrcWJ3XzJJ9Ma7_GWmaxuGLs_XpgqTSeOvRjI12klDvFbGSUCBfhg_dgqwqS7fabK_D2e1j308V3AF9cGtnB1i9hcD6iJfJ4FpViHFD8ZmXV9lKg8Ymno46Yh9Rh3VHOmNl-IcXwl_3irrvriwrCIdjKcZzx3rx37J9DdRvvz-FcrWMEFp2BFWsk7fLrrb9ThqT7bQKTddLhlFVV8ub1bZO8mOff4-qyTw0BbXc3siB5-jB0zp1SBbRpyMOysaga9mDVzx-xi5mGY9VI5CkcH3Y8BuK_2zEBgbPP9bQAIs9--lql-AfV2Gu65S67XoXxfNt9MZ6Sr8fpKdhZCNKkRw7JZsbhjDIzqp4TSzejm2MiD7LZuwsSqMF3ZnQGonrQIwUTIH8FwW8KlPSSCQxvLr1utGLQ1jTmhjyOliij4zPP7C_m2KvAxlcXT5co4VZQ917owAv9QGtflw4Vjq-Trik-IGMDiKl4CoE-tCzONQQsr9Z1k_NoFl8pFL5JbNIj5WWPqkFAkVHU4RtSHIYpo6FQZbRgqBc4f0kzhGHG6OLv_375miKxol2Blb7lbJXevBHK0SuJ7TrHwG-hzVZz1jfF6VnOAP2rKkXaFb_44ppIIlnVPIR9T3uUlQ9hQCfI-C_erXNEhyqUjNg4gistmMbggEuC0ZI-FFnl-WCNePt0V4JUS-67HpUgPrUWfceMin2aMgurLFftA6WjONDuxiL-fZVezs4veuXvSnjOlmlyygZMc8DULvkh2NLh9YoliFUe2zXGzFSed8_NCCwBFSsub1JsVm40?></g></svg>