<?plantuml 1.2026.2?><svg xmlns="http://www.w3.org/2000/svg" xmlns:xlink="http://www.w3.org/1999/xlink" contentStyleType="text/css" data-diagram-type="DESCRIPTION" height="1743px" preserveAspectRatio="none" style="width:725px;height:1743px;background:#FFFFFF;" version="1.1" viewBox="0 0 725 1743" width="725px" zoomAndPan="magnify"><title>TSaS - Produktive Systemarchitektur</title><defs/><g><g class="title" data-source-line="19"><text fill="#000000" font-family="Arial" font-size="22" font-weight="bold" lengthAdjust="spacing" textLength="386.3535" x="164.8571" y="55.6357">TSaS - Produktive Systemarchitektur</text></g><!--cluster EDGE--><g class="cluster" data-qualified-name="EDGE" data-source-line="23" id="ent0003"><rect fill="#F3E5F5" height="461.8" rx="2.5" ry="2.5" style="stroke:#AAAAAA;stroke-width:2;" width="237" x="343.03" y="357.1879"/><text fill="#000000" font-family="Arial" font-size="12" font-weight="bold" lengthAdjust="spacing" textLength="76.6758" x="423.1921" y="390.4437">Internet Edge</text></g><!--cluster DMZ--><g class="cluster" data-qualified-name="DMZ" data-source-line="28" id="ent0006"><rect fill="#FFFDE7" height="187.9" rx="2.5" ry="2.5" style="stroke:#AAAAAA;stroke-width:2;" width="224" x="51.03" y="932.9879"/><text fill="#000000" font-family="Arial" font-size="12" font-weight="bold" lengthAdjust="spacing" textLength="116.6602" x="104.6999" y="966.2437">DMZ - Public Subnet</text></g><!--cluster PRIV--><g class="cluster" data-qualified-name="PRIV" data-source-line="32" id="ent0008"><rect fill="#E3F2FD" height="187.89" rx="2.5" ry="2.5" style="stroke:#AAAAAA;stroke-width:2;" width="628" x="51.03" y="1247.8879"/><text fill="#000000" font-family="Arial" font-size="12" font-weight="bold" lengthAdjust="spacing" textLength="84.0234" x="323.0183" y="1281.1437">Private Subnet</text></g><!--cluster DBNET--><g class="cluster" data-qualified-name="DBNET" data-source-line="37" id="ent0011"><rect fill="#EFEBE9" height="187.9" rx="2.5" ry="2.5" style="stroke:#AAAAAA;stroke-width:2;" width="214" x="61.03" y="1549.7779"/><text fill="#000000" font-family="Arial" font-size="12" font-weight="bold" lengthAdjust="spacing" textLength="61.3301" x="137.365" y="1583.0337">DB Subnet</text></g><!--entity CDN--><g class="entity" data-qualified-name="EDGE.CDN" data-source-line="24" id="ent0004"><polygon fill="#EE82EE" points="372.07,439.1879,382.07,429.1879,545.9899,429.1879,545.9899,519.0853,535.9899,529.0853,372.07,529.0853,372.07,439.1879" style="stroke:#000000;stroke-width:2;"/><line style="stroke:#000000;stroke-width:2;" x1="535.9899" x2="545.9899" y1="439.1879" y2="429.1879"/><line style="stroke:#000000;stroke-width:2;" x1="372.07" x2="535.9899" y1="439.1879" y2="439.1879"/><line style="stroke:#000000;stroke-width:2;" x1="535.9899" x2="535.9899" y1="439.1879" y2="529.0853"/><text fill="#000000" font-family="Arial" font-size="13" lengthAdjust="spacing" textLength="28.1646" x="407.07" y="481.3817">CDN</text><text fill="#000000" font-family="Arial" font-size="13" lengthAdjust="spacing" textLength="3.6118" x="435.2346" y="481.3817">&#160;</text><text fill="#000000" font-family="Arial" font-size="13" lengthAdjust="spacing" textLength="3.6118" x="438.8464" y="481.3817">/</text><text fill="#000000" font-family="Arial" font-size="13" lengthAdjust="spacing" textLength="3.6118" x="442.4582" y="481.3817">&#160;</text><text fill="#000000" font-family="Arial" font-size="13" lengthAdjust="spacing" textLength="28.8818" x="446.07" y="481.3817">WAF</text><text fill="#000000" font-family="Arial" font-size="13" lengthAdjust="spacing" textLength="26.7236" x="407.07" y="496.3304">(z.B.</text><text fill="#000000" font-family="Arial" font-size="13" lengthAdjust="spacing" textLength="3.6118" x="433.7936" y="496.3304">&#160;</text><text fill="#000000" font-family="Arial" font-size="13" lengthAdjust="spacing" textLength="63.5845" x="437.4054" y="496.3304">Cloudflare)</text></g><!--entity PROXY--><g class="entity" data-qualified-name="EDGE.PROXY" data-source-line="25" id="ent0005"><polygon fill="#DDA0DD" points="373.88,713.0879,383.88,703.0879,544.1818,703.0879,544.1818,792.9853,534.1818,802.9853,373.88,802.9853,373.88,713.0879" style="stroke:#000000;stroke-width:2;"/><line style="stroke:#000000;stroke-width:2;" x1="534.1818" x2="544.1818" y1="713.0879" y2="703.0879"/><line style="stroke:#000000;stroke-width:2;" x1="373.88" x2="534.1818" y1="713.0879" y2="713.0879"/><line style="stroke:#000000;stroke-width:2;" x1="534.1818" x2="534.1818" y1="713.0879" y2="802.9853"/><text fill="#000000" font-family="Arial" font-size="13" lengthAdjust="spacing" textLength="48.4072" x="408.88" y="755.2817">Reverse</text><text fill="#000000" font-family="Arial" font-size="13" lengthAdjust="spacing" textLength="3.6118" x="457.2872" y="755.2817">&#160;</text><text fill="#000000" font-family="Arial" font-size="13" lengthAdjust="spacing" textLength="33.23" x="460.899" y="755.2817">Proxy</text><text fill="#000000" font-family="Arial" font-size="13" lengthAdjust="spacing" textLength="35.4072" x="408.88" y="770.2304">(nginx</text><text fill="#000000" font-family="Arial" font-size="13" lengthAdjust="spacing" textLength="3.6118" x="444.2872" y="770.2304">&#160;</text><text fill="#000000" font-family="Arial" font-size="13" lengthAdjust="spacing" textLength="3.6118" x="447.899" y="770.2304">/</text><text fill="#000000" font-family="Arial" font-size="13" lengthAdjust="spacing" textLength="3.6118" x="451.5109" y="770.2304">&#160;</text><text fill="#000000" font-family="Arial" font-size="13" lengthAdjust="spacing" textLength="44.0591" x="455.1227" y="770.2304">Traefik)</text></g><!--entity SPA--><g class="entity" data-qualified-name="DMZ.SPA" data-source-line="29" id="ent0007"><polygon fill="#C8E6C9" points="67.04,1014.9879,77.04,1004.9879,259.019,1004.9879,259.019,1094.8853,249.019,1104.8853,67.04,1104.8853,67.04,1014.9879" style="stroke:#000000;stroke-width:2;"/><line style="stroke:#000000;stroke-width:2;" x1="249.019" x2="259.019" y1="1014.9879" y2="1004.9879"/><line style="stroke:#000000;stroke-width:2;" x1="67.04" x2="249.019" y1="1014.9879" y2="1014.9879"/><line style="stroke:#000000;stroke-width:2;" x1="249.019" x2="249.019" y1="1014.9879" y2="1104.8853"/><text fill="#000000" font-family="Arial" font-size="13" lengthAdjust="spacing" textLength="44.8081" x="102.04" y="1057.1817">Angular</text><text fill="#000000" font-family="Arial" font-size="13" lengthAdjust="spacing" textLength="3.6118" x="146.8481" y="1057.1817">&#160;</text><text fill="#000000" font-family="Arial" font-size="13" lengthAdjust="spacing" textLength="26.0127" x="150.4599" y="1057.1817">SPA</text><text fill="#000000" font-family="Arial" font-size="13" lengthAdjust="spacing" textLength="111.979" x="102.04" y="1072.1304">https://www.tsas.ch</text></g><!--entity API--><g class="entity" data-qualified-name="PRIV.API" data-source-line="33" id="ent0009"><polygon fill="#BBDEFB" points="66.96,1329.8879,76.96,1319.8879,269.0953,1319.8879,269.0953,1409.7853,259.0953,1419.7853,66.96,1419.7853,66.96,1329.8879" style="stroke:#000000;stroke-width:2;"/><line style="stroke:#000000;stroke-width:2;" x1="259.0953" x2="269.0953" y1="1329.8879" y2="1319.8879"/><line style="stroke:#000000;stroke-width:2;" x1="66.96" x2="259.0953" y1="1329.8879" y2="1329.8879"/><line style="stroke:#000000;stroke-width:2;" x1="259.0953" x2="259.0953" y1="1329.8879" y2="1419.7853"/><text fill="#000000" font-family="Arial" font-size="13" lengthAdjust="spacing" textLength="37.5781" x="101.96" y="1372.0817">Spring</text><text fill="#000000" font-family="Arial" font-size="13" lengthAdjust="spacing" textLength="3.6118" x="139.5381" y="1372.0817">&#160;</text><text fill="#000000" font-family="Arial" font-size="13" lengthAdjust="spacing" textLength="26.7427" x="143.1499" y="1372.0817">Boot</text><text fill="#000000" font-family="Arial" font-size="13" lengthAdjust="spacing" textLength="3.6118" x="169.8926" y="1372.0817">&#160;</text><text fill="#000000" font-family="Arial" font-size="13" lengthAdjust="spacing" textLength="50.5908" x="173.5044" y="1372.0817">Backend</text><text fill="#000000" font-family="Arial" font-size="13" lengthAdjust="spacing" textLength="101.1626" x="101.96" y="1387.0304">https://api.tsas.ch</text></g><!--entity KC--><g class="entity" data-qualified-name="PRIV.KC" data-source-line="34" id="ent0010"><polygon fill="#FFE0B2" points="473.47,1329.8879,483.47,1319.8879,662.5862,1319.8879,662.5862,1409.7853,652.5862,1419.7853,473.47,1419.7853,473.47,1329.8879" style="stroke:#000000;stroke-width:2;"/><line style="stroke:#000000;stroke-width:2;" x1="652.5862" x2="662.5862" y1="1329.8879" y2="1319.8879"/><line style="stroke:#000000;stroke-width:2;" x1="473.47" x2="652.5862" y1="1329.8879" y2="1329.8879"/><line style="stroke:#000000;stroke-width:2;" x1="652.5862" x2="652.5862" y1="1329.8879" y2="1419.7853"/><text fill="#000000" font-family="Arial" font-size="13" lengthAdjust="spacing" textLength="52.749" x="508.47" y="1372.0817">Keycloak</text><text fill="#000000" font-family="Arial" font-size="13" lengthAdjust="spacing" textLength="109.1162" x="508.47" y="1387.0304">https://auth.tsas.ch</text></g><!--entity DB--><g class="entity" data-qualified-name="DBNET.DB" data-source-line="38" id="ent0012"><polygon fill="#D7CCC8" points="77.45,1631.7779,87.45,1621.7779,258.6126,1621.7779,258.6126,1711.6753,248.6126,1721.6753,77.45,1721.6753,77.45,1631.7779" style="stroke:#000000;stroke-width:2;"/><line style="stroke:#000000;stroke-width:2;" x1="248.6126" x2="258.6126" y1="1631.7779" y2="1621.7779"/><line style="stroke:#000000;stroke-width:2;" x1="77.45" x2="248.6126" y1="1631.7779" y2="1631.7779"/><line style="stroke:#000000;stroke-width:2;" x1="248.6126" x2="248.6126" y1="1631.7779" y2="1721.6753"/><text fill="#000000" font-family="Arial" font-size="13" lengthAdjust="spacing" textLength="70.8145" x="112.45" y="1673.9717">PostgreSQL</text><text fill="#000000" font-family="Arial" font-size="13" lengthAdjust="spacing" textLength="23.8418" x="112.45" y="1688.9204">Port</text><text fill="#000000" font-family="Arial" font-size="13" lengthAdjust="spacing" textLength="3.6118" x="136.2918" y="1688.9204">&#160;</text><text fill="#000000" font-family="Arial" font-size="13" lengthAdjust="spacing" textLength="28.9199" x="139.9036" y="1688.9204">5432</text><text fill="#000000" font-family="Arial" font-size="13" lengthAdjust="spacing" textLength="3.6118" x="168.8235" y="1688.9204">&#160;</text><text fill="#000000" font-family="Arial" font-size="13" lengthAdjust="spacing" textLength="41.1772" x="172.4354" y="1688.9204">(intern)</text></g><!--entity User--><g class="entity" data-qualified-name="User" data-source-line="21" id="ent0002"><ellipse cx="459.0277" cy="105.2979" fill="#FFFFFF" rx="8" ry="8" style="stroke:#000000;stroke-width:1;"/><path d="M459.0277,113.2979 L459.0277,140.2979 M446.0277,121.2979 L472.0277,121.2979 M459.0277,140.2979 L446.0277,155.2979 M459.0277,140.2979 L472.0277,155.2979" fill="none" style="stroke:#000000;stroke-width:1;"/><text fill="#000000" font-family="Arial" font-size="13" lengthAdjust="spacing" textLength="52.0317" x="430.86" y="189.4917">Benutzer</text><text fill="#000000" font-family="Arial" font-size="13" lengthAdjust="spacing" textLength="56.3354" x="430.86" y="204.4404">(Browser)</text></g><!--link User to CDN--><g class="link" data-entity-1="ent0002" data-entity-2="ent0004" data-link-type="dependency" data-source-line="41" id="lnk13"><path d="M459.03,227.3279 C459.03,287.1579 459.03,368.8579 459.03,423.1279" fill="none" id="User-to-CDN" style="stroke:#555555;stroke-width:1;"/><polygon fill="#555555" points="459.03,429.1279,463.03,420.1279,459.03,424.1279,455.03,420.1279,459.03,429.1279" style="stroke:#555555;stroke-width:1;"/><text fill="#333333" font-family="Arial" font-size="11" lengthAdjust="spacing" textLength="63.5776" x="480.03" y="318.5057">HTTPS / 443</text></g><!--link CDN to PROXY--><g class="link" data-entity-1="ent0004" data-entity-2="ent0005" data-link-type="dependency" data-source-line="42" id="lnk14"><path d="M459.03,529.3779 C459.03,578.4979 459.03,647.5479 459.03,696.7079" fill="none" id="CDN-to-PROXY" style="stroke:#555555;stroke-width:1;"/><polygon fill="#555555" points="459.03,702.7079,463.03,693.7079,459.03,697.7079,455.03,693.7079,459.03,702.7079" style="stroke:#555555;stroke-width:1;"/><text fill="#333333" font-family="Arial" font-size="11" lengthAdjust="spacing" textLength="63.5776" x="480.03" y="620.4057">HTTPS / 443</text></g><!--link PROXY to SPA--><g class="link" data-entity-1="ent0005" data-entity-2="ent0007" data-link-type="dependency" data-source-line="43" id="lnk15"><path d="M373.75,794.1079 C341.28,812.0979 305.52,835.4979 278.03,862.9879 C236.71,904.2979 206.7036,957.8926 186.9236,999.3526" fill="none" id="PROXY-to-SPA" style="stroke:#555555;stroke-width:1;"/><polygon fill="#555555" points="184.34,1004.7679,191.8255,998.3673,186.493,1000.2551,184.6051,994.9226,184.34,1004.7679" style="stroke:#555555;stroke-width:1;"/><text fill="#333333" font-family="Arial" font-size="11" lengthAdjust="spacing" textLength="63.5776" x="299.03" y="894.3057">HTTPS / 443</text></g><!--link PROXY to API--><g class="link" data-entity-1="ent0005" data-entity-2="ent0009" data-link-type="dependency" data-source-line="44" id="lnk16"><path d="M458.84,803.4079 C457.58,910.9279 449.67,1162.1979 404.03,1231.8879 C372.63,1279.8379 323.6704,1310.6054 274.9804,1332.3054" fill="none" id="PROXY-to-API" style="stroke:#555555;stroke-width:1;"/><polygon fill="#555555" points="269.5,1334.7479,279.3489,1334.7377,274.067,1332.7125,276.0922,1327.4306,269.5,1334.7479" style="stroke:#555555;stroke-width:1;"/><text fill="#333333" font-family="Arial" font-size="11" lengthAdjust="spacing" textLength="63.5776" x="476.04" y="1059.2557">HTTPS / 443</text></g><!--link PROXY to KC--><g class="link" data-entity-1="ent0005" data-entity-2="ent0010" data-link-type="dependency" data-source-line="45" id="lnk17"><path d="M510.59,803.3979 C539.75,835.0179 573.43,878.6979 589.03,924.9879 C635.17,1061.8679 604.02,1230.1457 583.19,1313.7857" fill="none" id="PROXY-to-KC" style="stroke:#555555;stroke-width:1;"/><polygon fill="#555555" points="581.74,1319.6079,587.7964,1311.8413,582.9483,1314.756,580.0335,1309.908,581.74,1319.6079" style="stroke:#555555;stroke-width:1;"/><text fill="#333333" font-family="Arial" font-size="11" lengthAdjust="spacing" textLength="63.5776" x="633.49" y="1059.2557">HTTPS / 443</text></g><!--link SPA to API--><g class="link" data-entity-1="ent0007" data-entity-2="ent0009" data-link-type="dependency" data-source-line="46" id="lnk18"><path d="M75.46,1105.1779 C54.82,1121.3279 35.5,1141.3079 24.03,1164.8879 C11,1191.6579 12.29,1204.5179 24.03,1231.8879 C38.86,1266.4379 62.5501,1292.5574 90.1701,1315.5674" fill="none" id="SPA-to-API" style="stroke:#555555;stroke-width:1;"/><polygon fill="#555555" points="94.78,1319.4079,90.4255,1310.5739,90.9384,1316.2075,85.3049,1316.7204,94.78,1319.4079" style="stroke:#555555;stroke-width:1;"/><text fill="#333333" font-family="Arial" font-size="11" lengthAdjust="spacing" textLength="100.5469" x="45.03" y="1196.2057">REST + Bearer JWT</text><text fill="#333333" font-family="Arial" font-size="11" lengthAdjust="spacing" textLength="63.5776" x="63.5146" y="1208.8546">HTTPS / 443</text></g><!--link SPA to KC--><g class="link" data-entity-1="ent0007" data-entity-2="ent0010" data-link-type="dependency" data-source-line="47" id="lnk19"><path d="M226.76,1105.1679 C302.61,1163.7679 423.7621,1257.3694 499.5921,1315.9594" fill="none" id="SPA-to-KC" style="stroke:#555555;stroke-width:1;"/><polygon fill="#555555" points="504.34,1319.6279,499.6638,1310.9599,500.3834,1316.5708,494.7725,1317.2904,504.34,1319.6279" style="stroke:#555555;stroke-width:1;"/><text fill="#333333" font-family="Arial" font-size="11" lengthAdjust="spacing" textLength="70.313" x="410.78" y="1196.2057">OAuth2 PKCE</text><text fill="#333333" font-family="Arial" font-size="11" lengthAdjust="spacing" textLength="63.5776" x="414.1477" y="1208.8546">HTTPS / 443</text></g><!--link API to KC--><g class="link" data-entity-1="ent0009" data-entity-2="ent0010" data-link-type="dependency" data-source-line="48" id="lnk20"><path d="M269.48,1369.8279 C332.09,1369.8279 405.88,1369.8279 467.21,1369.8279" fill="none" id="API-to-KC" style="stroke:#555555;stroke-width:1;"/><polygon fill="#555555" points="473.21,1369.8279,464.21,1365.8279,468.21,1369.8279,464.21,1373.8279,473.21,1369.8279" style="stroke:#555555;stroke-width:1;"/><text fill="#333333" font-family="Arial" font-size="11" lengthAdjust="spacing" textLength="60.5107" x="341.3234" y="1331.1457">JWKS-Abruf</text><text fill="#333333" font-family="Arial" font-size="11" lengthAdjust="spacing" textLength="63.5776" x="339.79" y="1343.7946">HTTPS / 443</text></g><!--link API to DB--><g class="link" data-entity-1="ent0009" data-entity-2="ent0012" data-link-type="dependency" data-source-line="49" id="lnk21"><path d="M168.03,1420.0179 C168.03,1475.6879 168.03,1559.8379 168.03,1615.5179" fill="none" id="API-to-DB" style="stroke:#555555;stroke-width:1;"/><polygon fill="#555555" points="168.03,1621.5179,172.03,1612.5179,168.03,1616.5179,164.03,1612.5179,168.03,1621.5179" style="stroke:#555555;stroke-width:1;"/><text fill="#333333" font-family="Arial" font-size="11" lengthAdjust="spacing" textLength="93.5322" x="189.03" y="1511.0957">JDBC / TCP / 5432</text></g><?plantuml-src XLFBRjim4BphAxRs9K5Xnx7Zvd4ee0VL9auJrLARjl25bjOo8OKqA2gEK_JVIqg98p_IyY08kxCpmrdfdPhZFS8YfunRHSRuWafw3mdEQ9ahNt1rGtNVbepc-_iXUq8u7ZIQ2veaZAVGxpMAN2GOuWAEUysgf3ohgXjOMqgnT4Kk9BI7rTbklWeVxsizpmwgqvJ3M56UvkW8cQ1yXjdLUHiMpLcSSImAwEy3lNfvkwrMES9KvCbU5HfdgHGbJsf3IgTIQ0nojHNWDhBjLsSRjUFQKanf0r58G-X084LIPeez88IhGk4zbV6SASnKAIsBnaepjnpafNf2EU47ZawrG7dO0bh0D_rcMMllq0Auv0ebHmKaIH6WWX7l4z7s1cJe3-6t1PKnQBdU3Hp1dUrhsgUkqmKt5sKoo_LbQte3Q1DorYTaFJJ61vG56j-FApt8KyOVDKqaASvOLWy6uziVFw7jUNRFywm_MnQzBx_CnSjfpc88owbnMnir7HEZHquRFcsUbjeKX84zuNEb5iN5qT5okUogWXRTU5wDwYQqtJFomJtV4GmaUw0ADxM2yULtVRk1t_UzXbYuaEPtSOHGO3QCF7aLfGks8Me7bz1s78_upffWXAiu5pHhJ9LglZ4sSiqjIS_fxsRZR2NYt918s_I9GyuRDWDHg5HY-FLwmWCX5GnF1dquODNs3vz7zGPENTSzCohcKm7e96B9En-XMYt01NoEeY3Kwpiv6LXrRGsfbxW9gMjhY0aT_Wqn4Vq7ekFOWTJC7SdIkTAO5vOn2IDu3mxgRrJ2rLqquNkcjeblRRs1FWGZbspYQzgroWl-wcuKTkofB6TxuI_qEk0QxZck-GFSG3_D7go_?></g></svg>